<?xml version="1.0" encoding="UTF-8"?>
<svg width="42px" height="31px" viewBox="0 0 42 31" version="1.1" xmlns="http://www.w3.org/2000/svg" xmlns:xlink="http://www.w3.org/1999/xlink">
    <!-- Generator: Sketch 48.2 (47327) - http://www.bohemiancoding.com/sketch -->
    <title>pricing_btn_3</title>
    <desc>Created with Sketch.</desc>
    <defs></defs>
    <g id="Pricing-v2a" stroke="none" stroke-width="1" fill="none" fill-rule="evenodd" transform="translate(-815.000000, -492.000000)">
        <g id="services" transform="translate(252.000000, 445.000000)" fill="#59A0FD" fill-rule="nonzero">
            <g id="pricing_btn_3" transform="translate(563.000000, 47.000000)">
                <path d="M13.4813171,0.0737560976 L13.4813171,10.8447642 L0,10.8447642 L0,26.4840163 L5.26308943,26.4840163 L5.26308943,30.9484228 L10.3230081,26.4840163 L23.1862764,26.4840163 L23.1862764,19.1387967 L29.377122,19.1387967 L35.3918862,24.4457073 L35.3918862,19.1387967 L41.949122,19.1387967 L41.949122,0.0737560976 L13.4813171,0.0737560976 Z M21.4789593,24.7766992 L9.67752846,24.7766992 L6.9704065,27.1652358 L6.9704065,24.776813 L1.70731707,24.776813 L1.70731707,12.5520813 L13.4813171,12.5520813 L13.4813171,19.1387967 L21.4789593,19.1387967 L21.4789593,24.7766992 Z M40.2419187,17.4314797 L33.6846829,17.4314797 L33.6846829,20.6625203 L30.0227154,17.4314797 L15.1886341,17.4314797 L15.1886341,1.78107317 L40.2419187,1.78107317 L40.2418049,17.4314797 L40.2419187,17.4314797 Z" id="Shape"></path>
            </g>
        </g>
    </g>
</svg>