<?xml version="1.0" encoding="UTF-8"?>
<svg width="45px" height="45px" viewBox="0 0 45 45" version="1.1" xmlns="http://www.w3.org/2000/svg" xmlns:xlink="http://www.w3.org/1999/xlink">
    <!-- Generator: Sketch 44.1 (41455) - http://www.bohemiancoding.com/sketch -->
    <title>‟</title>
    <desc>Created with Sketch.</desc>
    <defs></defs>
    <g id="Page-1" stroke="none" stroke-width="1" fill="none" fill-rule="evenodd">
        <g id="Article" transform="translate(-313.000000, -1592.000000)" fill="#E3E3E3">
            <g id="Group-2" transform="translate(0.000000, 548.000000)">
                <path d="M355.638909,1088.43555 C344.372698,1085.63329 338.739676,1075.5682 338.739676,1058.23996 L338.739676,1045.995 C338.739676,1044.89319 339.632656,1044 340.741703,1044 L355.781455,1044 C356.887144,1044 357.783482,1044.89298 357.783482,1046.00203 L357.783482,1061.04178 C357.783482,1062.14747 356.880219,1063.04381 355.78992,1063.04381 L351.627668,1063.04381 C350.526654,1063.04381 349.634106,1063.9432 349.634106,1064.93103 L349.634106,1064.93103 C349.634106,1074.25282 351.635687,1079.97162 355.638909,1082.08761 L355.638909,1088.43555 Z M329.899233,1088.43555 C318.633021,1085.63329 313,1075.5682 313,1058.23996 L313,1045.995 C313,1044.89319 313.892979,1044 315.002027,1044 L330.041779,1044 C331.147468,1044 332.043806,1044.89298 332.043806,1046.00203 L332.043806,1061.04178 C332.043806,1062.14747 331.140543,1063.04381 330.050244,1063.04381 L325.887991,1063.04381 C324.786977,1063.04381 323.894429,1063.9432 323.894429,1064.93103 L323.894429,1064.93103 C323.894429,1074.25282 325.896011,1079.97162 329.899233,1082.08761 L329.899233,1088.43555 Z" id="‟" transform="translate(335.391741, 1066.217773) scale(1, -1) translate(-335.391741, -1066.217773) "></path>
            </g>
        </g>
    </g>
</svg>