<?xml version="1.0" encoding="UTF-8"?>
<svg width="279px" height="129px" viewBox="0 0 279 129" version="1.1" xmlns="http://www.w3.org/2000/svg" xmlns:xlink="http://www.w3.org/1999/xlink">
    <!-- Generator: Sketch 46.1 (44463) - http://www.bohemiancoding.com/sketch -->
    <title>bulb</title>
    <desc>Created with Sketch.</desc>
    <defs></defs>
    <g id="Page-1" stroke="none" stroke-width="1" fill="none" fill-rule="evenodd">
        <g id="the-popup" transform="translate(-782.000000, -105.000000)">
            <g id="Group-2" transform="translate(370.000000, 105.000000)">
                <g id="bulb" transform="translate(552.500000, 69.000000) scale(-1, 1) translate(-552.500000, -69.000000) translate(411.000000, 0.000000)">
                    <path d="M225,62.5359562 C228.273185,60.7139718 250.929634,49.4461467 261.595083,54.1309345 C261.703742,54.1794267 261.812401,54.2296823 261.917596,54.2799379 C266.99296,56.72659 269.919822,59.5303212 272.754042,62.2419171 C275.276572,64.6563881 277.884384,67.1537367 282,69.403775 C281.15021,70.2744306 275.350166,75.8805703 269.472632,73.2990217 C268.640591,72.9340076 267.831061,72.4173452 267.068285,71.7569695 L267.063523,71.7538837 C266.986033,71.6802637 259.329265,64.5157607 254.43702,62.3679969 C254.25953,62.2890868 254.052169,62.3719644 253.977709,62.5509447 C253.901951,62.7312476 253.982038,62.9402049 254.160828,63.0173516 C258.526229,64.9363204 265.217621,71.0084262 266.395552,72.0928883 C266.251396,72.1986894 266.085161,72.3322634 265.901176,72.4843526 C264.423243,73.6816692 261.351358,76.1746094 257.216695,74.3579151 C255.914953,73.7861479 254.587671,72.8242389 253.271643,71.4977566 C252.840471,71.0229739 248.872476,66.7600682 243.436937,64.3716066 L243.306633,64.3156202 C243.130008,64.239796 242.926543,64.3239961 242.849919,64.5042989 C242.776758,64.6832793 242.858144,64.8913549 243.033903,64.9689424 L243.183255,65.0333048 C248.084158,67.1854771 251.75648,70.9070334 252.623154,71.831912 C252.250423,72.1929585 249.942614,73.9007658 246.833499,72.5368124 C246.198862,72.2573209 245.535654,71.8724691 244.868116,71.3972455 C242.20749,69.4994369 239.371538,67.883324 236.439048,66.5956355 C232.14724,64.7106112 228.564529,63.3744306 225.220781,63.3572379 L225,62.5359562 Z" id="Fill-11" fill="#EAF5FE"></path>
                    <path d="M174.613261,39.3036522 C173.847079,35.6414783 167.558109,11.1514783 157.316897,6.058 C157.211685,6.00582609 157.106048,5.95495652 157.002958,5.90886957 C151.972715,3.62495652 148.054412,3.20234783 144.266352,2.79495652 C140.89023,2.43147826 137.400412,2.05713043 133.126594,0.374521739 C133.03623,1.58104348 132.662473,9.60495652 138.307018,12.4132174 C139.105442,12.8101739 140.000594,13.0923478 140.968715,13.2493043 L140.973806,13.2484348 C141.07817,13.261913 151.20017,14.4701739 155.897806,16.808 C156.067079,16.891913 156.13623,17.1010435 156.053503,17.2745217 C155.973321,17.4484348 155.767564,17.5206087 155.599988,17.4375652 C151.408048,15.3514783 142.698352,14.1723478 141.155806,13.9766957 C141.169382,14.1549565 141.177442,14.3658261 141.1872,14.6027826 C141.259745,16.4988696 141.409927,20.4423478 145.378291,22.4175652 C146.629806,23.0393043 148.180412,23.4284348 149.988533,23.5749565 C150.607503,23.5949565 156.257139,23.8675652 161.47617,26.4645217 L161.600048,26.5262609 C161.768897,26.6136522 161.838897,26.8232174 161.755745,26.9953913 C161.674291,27.1671304 161.47023,27.2388696 161.30223,27.1553913 L161.157139,27.0832174 C156.450594,24.7423478 151.387685,24.3458261 150.163745,24.2832174 C150.137867,24.7993043 150.367382,27.6536522 153.352776,29.1401739 C153.962412,29.4423478 154.664958,29.6997391 155.441745,29.9010435 C158.526412,30.6997391 161.517321,31.8171304 164.334715,33.2193043 C168.454958,35.2688696 171.720352,37.1314783 173.873382,39.664087 L174.613261,39.3036522 Z" id="Fill-13" fill="#EAF5FE"></path>
                    <path d="M174.031152,82.6231125 C179.65718,64.2359354 161.007214,45.5037555 183.175366,27.2177446 C198.121686,14.8957852 233.296296,24.4179478 228.566016,55.5723887 C224.93016,79.5345164 207.042069,75.1960418 196.458521,93 L174.031152,82.6231125 Z M233.005219,37.9998829 C232.243684,38.0087619 231.847106,37.5115364 232.054838,36.9454098 C232.512461,35.6899155 234.651259,35.6007701 235.855485,35.1099375 C238.052693,34.2174178 240.018893,33.9577951 242.445353,34.0053867 C243.056249,34.0181725 243.177462,34.7324013 242.734332,34.9813692 C240.935458,35.9868301 239.040844,36.8438337 236.929275,37.3776407 C235.74086,37.6788173 234.255998,37.98248 233.005219,37.9998829 Z M184.794861,18.5084988 C184.599257,19.1307449 183.926297,19.1418012 183.626184,18.6566526 C182.633692,17.0455347 182.206119,14.879835 181.675448,12.9808121 C181.165962,11.1547606 180.556908,9.18320869 181.47243,7.40845819 C181.862224,6.64867215 182.701482,7.06527194 182.958874,7.71228415 C183.311242,8.60297628 183.442939,9.57548471 183.660079,10.5298609 C183.854976,11.3926912 184.102129,12.2409273 184.278666,13.1121605 C184.631387,14.8395902 185.353777,16.7487848 184.794861,18.5084988 Z M193.734082,1.40074792 C194.123544,0.696559796 195.12405,0.998420241 195.344042,1.70306712 C195.907747,3.50459594 195.803917,5.79332202 195.940766,7.69531808 C196.088753,9.77393461 195.989697,11.6690493 195.294713,13.6160033 C195.108138,14.1431122 194.400424,14.1233858 194.237717,13.5825143 C193.603997,11.4768312 193.171969,9.44271387 193.076095,7.2053683 C192.992952,5.27676448 192.79484,3.09722197 193.734082,1.40074792 Z M222.803748,22.9693341 C222.532034,23.0632768 222.267199,22.9347009 222.149399,22.6749516 C221.342856,20.8675298 224.015712,18.6163696 225.063014,17.4769362 C226.076352,16.3738677 227.173096,15.4127954 228.350236,14.4932831 C229.225997,13.8144717 230.403997,13.0876067 231.526966,13.0014565 C231.874777,12.9754816 232.078993,13.3014669 231.971081,13.6161964 C231.572109,14.7777085 230.56221,15.7136716 229.768995,16.6119711 C228.956433,17.5319164 228.083681,18.3934181 227.225117,19.2683402 C226.434911,20.0718312 225.629658,20.8259699 224.775823,21.5601944 C224.20273,22.0519863 223.526455,22.7173774 222.803748,22.9693341 Z M230.281044,30.9425392 C229.914144,31.0946642 229.591346,30.9275205 229.343109,30.643134 C227.885967,28.9707282 231.480856,26.4509765 232.459254,25.7799794 C234.308301,24.5140476 236.617449,23.0238041 238.779747,23.0000649 C239.605839,22.9903754 240.454209,24.0678466 239.719501,24.8502729 C238.322827,26.3400318 236.36603,27.2116014 234.573814,28.2348115 C233.648609,28.7648265 232.72204,29.3006553 231.834116,29.8994657 C231.499041,30.1228084 231.188973,30.3427599 230.876176,30.5641647 C230.784337,30.6310222 230.697045,30.6983641 230.615209,30.7792713 C230.599751,30.7962279 229.902778,31.0999934 230.281044,30.9425392 Z M214.888433,15.9716414 C214.663355,16.0361973 214.367274,15.9959547 214.234548,15.7947417 C213.723134,15.0133646 214.147301,14.0550878 214.564043,13.3043118 C215.228601,12.0995491 215.948385,10.9241299 216.608303,9.71810962 C217.289105,8.47394268 217.91004,7.1924675 218.640962,5.9726138 C219.280925,4.9057658 219.938987,3.71315968 221.131665,3.07598524 C221.471834,2.89698952 221.837527,3.04706087 221.915492,3.3916381 C222.192082,4.59682003 221.739607,5.90763877 221.282026,7.03652744 C220.760404,8.34063908 220.164528,9.6397204 219.384878,10.837776 C218.643283,11.9788213 217.919322,13.1752002 216.972604,14.1888106 C216.397148,14.8016718 215.774356,15.7171909 214.888433,15.9716414 Z M204.743291,13.5572393 C204.772832,13.497587 204.810203,13.4799624 204.864302,13.5002984 C204.89242,13.5111443 204.922673,13.5215383 204.953993,13.5337399 C204.901318,13.6842266 204.846506,13.8351651 204.793119,13.9874594 C203.578374,13.3104954 204.096945,9.80320751 204.185569,8.51480679 C204.338613,6.33342825 204.651108,3.97761173 205.766908,2.22690518 C206.0221,1.82696319 206.441015,2.00094926 206.606516,2.39817978 C207.37067,4.23926869 206.829676,7.0325359 206.582314,8.97666071 C206.406491,10.3486651 206.312529,13.5649218 204.944028,13.9933343 C204.80344,14.035814 204.59167,13.8695104 204.693106,13.6580157 C204.709478,13.6232185 204.727274,13.5911327 204.743291,13.5572393 Z" id="Combined-Shape" fill="#FFD510"></path>
                    <path d="M179.211937,86.4836584 C179.417237,85.2421179 179.837653,83.9617109 180.102708,82.7935361 C180.784338,79.8073756 181.307618,76.7915194 182.026381,73.8140929 C183.624391,67.2063722 185.040149,60.5750695 187.383812,54.1826423 C189.008284,49.7514386 190.540991,45.3018935 193.912434,41.9266325 C195.734524,40.1020963 195.711049,43.5502863 195.655562,44.5695461 C195.562516,46.2054276 195.390508,47.7897783 195.082344,49.3942173 C194.726377,51.2493226 194.17322,53.0585742 193.644818,54.8752498 C193.231231,55.818087 192.946543,56.7858161 192.86502,57.7609691 C192.864593,57.7718867 192.862459,57.7793106 192.859045,57.7880446 C192.861179,57.788918 192.861606,57.7880446 192.864593,57.7893547 C192.855203,57.8740747 192.84624,57.9583579 192.843252,58.0426412 C192.794595,59.1981517 194.498883,59.2147463 194.745157,58.1762717 C195.002956,57.0683616 195.303863,55.9718057 195.606905,54.8774333 C197.028639,51.8563368 199.926739,48.7561973 201.932788,47.0810128 C204.375046,45.0411831 202.606308,51.2274875 202.365155,52.0738138 C202.169672,52.7694783 201.940471,53.480864 201.69633,54.1922497 C200.840558,55.5329213 200.167892,56.9666103 200.097893,58.3588126 C200.048809,59.3763256 201.512371,59.5575565 201.913581,58.742236 C202.176928,58.2116444 202.63021,57.2591999 203.127027,56.0836011 C203.282389,55.8766049 203.430922,55.6617481 203.550431,55.4263663 C204.302486,53.9228052 205.226976,52.6249303 206.252195,51.3139543 C207.154917,50.1619374 208.079834,49.0304455 209.093955,47.9810533 C210.51697,46.5119916 211.178966,47.5788518 210.646296,49.3483637 C210.155454,50.9733276 209.709855,52.5323497 208.994933,54.076524 C207.707648,56.8626755 206.048603,59.5601767 204.557297,62.24152 C201.446214,67.8308544 198.403422,73.4699727 195.405446,79.1256856 C193.289278,83.1276123 190.852142,86.9408842 188.56738,90.8497937 L179.211937,86.4836584 Z M190.838484,104.646047 C190.838484,104.646047 195.758852,103.023704 192.809107,100.278602 C192.809107,100.278602 198.40513,98.1811278 195.499346,94.0861838 L190.237523,91.6310515 C193.50909,85.7434505 197.069186,80.0034543 200.322827,74.1232772 C202.337412,70.4772616 204.287548,66.7888861 206.270548,63.1254026 C208.234342,59.5121396 210.528921,55.9517175 211.888766,52.0458649 C212.605395,49.990314 213.710429,47.3469636 212.368083,45.346437 C211.455118,43.9896074 209.697477,44.9686907 208.755915,45.6809498 C207.451556,46.6678938 206.358473,47.9972112 205.330693,49.3317691 C205.821108,46.7251016 205.61154,44.5289329 203.674636,44.1564271 C201.317315,43.6978912 198.40513,47.819474 197.233512,49.3317691 C197.133209,49.4592857 197.034614,49.5933529 196.929617,49.723053 C197.140038,48.7295586 197.310766,47.7238365 197.417044,46.701083 C197.653075,44.3961759 198.263426,41.4126356 196.526273,39.6077509 C193.860362,36.8351371 189.450042,44.3581829 188.619026,45.9399134 C184.746924,53.3297655 182.795082,62.0323403 180.999881,70.1414387 C180.095452,74.2302689 179.149621,78.3217193 178.22129,82.403999 C178.025807,83.2573124 177.639109,84.4106394 177.339909,85.6076365 L173.047391,83.6044896 C173.047391,83.6044896 167.85642,83.9551604 170.032343,89.7257256 C170.032343,89.7257256 165.243434,90.2222545 167.809897,94.2364089 C167.809897,94.2364089 162.959953,94.9163521 166.003599,98.9313799 L170.578671,101.291311 L172.256069,107.051832 L177.976296,110 L183.425066,107.671948 L187.430335,109.248875 C187.430335,109.248875 193.718231,109.74715 190.838484,104.646047 L190.838484,104.646047 Z" id="Fill-18" fill="#222222"></path>
                    <path d="M177.710719,56.2122429 C178.094941,53.9237757 177.870811,51.6056698 178.094941,49.2983415 C178.261895,47.5667227 178.697805,45.9487189 179.212389,44.2898496 C179.760821,42.5223051 180.296445,40.6627009 180.949166,38.9396144 C181.173296,38.3477385 180.619375,37.7581079 180.010108,38.1016474 C178.074815,39.201423 177.113344,40.6900943 176.421286,42.7697433 C175.856845,44.4699272 175.398522,46.1777452 175.181711,47.9542712 C174.845059,50.7322261 174.955294,53.6013425 175.688519,56.307446 C175.951071,57.2823797 177.541935,57.2073848 177.710719,56.2122429" id="Fill-34" fill="#FEF9DE"></path>
                    <path d="M184.28246,32.2291662 C184.260375,32.2234339 184.241755,32.2173998 184.224,32.2083488 C184.318835,32.2551125 184.41367,32.3012728 184.509804,32.3480366 C184.0798,32.1133129 183.49217,31.8831147 182.929224,32.0662474 C183.161764,32.0584032 183.398202,32.0514641 183.631608,32.0430164 C183.618617,32.0418096 183.605193,32.0403011 183.588304,32.0381892 C183.12409,31.9829778 182.665072,32.0647389 182.341162,32.3130392 C182.035439,32.5489697 181.911158,32.9019604 182.067916,33.205472 C182.072247,33.2142214 182.075711,33.2229707 182.080041,33.2329268 C182.069649,33.069103 182.057091,32.9049774 182.046265,32.7420586 C181.913323,33.1119446 182.136769,33.4990275 182.545555,33.7394835 C182.980755,33.9956281 183.545434,34.0604939 184.079367,33.9446405 C184.522795,33.8490012 184.867491,33.575358 184.970121,33.2621919 C185.093103,32.8808413 184.831116,32.3878612 184.28246,32.2291662" id="Fill-36" fill="#FEF9DE"></path>
                    <path d="M215.494509,70.8247984 C216.458993,71.4193826 217.518475,70.360201 218.108688,69.7387809 C219.024354,68.7789763 219.841065,67.7109891 220.684164,66.6933194 C221.412035,65.8136033 222.214673,64.8839891 222.68614,63.8512242 C223.030944,63.1040106 223.293505,61.559266 222.336058,61.0829278 C221.562447,60.6967416 220.659096,61.7576005 220.274269,62.2460987 C219.487465,63.2402869 218.831721,64.3170796 218.026445,65.3058168 C217.257233,66.2526228 216.519246,67.2208137 215.826559,68.2200337 C215.33706,68.9236388 214.433269,70.1723493 215.494509,70.8247984" id="Fill-38" fill="#FEF9DE"></path>
                    <path d="M5.39625694,101.246753 C5.0961238,101.246753 4.80114919,101.106992 4.61966243,100.847956 C4.06254028,100.052182 3.55465872,99.2386542 3.11055545,98.4301336 C2.86669727,97.9862668 3.03974279,97.4345062 3.49697688,97.1982325 C3.95280409,96.9615035 4.5216502,97.12949 4.76550838,97.5733568 C5.17866041,98.3249713 5.65137012,99.0825041 6.17097563,99.8245584 C6.46219857,100.240655 6.35105552,100.806528 5.92242787,101.089237 C5.7611063,101.195765 5.57774371,101.246753 5.39625694,101.246753 Z M83.9970773,70.4646646 C83.6069291,70.4646646 83.2527213,70.2000327 83.1561586,69.8050275 C83.0431412,69.3418137 83.3284993,68.8747147 83.7931263,68.7620411 C85.5529067,68.3355218 87.361618,68.0795239 89.1681642,68.0013862 C89.6427506,67.9741892 90.0502195,68.3506313 90.0710043,68.826796 C90.0917891,69.3033925 89.7211267,69.7061683 89.2430761,69.7268899 C87.5486813,69.7998471 85.8529874,70.0398721 84.2023272,70.4400577 C84.1334776,70.4564623 84.0646279,70.4646646 83.9970773,70.4646646 Z M99.5060079,71.4679347 C99.3934235,71.4679347 99.279107,71.445918 99.1691208,71.3997261 C97.6626552,70.7646959 96.0293158,70.3006187 94.3141361,70.0200139 C93.8421478,69.9427397 93.5225814,69.4985207 93.5996584,69.0279681 C93.6771684,68.5574154 94.1236087,68.2392528 94.594731,68.3156636 C96.4450119,68.6187168 98.2108545,69.1212152 99.843761,69.8089128 C100.284139,69.9949754 100.490255,70.5013591 100.304058,70.9408293 C100.164193,71.2702162 99.843761,71.4679347 99.5060079,71.4679347 Z M74.5720331,74.9729043 C74.3174192,74.9729043 74.0654034,74.8619575 73.8943617,74.6482662 C73.5960131,74.2757094 73.6575015,73.7321995 74.0311951,73.4347584 C75.4220451,72.3278804 76.9813387,71.3630316 78.6662071,70.566114 C79.0974919,70.3610567 79.614514,70.5453924 79.820197,70.9766604 C80.0250139,71.407065 79.8405488,71.9220827 79.408398,72.1267084 C77.8443412,72.8662099 76.398498,73.7606916 75.111572,74.7842516 C74.9517888,74.911603 74.7612614,74.9729043 74.5720331,74.9729043 Z M107.496034,78.0535132 C107.208944,78.0535132 106.928349,77.911484 106.76337,77.6520325 C105.878716,76.2593694 104.769327,75.0156426 103.464648,73.9545248 C103.094418,73.6527667 103.038992,73.1088251 103.341238,72.7397219 C103.643917,72.3706187 104.189085,72.3153611 104.559747,72.6166875 C106.008622,73.7952276 107.242286,75.1783934 108.226534,76.7277635 C108.482447,77.130971 108.362501,77.6641201 107.958063,77.9192546 C107.814735,78.0103433 107.654085,78.0535132 107.496034,78.0535132 Z M68.4859816,83.3673046 C68.3902849,83.3673046 68.2932891,83.3513317 68.1980254,83.3176591 C67.7472549,83.159657 67.5099617,82.666656 67.6688789,82.2168249 C68.2785665,80.491753 69.14027,78.8607916 70.2310394,77.3692692 C70.5125003,76.9841931 71.0546374,76.89958 71.4408884,77.1801848 C71.8275724,77.4612213 71.9124437,78.0012776 71.6305498,78.3867854 C70.6393743,79.7423224 69.8560468,81.223484 69.3026513,82.7901221 C69.1775095,83.1454109 68.8427875,83.3673046 68.4859816,83.3673046 Z M110.236165,88.0426121 C109.761578,88.0426121 109.374894,87.6614212 109.370564,87.187415 C109.354109,85.4273754 109.139333,83.7523807 108.732297,82.2081909 C108.61062,81.746704 108.886884,81.2748562 109.349779,81.1535486 C109.812241,81.0331044 110.285529,81.3080971 110.407639,81.7691524 C110.850616,83.451486 111.084445,85.2685099 111.102631,87.1710104 C111.106962,87.6480386 110.722876,88.0382951 110.244825,88.0426121 L110.236165,88.0426121 Z M67.7619775,93.7255066 C67.3471474,93.7255066 66.9808151,93.4276338 66.9089343,93.006295 C66.6733732,91.6179488 66.5538605,90.243417 66.5538605,88.9206892 C66.5534275,88.47388 66.5672841,88.0218905 66.5945641,87.5789666 C66.6235762,87.1028019 67.0349422,86.734562 67.5121268,86.7699614 C67.9893113,86.7988853 68.3526124,87.2085683 68.3231673,87.684733 C68.2984853,88.0922575 68.2854948,88.508416 68.2859278,88.9202575 C68.2859278,90.147148 68.3972132,91.4245473 68.6167527,92.7179196 C68.6968608,93.1880405 68.3790264,93.6335546 67.9074711,93.713419 C67.8585402,93.7216213 67.8100423,93.7255066 67.7619775,93.7255066 Z M108.511892,98.3585076 C108.424855,98.3585076 108.336087,98.3451249 108.248618,98.3174961 C107.793084,98.172445 107.541501,97.6867829 107.686562,97.2326348 C107.942908,96.4309685 108.178469,95.6038319 108.387183,94.7736734 C108.601526,93.9210666 108.783393,93.0736401 108.927155,92.2542741 C109.009861,91.7841532 109.458034,91.4711709 109.929589,91.5527621 C110.400711,91.6352168 110.715947,92.0824576 110.633241,92.5521469 C110.482118,93.4125243 110.291591,94.3009623 110.067288,95.1932855 C109.849914,96.0588434 109.604393,96.9213793 109.337222,97.7571499 C109.219441,98.1240946 108.878657,98.3585076 108.511892,98.3585076 Z M71.4218357,103.501778 C71.1256522,103.501778 70.8368299,103.350251 70.6753147,103.076985 C69.7343691,101.487899 68.9441134,99.8547786 68.3266314,98.2233856 C68.1573218,97.7774398 68.3833566,97.2792584 68.830663,97.1108955 C69.2797014,96.9421009 69.7781038,97.1678798 69.9469804,97.6138256 C70.529388,99.1524033 71.276342,100.695298 72.1670576,102.19934 C72.4099801,102.609886 72.2731467,103.13915 71.8613477,103.381765 C71.7232154,103.462925 71.5716595,103.501778 71.4218357,103.501778 Z M103.959586,107.77949 C103.792008,107.77949 103.622699,107.731139 103.473741,107.630122 C103.077964,107.362468 102.975339,106.825433 103.243809,106.43086 C104.193848,105.036902 105.05252,103.544947 105.796876,101.996872 C106.003425,101.5669 106.520447,101.385586 106.952165,101.591506 C107.38345,101.797427 107.565317,102.312877 107.358768,102.743281 C106.577606,104.369062 105.675199,105.936132 104.676662,107.401321 C104.509084,107.646958 104.236717,107.77949 103.959586,107.77949 Z M12.7645106,109.276624 C12.5744162,109.276624 12.3830228,109.214891 12.2232396,109.086676 C10.768303,107.923677 9.42898198,106.71276 8.2429489,105.487596 C7.910825,105.144826 7.92035137,104.598295 8.26459974,104.266749 C8.60798209,103.935636 9.1566144,103.945133 9.48917132,104.288334 C10.6245414,105.460831 11.9088693,106.622103 13.3070807,107.739773 C13.6799082,108.038078 13.7400975,108.581588 13.4408829,108.953713 C13.2698412,109.166109 13.0182584,109.276624 12.7645106,109.276624 Z M77.9638539,111.69112 C77.7451804,111.69112 77.5265069,111.609097 77.3576303,111.444188 C76.0455893,110.16204 74.8309771,108.830247 73.7480021,107.485934 C73.4483544,107.11424 73.5076777,106.570731 73.8805052,106.271994 C74.2537657,105.973258 74.7985009,106.032833 75.0981485,106.404526 C76.1386879,107.69574 77.3065343,108.976161 78.5700774,110.210822 C78.9117277,110.544526 78.9173569,111.091058 78.5826349,111.431669 C78.4128923,111.604349 78.1885896,111.69112 77.9638539,111.69112 Z M21.5677426,115.023842 C21.4287442,115.023842 21.2875807,114.990169 21.1568097,114.919802 C19.5529153,114.055971 18.0079113,113.143358 16.5646662,112.207001 C16.1636927,111.947118 16.0502422,111.412242 16.3113514,111.012488 C16.5720275,110.612735 17.1085354,110.499198 17.5095089,110.759944 C18.9133495,111.670399 20.4172169,112.558837 21.9799746,113.400651 C22.400867,113.626862 22.5576191,114.150945 22.3302853,114.570557 C22.1739662,114.859364 21.8756176,115.023842 21.5677426,115.023842 Z M96.8139423,115.42964 C96.5588954,115.42964 96.3060135,115.317829 96.1349719,115.103275 C95.8374893,114.729854 95.9002768,114.186345 96.2748363,113.890199 C97.6245498,112.821742 98.8937221,111.655721 100.046846,110.42365 C100.373341,110.075268 100.92154,110.056274 101.270984,110.381344 C101.620429,110.706845 101.639482,111.252945 101.31342,111.601759 C100.101406,112.896426 98.7690132,114.121158 97.3517492,115.242714 C97.192399,115.36877 97.0027376,115.42964 96.8139423,115.42964 Z M86.1582642,118.268497 C85.9924188,118.268497 85.8252743,118.221441 85.6771826,118.122582 C84.169851,117.117154 82.7196776,116.059058 81.3669331,114.978513 C80.9936726,114.680209 80.9334832,114.137131 81.2326979,113.765006 C81.5319125,113.392881 82.0766477,113.332011 82.4499082,113.631179 C83.7641142,114.681072 85.174017,115.709381 86.640645,116.687612 C87.0381544,116.952676 87.1446766,117.488847 86.8788042,117.885147 C86.7116597,118.133806 86.4375601,118.268497 86.1582642,118.268497 Z M31.1551681,119.36415 C31.0529762,119.36415 30.9494851,119.346019 30.8485922,119.308029 C29.1723841,118.675158 27.5182598,117.990914 25.9325522,117.275156 C25.4965043,117.078732 25.3033788,116.567168 25.5008344,116.132878 C25.6978571,115.698157 26.2114151,115.505187 26.646597,115.702474 C28.1998283,116.403122 29.8197443,117.072689 31.4621771,117.693041 C31.9090504,117.861836 32.1346522,118.360449 31.9649096,118.806394 C31.8341385,119.151754 31.5046127,119.36415 31.1551681,119.36415 Z M41.2007255,122.506924 C41.1305767,122.506924 41.059129,122.49829 40.9881142,122.48059 C39.2720685,122.048027 37.5521257,121.563229 35.8754845,121.039577 C35.4190848,120.896684 35.165337,120.412317 35.3082325,119.957306 C35.4511281,119.502294 35.9374059,119.250182 36.3933727,119.391348 C38.0392696,119.905934 39.7280352,120.381667 41.4124707,120.806459 C41.8762317,120.923018 42.1572596,121.392707 42.0399121,121.855058 C41.9407512,122.246177 41.5882755,122.506924 41.2007255,122.506924 Z M95.3191682,123.441554 C95.1940263,123.441554 95.0671524,123.414357 94.9467737,123.356941 C93.3268578,122.585493 91.73682,121.761379 90.2203951,120.907045 C89.8683524,120.709327 89.7090022,120.302666 89.8094621,119.930972 C89.2560666,120.198194 88.6935778,120.455487 88.1241606,120.702419 C87.6846485,120.891936 87.1754208,120.691627 86.9844603,120.254315 C86.7939329,119.817003 86.9952858,119.308461 87.4339318,119.118513 C89.0408572,118.422182 90.5884594,117.638215 92.0334365,116.787767 C92.4465346,116.546015 92.9765472,116.682864 93.2194696,117.092547 C93.462392,117.503525 93.3255587,118.032789 92.9137597,118.275404 C92.2815552,118.647097 91.6307309,119.006703 90.964751,119.352495 C91.0011244,119.366741 91.0370648,119.384009 91.0721392,119.403867 C92.5543558,120.238342 94.1093192,121.044326 95.6932947,121.798937 C96.1250125,122.004426 96.3077456,122.519875 96.1016296,122.95028 C95.9526718,123.26024 95.6426318,123.441554 95.3191682,123.441554 Z M77.7451804,123.915128 C77.3446398,123.915128 76.9848028,123.635819 76.8986325,123.229589 C76.7999046,122.762922 77.0995523,122.304889 77.5676435,122.206461 C79.2897514,121.844697 80.978084,121.408248 82.5850094,120.909204 C83.0418422,120.767606 83.527254,121.021446 83.6697166,121.476889 C83.8117461,121.9319 83.5566992,122.415835 83.1002994,122.557865 C81.441412,123.072882 79.7002513,123.523145 77.9248823,123.896565 C77.864693,123.909085 77.8045037,123.915128 77.7451804,123.915128 Z M51.5377031,124.511737 C51.4987316,124.511737 51.458894,124.509147 51.4190565,124.503535 C49.6761638,124.265237 47.9116202,123.97384 46.1739237,123.63625 C45.7045334,123.545162 45.3979575,123.091877 45.4897571,122.623915 C45.5806906,122.155952 46.0349253,121.850309 46.5051816,121.941398 C48.2108348,122.272511 49.9433351,122.55916 51.6541846,122.792709 C52.128338,122.857464 52.4595959,123.293049 52.3946434,123.765329 C52.3353201,124.198323 51.9637916,124.511737 51.5377031,124.511737 Z M67.3047117,125.235698 C66.8465799,125.235698 66.464226,124.876955 66.4404101,124.4159 C66.4161612,123.939735 66.7837925,123.533938 67.26141,123.509762 C69.0181593,123.420832 70.762351,123.268874 72.4446214,123.059068 C72.9157437,122.996472 73.3522247,123.334924 73.411548,123.808067 C73.4708713,124.28121 73.1344172,124.712909 72.6598308,124.772052 C70.9351248,124.987902 69.1484973,125.143314 67.3493124,125.234403 C67.3345899,125.235266 67.3194343,125.235698 67.3047117,125.235698 Z M62.0396601,125.323764 C62.0348969,125.323764 62.0301338,125.323764 62.0253706,125.323333 C60.2807458,125.295704 58.4919533,125.210659 56.70879,125.072084 C56.2316055,125.034526 55.8756656,124.619231 55.9129051,124.143929 C55.9501445,123.668196 56.3671397,123.315498 56.8434582,123.350034 C58.5915472,123.486451 60.3439662,123.569769 62.0530837,123.596966 C62.5315672,123.604736 62.9130551,123.997151 62.9052608,124.47418 C62.8974665,124.946027 62.5112155,125.323764 62.0396601,125.323764 Z M161.675965,126.050747 C161.353368,126.050747 161.043328,125.869865 160.89437,125.560336 C160.687821,125.130363 160.870121,124.614914 161.301406,124.408561 C162.869793,123.659131 164.399208,122.830267 165.84765,121.944419 C166.255551,121.694897 166.789028,121.822248 167.038879,122.22891 C167.28873,122.635139 167.16099,123.166993 166.753521,123.416084 C165.254849,124.333014 163.672173,125.190801 162.049659,125.965702 C161.92928,126.02355 161.80154,126.050747 161.675965,126.050747 Z M105.088461,127.364409 C104.997527,127.364409 104.904862,127.350163 104.813928,127.319512 C103.125595,126.757439 101.44549,126.142267 99.8203781,125.490401 C99.3765358,125.31254 99.1617595,124.80961 99.3401624,124.367118 C99.5185653,123.924626 100.023463,123.710071 100.466439,123.888363 C102.059941,124.526847 103.707137,125.130363 105.36256,125.681644 C105.816362,125.832738 106.06145,126.321854 105.909461,126.774275 C105.788649,127.135608 105.450463,127.364409 105.088461,127.364409 Z M151.800584,129.667958 C151.41823,129.667958 151.068352,129.413687 150.964428,129.028179 C150.840585,128.567556 151.114252,128.093981 151.576281,127.970515 C153.263315,127.518526 154.928264,126.994011 156.524797,126.411648 C156.974269,126.247602 157.471372,126.477698 157.635485,126.926234 C157.800032,127.373906 157.569234,127.869497 157.120195,128.033543 C155.476031,128.633174 153.76215,129.172799 152.025319,129.638171 C151.949975,129.658029 151.87463,129.667958 151.800584,129.667958 Z M115.255263,130.105702 C115.196372,130.105702 115.136616,130.099658 115.076427,130.087139 C113.349123,129.726238 111.609261,129.310511 109.905773,128.851614 C109.444177,128.726853 109.171376,128.252847 109.296085,127.792655 C109.421227,127.332031 109.897546,127.060061 110.357842,127.18439 C112.02972,127.635085 113.736673,128.043041 115.431934,128.397034 C115.900025,128.49503 116.200105,128.952632 116.101811,129.419299 C116.016073,129.826392 115.656236,130.105702 115.255263,130.105702 Z M141.448451,131.570459 C141.011537,131.570459 140.636111,131.241935 140.588479,130.79858 C140.537816,130.324574 140.882064,129.899349 141.357517,129.848409 C143.096946,129.66321 144.829446,129.413687 146.506953,129.10718 C146.98024,129.021704 147.428846,129.332096 147.514583,129.800922 C147.600754,130.270179 147.289847,130.719579 146.819158,130.805487 C145.099215,131.120196 143.323846,131.375762 141.541549,131.56571 C141.510372,131.568732 141.479195,131.570459 141.448451,131.570459 Z M125.671049,131.658957 C125.645068,131.658957 125.619087,131.658094 125.592673,131.655504 C123.844151,131.499228 122.06705,131.287264 120.311167,131.02479 C119.838313,130.953992 119.512251,130.514521 119.582833,130.042674 C119.653415,129.571258 120.093793,129.244893 120.567946,129.316987 C122.290487,129.573848 124.032947,129.782359 125.74726,129.935612 C126.223579,129.977919 126.575189,130.397962 126.53232,130.872832 C126.492049,131.321368 126.114026,131.658957 125.671049,131.658957 Z M133.222863,132 C132.454691,131.999568 131.674395,131.988776 130.904924,131.967191 C130.426873,131.953808 130.050149,131.557076 130.063572,131.080048 C130.076996,130.60302 130.474938,130.236075 130.952989,130.241256 C132.690685,130.289174 134.450899,130.281835 136.163913,130.218807 C136.632437,130.206288 137.043803,130.572801 137.061557,131.049829 C137.079311,131.525994 136.706483,131.926611 136.228433,131.944311 C135.237257,131.981437 134.226163,132 133.222863,132 Z M170.439792,120.363636 C170.209957,120.363636 169.982053,120.250947 169.82986,120.035775 C169.567577,119.66539 169.627837,119.130862 169.964671,118.842123 C170.563015,118.328857 171.15402,117.792628 171.71953,117.248745 C172.040913,116.940019 172.528782,116.976165 172.809606,117.329966 C173.090043,117.683766 173.056824,118.220846 172.735441,118.529996 C172.148298,119.094717 171.535662,119.650932 170.914528,120.184185 C170.77315,120.304953 170.605892,120.363636 170.439792,120.363636 Z" id="Combined-Shape" fill="#F8F9FD" opacity="0.200079269" transform="translate(88.000000, 100.000000) rotate(-4.000000) translate(-88.000000, -100.000000) "></path>
                </g>
            </g>
        </g>
    </g>
</svg>