<?xml version="1.0" encoding="UTF-8"?>
<svg width="48px" height="48px" viewBox="0 0 48 48" version="1.1" xmlns="http://www.w3.org/2000/svg" xmlns:xlink="http://www.w3.org/1999/xlink">
    <!-- Generator: Sketch 41 (35326) - http://www.bohemiancoding.com/sketch -->
    <title>Page 1</title>
    <desc>Created with Sketch.</desc>
    <defs></defs>
    <g id="Page-1" stroke="none" stroke-width="1" fill="none" fill-rule="evenodd">
        <g id="Home" transform="translate(-107.000000, -3354.000000)" fill="#58627C">
            <path d="M131,3354 C127.687484,3354 124.570328,3354.625 121.648436,3355.875 C118.72655,3357.125 116.1797,3358.83593 114.007814,3361.00781 C111.835927,3363.1797 110.125006,3365.72655 108.875,3368.64844 C107.624994,3371.57033 107,3374.68748 107,3378 C107,3381.31252 107.624994,3384.42967 108.875,3387.35156 C110.125006,3390.27345 111.835927,3392.8203 114.007814,3394.99219 C116.1797,3397.16407 118.72655,3398.87499 121.648436,3400.125 C124.570328,3401.37501 127.687484,3402 131,3402 C134.312516,3402 137.429672,3401.37501 140.351564,3400.125 C143.27345,3398.87499 145.8203,3397.16407 147.992186,3394.99219 C150.164072,3392.8203 151.874996,3390.27345 153.125,3387.35156 C154.375004,3384.42967 155,3381.31252 155,3378 C155,3374.68748 154.375004,3371.57033 153.125,3368.64844 C151.874996,3365.72655 150.164072,3363.1797 147.992186,3361.00781 C145.8203,3358.83593 143.27345,3357.125 140.351564,3355.875 C137.429672,3354.625 134.312516,3354 131,3354 Z M140.796872,3379.3125 L132.3125,3387.79687 C132.03125,3388.10938 131.679692,3388.26563 131.257814,3388.26563 C130.835936,3388.26563 130.484378,3388.10938 130.203128,3387.79687 C129.890624,3387.51562 129.734372,3387.16406 129.734372,3386.74219 C129.734372,3386.32031 129.890624,3385.96875 130.203128,3385.6875 L136.390628,3379.5 L120.5,3379.5 C120.093746,3379.5 119.742188,3379.35157 119.445314,3379.05469 C119.148434,3378.75781 119,3378.40625 119,3378 C119,3377.59375 119.148434,3377.24219 119.445314,3376.94531 C119.742188,3376.64843 120.093746,3376.5 120.5,3376.5 L136.390628,3376.5 L130.203128,3370.3125 C129.890624,3370.03125 129.734372,3369.67969 129.734372,3369.25781 C129.734372,3368.83594 129.890624,3368.48438 130.203128,3368.20313 C130.484378,3367.89062 130.835936,3367.73437 131.257814,3367.73437 C131.679692,3367.73437 132.03125,3367.89062 132.3125,3368.20313 L140.796872,3376.6875 C140.984378,3376.875 141.109376,3377.08594 141.171872,3377.32031 C141.234374,3377.55469 141.234374,3377.78125 141.171872,3378 C141.234374,3378.21875 141.234374,3378.44531 141.171872,3378.67969 C141.109376,3378.91406 140.984378,3379.125 140.796872,3379.3125 Z" id="Page-1" transform="translate(131.000000, 3378.000000) scale(-1, 1) translate(-131.000000, -3378.000000) "></path>
        </g>
    </g>
</svg>