<?xml version="1.0" encoding="UTF-8"?>
<svg width="91px" height="150px" viewBox="0 0 91 150" version="1.1" xmlns="http://www.w3.org/2000/svg" xmlns:xlink="http://www.w3.org/1999/xlink">
    <!-- Generator: Sketch 46.1 (44463) - http://www.bohemiancoding.com/sketch -->
    <title>hand</title>
    <desc>Created with Sketch.</desc>
    <defs></defs>
    <g id="Page-1" stroke="none" stroke-width="1" fill="none" fill-rule="evenodd">
        <g id="the-popup" transform="translate(-979.000000, -239.000000)">
            <g id="Group-2" transform="translate(370.000000, 105.000000)">
                <g id="hand" transform="translate(0.000000, 55.000000)">
                    <g transform="translate(661.928405, 155.585685) scale(-1, 1) rotate(7.000000) translate(-661.928405, -155.585685) translate(615.428405, 76.585685)">
                        <path d="M15.6868056,101.629796 C12.2008283,107.893991 9.0397254,113.357253 5.43126014,119.487723 L30.6109703,119.487723 C35.3862383,110.211535 38.8046362,103.594631 43.9434962,94.128469 C48.1228677,86.4293849 53.2159707,76.8157006 60.5142079,71.5268476 C65.3746543,68.1334912 69.7279023,64.342498 75.5696599,62.730017 C78.7578649,61.8494849 81.8746187,60.6958427 85.1163243,60.0148366 C86.9958799,59.6203837 91.0981685,59.5751012 91.8587902,57.3293728 C92.8341177,55.811702 88.7568194,53.6448642 87.4249395,53.4973424 C83.517998,53.4722247 81.3980422,54.3676152 77.4027546,53.9264647 C74.6492407,53.2157419 73.0220524,53.7134955 71.804213,50.0562271 C70.6757756,46.8153454 73.3634698,42.7218793 75.4932809,40.5161269 C77.9789405,37.4496535 84.425042,28.9506967 86.9867285,26.5100414 C88.5537288,25.0178419 93.6165619,20.1531585 92.0259791,17.7836109 C89.276337,13.6862533 77.0859755,26.9883377 75.2159233,28.8767589 C74.1395785,29.9638923 71.9661223,33.507247 70.2379166,32.802892 C67.0243692,31.4925301 73.1142703,20.9983137 74.7622253,17.7885636 C76.4013808,14.5954408 87.2397998,4.34497152 83.0276944,1.12177825 C80.1643639,-1.0694696 69.1960655,13.0385015 68.131336,16.0657065 C66.0356666,20.4411268 63.7977987,29.379819 61.8802295,28.6057715 C60.4248058,28.0185142 61.7785083,22.1756583 62.1410443,20.0997393 C62.8738598,15.9047414 68.7089297,6.12761568 68.811355,3.1555987 C68.8683752,1.40019479 66.7125178,-1.34823991 64.9987432,0.7658862 C62.87034,2.96951598 57.9398502,12.9327244 57.233081,15.6999089 C56.6723821,17.1284299 54.965647,26.0041511 53.1026342,26.3533215 C50.6247182,26.817467 53.272991,18.9535264 53.4183574,17.9594343 C53.7270409,15.8527373 58.8743484,6.06393719 56.2253716,4.92869108 C52.1378661,3.17682487 48.0355775,17.4829069 46.6530129,24.8908387 C45.337324,31.9386333 39.5891923,48.8088361 38.3051812,53.1117337 C34.7822463,64.9187884 24.3310017,86.0954265 15.6868056,101.629796" id="Fill-1" fill="#FFCE0B"></path>
                        <polygon id="Fill-3" fill="#FFFFFF" points="30.548734 67.8907517 54.9915089 82.3298624 50.7413082 89.6157923 26.4773932 75.3974565"></polygon>
                        <polygon id="Fill-5" fill="#A5BEF7" points="26.0883497 72.6431043 53.6336939 87.4803518 17.2124625 157.113018 0 119.487723"></polygon>
                        <path d="M28.4491462,84.1838876 C30.3244025,84.2200677 31.8718581,82.7285601 31.9080343,80.8545768 C31.9434722,78.9791167 30.4528649,77.4318621 28.5783469,77.3960512 C26.7045672,77.3613478 25.1560042,78.8510095 25.1201971,80.7257312 C25.0847592,82.5997145 26.5753665,84.1480766 28.4491462,84.1838876" id="Fill-7" fill="#FFFFFF"></path>
                        <path d="M23.0184231,93.6886052 C24.8932433,93.7244142 26.4413176,92.2344643 26.4767612,90.358737 C26.5125741,88.4848555 25.0217265,86.9365775 23.1472754,86.9007685 C21.2728244,86.8656979 19.7247501,88.3563861 19.6889373,90.2306367 C19.6534936,92.1052566 21.143972,93.652427 23.0184231,93.6886052" id="Fill-9" fill="#FFFFFF"></path>
                    </g>
                </g>
            </g>
        </g>
    </g>
</svg>