<?xml version="1.0" encoding="UTF-8"?>
<svg width="196px" height="30px" viewBox="0 0 196 30" version="1.1" xmlns="http://www.w3.org/2000/svg" xmlns:xlink="http://www.w3.org/1999/xlink">
    <!-- Generator: Sketch 46.1 (44463) - http://www.bohemiancoding.com/sketch -->
    <title>leaving-title</title>
    <desc>Created with Sketch.</desc>
    <defs></defs>
    <g id="Page-1" stroke="none" stroke-width="1" fill="none" fill-rule="evenodd">
        <g id="the-popup" transform="translate(-622.000000, -217.000000)" fill="#FFD510">
            <g id="Group-2" transform="translate(370.000000, 105.000000)">
                <g id="leaving-title" transform="translate(252.000000, 112.000000)">
                    <path d="M20.982,17.462 C20.982,17.9300023 20.6670032,18.1819998 20.037,18.218 C19.838999,18.3620007 19.6320011,18.434 19.416,18.434 L18.417,18.569 L17.931,18.569 L17.553,18.839 L16.932,18.866 L16.689,19.055 L15.366,19.109 L14.61,19.46 L14.475,19.46 C14.3489994,19.46 14.2590003,19.4689999 14.205,19.487 L14.07,19.622 C13.8899991,19.7120005 13.7190008,19.757 13.557,19.757 C13.4489995,19.757 13.3050009,19.7210004 13.125,19.649 L12.531,19.784 L11.91,19.811 L11.262,20 L9.669,20 L8.778,19.784 L8.049,19.838 L7.806,19.622 L7.293,19.595 C6.50099604,19.000997 5.95200153,18.3800032 5.646,17.732 C5.51999937,17.2999978 5.38500072,16.8680022 5.241,16.436 L5.025,15.923 L5.295,15.005 L5.133,13.898 L5.376,13.736 L5.43,12.71 L5.619,12.17 L5.754,11.36 L5.754,9.686 L5.997,9.254 L6.051,9.038 L5.997,8.066 L6.213,7.85 L5.97,7.661 L6.294,6.689 L6.375,6.662 L6.213,6.23 L6.807,5.987 C7.07700135,5.75299883 7.3019991,5.61800018 7.482,5.582 L8.184,5.69 L8.805,6.986 L8.427,7.283 C8.51700045,7.40900063 8.562,7.55299919 8.562,7.715 L8.265,8.525 L8.265,9.443 L7.968,10.28 L7.887,11.063 L7.482,12.683 L7.482,12.899 C7.482,13.097001 7.45500027,13.2679993 7.401,13.412 L7.347,13.79 L7.293,14.276 L7.347,15.113 L7.266,15.329 L7.482,16.517 L7.86,17.354 L7.86,17.435 L8.859,18.029 L10.317,18.164 L10.749,18.137 L11.775,17.975 L12.504,17.975 L12.693,17.84 L14.178,17.786 L14.502,17.597 L15.582,17.57 L16.068,17.408 L17.823,17.327 L18.552,17.138 C18.7320009,17.1560001 18.9479987,17.165 19.2,17.165 L19.47,16.949 C19.7040012,16.8589996 19.919999,16.814 20.118,16.814 C20.6940029,16.814 20.982,17.0299978 20.982,17.462 Z M29.292,17.786 C29.292,18.0020011 29.1300016,18.2719984 28.806,18.596 C28.7159995,18.8840014 28.5810009,19.1179991 28.401,19.298 L28.239,19.325 L27.942,19.838 L27.456,19.919 L26.943,20.243 L26.673,20.729 L26.376,20.675 C26.177999,20.7650005 26.0160006,20.8189999 25.89,20.837 L25.728,21.08 C25.6739997,21.0619999 25.5930005,21.053 25.485,21.053 C25.2509988,21.053 25.0260011,21.2149984 24.81,21.539 L24.432,21.215 C24.3599996,21.2330001 24.2520007,21.242 24.108,21.242 C23.8739988,21.242 23.6760008,21.2060004 23.514,21.134 L23.055,21.134 L22.839,20.999 C22.1549966,20.8909995 21.7230009,20.6300021 21.543,20.216 L21.543,20.135 L21.219,19.973 L21.057,19.514 L20.733,19.298 L20.733,18.893 L20.409,17.705 L20.463,16.733 L20.571,16.301 L20.571,15.734 L20.706,15.302 L20.679,15.113 L20.868,14.789 L20.814,14.843 C20.814,14.6809992 20.8589995,14.5100009 20.949,14.33 L20.949,14.195 L20.868,13.547 C20.868,13.2409985 21.0029986,12.9710012 21.273,12.737 C21.2910001,12.7009998 21.3,12.6470004 21.3,12.575 C21.3,12.5029996 21.2685003,12.3545011 21.2055,12.1295 C21.1424997,11.9044989 21.111,11.7470005 21.111,11.657 C21.111,11.4409989 21.1649994,11.2160012 21.273,10.982 C21.4170007,11.1980011 21.6239986,11.306 21.894,11.306 L21.975,11.306 C22.0110002,11.2339996 22.0919993,11.1530005 22.218,11.063 C22.3620007,10.6129978 22.5599987,10.2350015 22.812,9.929 L22.92,9.821 C22.92,9.74899964 22.9739994,9.54200171 23.082,9.2 L23.298,9.2 L23.352,9.065 L23.568,9.011 C23.6580004,8.86699928 23.7164998,8.78150014 23.7435,8.7545 C23.7705001,8.72749987 23.9639982,8.61500099 24.324,8.417 C24.3960003,8.29099937 24.5039993,8.17400054 24.648,8.066 C24.7200003,8.02999982 24.8099994,7.99400018 24.918,7.958 L25.026,7.796 C25.5120024,7.63399919 25.8179993,7.553 25.944,7.553 C26.0880007,7.553 26.2229993,7.58899964 26.349,7.661 L26.484,7.634 L26.673,7.742 C26.8890011,7.90400081 27.1049989,8.03899946 27.321,8.147 L27.78,8.498 L27.78,8.606 C28.194002,8.93000162 28.401,9.38899703 28.401,9.983 L28.32,10.253 L28.401,11.144 L28.158,11.306 L27.888,12.008 L27.375,12.575 L27.348,13.007 C26.7719971,13.4210021 26.2410024,13.7539987 25.755,14.006 C25.5929992,14.2580013 25.3410017,14.384 24.999,14.384 L24.918,14.384 L24.405,14.708 L23.973,14.708 L23.325,14.978 L22.839,14.735 L22.785,14.735 C22.7489998,14.8790007 22.7130002,15.0949986 22.677,15.383 L22.461,15.545 L22.434,15.869 L22.272,16.328 C22.3260002,16.7600022 22.353,17.0389994 22.353,17.165 L22.245,17.246 C22.245,17.4800012 22.2360001,17.6509995 22.218,17.759 C22.218,17.7770001 22.2090001,17.8039998 22.191,17.84 L22.191,17.921 C22.191,18.0650007 22.2629993,18.1819996 22.407,18.272 C22.4610002,18.4880011 22.5509993,18.6229997 22.677,18.677 L22.866,18.839 L23.46,19.001 L23.46,19.082 L23.676,19.136 L24.594,19.19 L25.134,19.109 L25.404,18.92 L25.566,18.866 L25.836,18.461 L25.971,18.434 L26.646,18.218 C26.7180003,18.0919994 26.8349992,17.9840005 26.997,17.894 L27.078,17.759 C27.4380018,17.6869996 27.6449997,17.4980015 27.699,17.192 C27.9510012,16.9399987 28.274998,16.814 28.671,16.814 L28.779,16.814 C29.1210017,17.210002 29.292,17.5339987 29.292,17.786 Z M26.619,10.01 C26.619,9.95599973 26.5920002,9.84800081 26.538,9.686 L26.403,9.659 L26.349,9.686 L26.241,9.686 C26.2049998,9.70400009 26.1690002,9.713 26.133,9.713 C26.1149999,9.713 26.0880002,9.70400009 26.052,9.686 L25.971,9.686 L25.701,9.875 L25.458,9.902 L25.323,9.956 L24.864,10.55 L24.567,10.766 L24.135,11.522 L23.892,11.684 C23.8379997,11.9900015 23.712001,12.2509989 23.514,12.467 L23.406,12.656 C23.604001,12.5299994 23.8289987,12.467 24.081,12.467 L24.27,12.386 L24.351,12.143 L24.729,12.17 L24.945,11.846 L25.107,11.846 L25.404,11.954 L25.539,11.549 L25.728,11.549 L25.728,11.252 L26.079,11.171 L26.16,11.09 L26.214,10.847 L26.565,10.334 C26.6010002,10.2439996 26.619,10.1360006 26.619,10.01 Z M41.112,9.065 L40.842,9.416 L41.058,10.064 L40.707,10.469 L40.572,11.036 L40.491,11.171 L40.545,11.306 C40.545,11.5580013 40.4820006,11.7469994 40.356,11.873 L40.302,11.954 L40.302,12.062 C40.3560002,12.1880006 40.383,12.3049995 40.383,12.413 C40.383,12.5030005 40.374,12.5659998 40.356,12.602 L40.383,12.71 L40.275,13.007 L40.356,13.331 L40.14,13.547 L40.221,13.925 L40.383,14.114 L40.14,14.33 L40.14,14.762 L39.951,15.194 L40.086,15.626 L39.924,15.842 L40.194,16.031 L39.816,16.652 L39.789,16.733 L40.059,16.787 L39.87,17.408 L39.87,17.516 C39.87,17.6420006 39.861,17.7409996 39.843,17.813 L39.87,17.894 L40.302,17.948 L40.653,18.488 L40.464,18.893 L40.761,18.866 C40.8690005,19.0820011 40.9319999,19.2709992 40.95,19.433 L40.545,19.838 C40.4189993,19.9640006 40.2390011,20.0899994 40.005,20.216 L39.546,20.459 L39.411,20.324 L39.141,20.486 L38.304,19.514 L38.304,19.055 C38.1959994,18.6949982 38.142,18.3620015 38.142,18.056 L38.142,17.894 L37.98,16.301 L38.196,15.167 L38.034,14.519 L37.575,15.275 L37.332,15.977 L37.116,16.085 L36.738,16.679 L36.063,17.3 L35.874,17.624 L35.28,18.137 L35.145,18.488 L34.281,19.028 L33.363,20.054 L32.85,20.162 L32.499,20.432 C32.0489977,20.4139999 31.7070011,20.2430016 31.473,19.919 C30.6629959,19.522998 30.2400001,18.9560037 30.204,18.218 L30.339,18.137 L30.312,17.975 L30.285,17.651 L30.123,17.3 L30.285,16.922 L30.339,16.355 L30.528,15.464 L30.528,15.356 C30.5099999,15.3199998 30.501,15.2840002 30.501,15.248 C30.501,15.1759996 30.5189998,15.0860005 30.555,14.978 C30.5369999,14.9419998 30.528,14.8700005 30.528,14.762 C30.528,14.6359994 30.5819994,14.4290014 30.69,14.141 L30.879,14.06 C30.7709994,13.9699996 30.717,13.8710005 30.717,13.763 C30.717,13.6909996 30.7259999,13.6370002 30.744,13.601 C30.7259999,13.5469997 30.717,13.4840004 30.717,13.412 C30.717,13.1959989 30.8249989,13.0340005 31.041,12.926 C31.0950002,12.7459991 31.1939992,12.5660009 31.338,12.386 L31.203,12.17 L31.527,11.765 L31.527,11.657 C31.527,11.3149983 31.6439988,11.0000014 31.878,10.712 L31.851,10.226 L31.959,10.118 L31.959,10.037 C31.9409999,10.0009998 31.932,9.97400009 31.932,9.956 C31.932,9.84799946 31.9679996,9.75800036 32.04,9.686 L32.04,9.524 C32.1120003,9.3439991 32.3009984,9.0740018 32.607,8.714 C32.9130015,8.3539982 33.1379992,8.03900135 33.282,7.769 L33.417,7.904 L33.714,7.769 L33.849,7.715 L34.74,7.31 L36.819,7.418 L36.819,7.607 L37.467,7.742 C37.881002,7.742 38.1509993,7.87699865 38.277,8.147 C38.277,8.09299973 38.2859999,8.03000036 38.304,7.958 L38.304,7.85 L38.871,8.363 L39.384,8.471 L40.356,8.228 L40.707,8.903 L41.112,9.065 Z M38.547,10.469 L38.439,10.28 L38.223,10.226 L37.386,9.551 L36.846,9.47 L36.414,9.47 L36.36,9.416 L36.144,9.497 L35.901,9.362 L35.199,9.362 L35.28,9.47 L34.659,9.686 L34.551,9.821 L34.47,9.848 C34.1459983,10.1180014 33.9210006,10.3429991 33.795,10.523 L33.606,11.171 L33.498,11.414 L33.768,11.792 L33.309,12.143 L33.363,12.251 C33.164999,12.5930017 33.066,12.9259984 33.066,13.25 L32.85,13.52 L32.85,14.006 L32.634,14.249 L32.58,14.492 L32.499,14.546 L32.499,14.924 L32.418,15.059 C32.418,15.2750011 32.4000001,15.4459994 32.364,15.572 L32.418,15.707 L32.175,16.22 L32.283,16.382 L32.094,16.652 L32.283,17.165 L31.986,17.543 L32.04,18.056 L32.04,18.137 L32.148,18.191 L32.283,18.164 C32.3730004,18.0739996 32.4629995,17.9930004 32.553,17.921 L32.499,17.705 L32.877,17.651 L32.958,17.462 L34.551,16.166 L34.713,16.112 L34.902,15.653 C35.0100005,15.6169998 35.162999,15.5450005 35.361,15.437 L35.523,15.005 L35.739,15.005 L35.658,14.546 L36.036,14.492 C36.0720001,14.4199996 36.1304995,14.3300005 36.2115,14.222 C36.2925004,14.1139995 36.3779995,14.0150005 36.468,13.925 L37.845,12.089 L38.061,11.684 L38.034,11.576 L38.223,11.279 L38.277,10.982 L38.52,10.766 L38.547,10.469 Z M56.3339999,7.472 L56.0639999,7.931 L56.1449999,8.444 L55.7399999,8.687 L55.6319999,9.254 L55.3889999,9.443 L55.3079999,10.037 L55.2269999,10.037 C55.1729997,10.2890013 55.0200012,10.4869993 54.7679999,10.631 L54.5249999,11.495 L54.2819999,11.873 C54.3,11.9810005 54.3089999,12.0979994 54.3089999,12.224 L53.8769999,12.602 L53.2559999,14.033 L52.7429999,14.87 L52.7429999,15.14 C52.7429999,15.3920013 52.5990014,15.6079991 52.3109999,15.788 L52.2569999,16.274 L52.0679999,16.382 L51.7439999,16.814 L51.6629999,17.111 L51.4739999,17.246 C51.4739999,17.3000003 51.4919997,17.4169991 51.5279999,17.597 L51.2309999,17.84 L50.7449999,18.137 L50.5829999,18.407 L50.0429999,18.974 C49.4849971,19.9460049 48.900003,20.432 48.2879999,20.432 C47.8019975,20.432 47.3610019,20.1800025 46.9649999,19.676 L47.0459999,19.865 L46.1009999,18.488 L46.0469999,18.164 L45.8849999,18.056 L45.8579999,17.408 L45.5609999,17.111 L45.5609999,16.436 L44.8589999,14.87 L44.9129999,14.6 L44.6969999,14.222 L44.6429999,13.925 L44.5079999,13.736 L44.3189999,13.25 L43.8329999,12.872 L43.6169999,11.981 L43.2389999,11.657 L43.0229999,11.306 C42.5729977,11.1619993 42.3479999,10.793003 42.3479999,10.199 C42.3479999,9.69499748 42.7349961,9.29000153 43.5089999,8.984 C44.4990049,9.65000333 45.083999,10.3159967 45.2639999,10.982 L45.3449999,11.603 C45.4170003,11.5669998 45.542999,11.5310002 45.7229999,11.495 L45.7229999,11.738 L46.1549999,12.062 L45.9929999,12.494 L46.0469999,12.818 L46.2899999,13.466 L46.4249999,13.601 L46.4519999,13.844 L46.6679999,13.952 L46.6679999,14.411 L46.9649999,15.464 L47.0189999,15.869 L47.4509999,16.733 L47.8019999,17.786 L48.0719999,18.056 L48.1259999,18.056 C48.1980003,18.056 48.2609997,17.9840007 48.3149999,17.84 L48.5309999,17.759 L48.4499999,17.543 C48.5040002,17.4349995 48.5669996,17.381 48.6389999,17.381 C48.7110003,17.381 48.7829996,17.4079997 48.8549999,17.462 C48.9810006,17.1019982 49.0709997,16.922 49.1249999,16.922 C49.143,16.922 49.1519999,16.9489997 49.1519999,17.003 C49.2240003,16.7869989 49.3949986,16.6070007 49.6649999,16.463 L50.0159999,15.95 L50.2319999,15.41 L50.5019999,15.194 L50.6639999,14.843 L50.7719999,14.762 L50.7179999,14.411 L51.0149999,14.276 L51.0689999,14.141 C51.0689999,14.0689996 51.1139995,13.9700006 51.2039999,13.844 L51.3929999,13.358 L51.5279999,13.52 L51.6359999,13.466 L51.6359999,13.385 C51.6359999,13.1509988 51.7349989,12.9530008 51.9329999,12.791 L51.9329999,12.737 L52.1219999,12.386 L52.2569999,11.792 L52.4459999,11.738 L52.7969999,10.901 L53.0399999,10.577 C53.0940002,10.3069987 53.2199989,10.1000007 53.4179999,9.956 L53.6609999,9.2 L53.8499999,8.957 L53.8499999,8.39 L53.9849999,8.39 C54.201001,8.24599928 54.3809992,8.02550149 54.5249999,7.7285 C54.6690006,7.43149852 54.7769996,7.25600027 54.8489999,7.202 L54.9839999,7.121 L55.7399999,6.662 L56.3339999,7.472 Z M61.0259999,1.748 C61.0259999,1.96400108 60.8820013,2.1619991 60.5939999,2.342 L60.5939999,2.396 C60.2519982,2.81000207 59.9550012,3.04399973 59.7029999,3.098 L59.2979999,3.584 L59.0279999,3.935 L58.4069999,4.097 L58.1369999,4.475 L57.7049999,4.691 L57.0029999,5.312 L56.5709999,4.907 L56.6519999,4.232 L56.9489999,3.746 C56.967,3.49399874 57.1109986,3.2780009 57.3809999,3.098 L57.3809999,2.99 L57.5429999,2.882 L57.5699999,2.477 L58.0019999,2.369 L58.0019999,2.126 L58.3259999,2.072 C58.3980003,1.7119982 58.5509987,1.45100081 58.7849999,1.289 L58.8659999,1.235 L59.0279999,1.073 L59.2439999,0.425 C60.4320058,0.71300144 61.0259999,1.15399703 61.0259999,1.748 Z M63.7799999,16.058 C63.7799999,16.4720021 63.7080006,16.7329995 63.5639999,16.841 L63.4289999,16.949 L63.2939999,17.327 L62.8619999,17.462 C62.7359993,17.7500014 62.5470012,17.9749992 62.2949999,18.137 L62.0519999,18.218 L61.7009999,18.596 L61.3769999,18.677 C61.2509993,19.0010016 60.9900019,19.1719999 60.5939999,19.19 C60.5579997,19.2440003 60.4770005,19.3519992 60.3509999,19.514 C60.0809986,19.6940009 59.8020013,19.8019998 59.5139999,19.838 L59.3789999,19.865 L59.1899999,20.108 L58.6499999,20.108 L58.2179999,20.432 L57.1109999,19.622 L56.5979999,18.569 L56.5709999,17.246 L56.4629999,16.922 L56.7869999,14.546 L56.8949999,14.438 C56.8409996,14.1679987 56.8139999,13.9070013 56.8139999,13.655 C56.8139999,13.4929992 56.8679994,13.1600025 56.9759999,12.656 L57.1109999,12.035 C57.0749997,11.9269995 57.0030004,11.8100006 56.8949999,11.684 L57.0569999,11.171 L57.1109999,10.55 L57.1649999,10.469 C57.0929995,10.3069992 57.048,10.127001 57.0299999,9.929 C57.048,9.89299982 57.0659998,9.84350032 57.0839999,9.7805 C57.102,9.71749969 57.1109999,9.66800018 57.1109999,9.632 C57.0569996,9.46999919 57.0299999,9.31700072 57.0299999,9.173 C57.0299999,8.74099784 57.2729975,8.54299982 57.7589999,8.579 L58.0829999,8.606 C58.299001,8.49799946 58.4339996,8.444 58.4879999,8.444 C58.8480017,8.444 59.0909993,8.64199802 59.2169999,9.038 L59.2169999,9.146 C59.2890003,9.36200108 59.3249999,9.56899901 59.3249999,9.767 C59.3249999,9.92900081 59.3070001,10.0459996 59.2709999,10.118 L59.0819999,11.468 L59.2709999,11.846 C59.2709999,12.1700016 59.163001,12.4579987 58.9469999,12.71 L59.0549999,13.034 L58.7039999,14.06 C58.6679997,14.5100023 58.6230002,14.8519988 58.5689999,15.086 L58.5689999,15.761 L58.4069999,16.139 L58.4339999,16.409 L58.3799999,17.03 L58.4339999,17.516 L58.8389999,17.84 L59.1629999,17.786 L59.2169999,17.705 L59.4329999,17.732 L59.7839999,17.624 L60.0809999,17.327 L60.1889999,17.165 L60.3779999,17.138 L60.4319999,17.003 L60.5129999,16.895 L60.6749999,17.003 L60.9449999,16.733 L61.1069999,16.76 L61.1609999,16.571 L61.2149999,16.571 L61.2959999,16.355 L61.5389999,16.247 L62.0519999,16.004 C62.466002,15.7159986 62.8709979,15.572 63.2669999,15.572 L63.3749999,15.572 C63.5730009,15.6980006 63.7079995,15.859999 63.7799999,16.058 Z M69.4665682,14.2240108 L69.4439999,14.303 L69.4439999,14.249 C69.4515694,14.2406195 69.4590921,14.2322898 69.4665682,14.2240108 L69.4665682,14.2240108 Z M69.4665682,14.2240108 L69.4979999,14.114 L69.8489999,13.709 L70.0919999,13.25 L70.0919999,12.98 L70.4969999,12.845 L70.5509999,12.494 L70.6589999,12.386 L70.6859999,12.251 L70.6859999,12.062 L71.0639999,11.684 L71.0639999,11.549 C71.0459998,11.4949997 71.0369999,11.4590001 71.0369999,11.441 C71.0369999,11.1169984 71.2169981,10.9370002 71.5769999,10.901 C71.7390007,10.5769984 71.9819983,10.3880003 72.3059999,10.334 L72.4679999,10.091 L72.5219999,10.037 C72.6840007,9.80299883 72.9269983,9.64100045 73.2509999,9.551 L73.4939999,9.254 L74.1419999,9.254 L74.4659999,9.632 L74.7629999,9.794 L74.7899999,9.875 L74.9789999,9.929 L75.0329999,10.496 L75.4919999,10.766 L75.3029999,11.36 L75.5999999,12.008 L75.5999999,12.764 L75.8159999,13.79 L75.8699999,14.762 L76.1129999,15.329 L76.2749999,16.031 C76.3830004,16.1390005 76.4639996,16.291999 76.5179999,16.49 L77.0039999,16.625 L77.0039999,17.165 L77.2739999,17.462 L77.2739999,17.543 L77.3819999,17.57 L77.4899999,17.732 L77.5979999,17.597 C77.5619997,17.597 77.6069993,17.6059999 77.7329999,17.624 C77.9310009,17.624 78.1379988,17.4440018 78.3539999,17.084 L78.6779999,17.003 L78.7589999,16.868 C78.8130002,16.7239993 78.9209991,16.6160004 79.0829999,16.544 L79.2719999,16.571 L79.3799999,16.463 L79.4069999,16.328 L79.4879999,16.22 C79.6680008,16.0939994 79.7849996,15.9050013 79.8389999,15.653 L80.1359999,15.329 L80.1899999,15.086 L80.3789999,14.654 L80.8919999,14.465 L81.6209999,14.708 L81.8639999,15.491 C81.8639999,15.5090001 81.8729998,15.5269999 81.8909999,15.545 L81.8909999,15.626 C81.8909999,15.7700007 81.7740011,15.9589988 81.5399999,16.193 L81.2429999,16.652 L81.1349999,17.192 L80.8919999,17.273 L80.8379999,17.435 C80.5499984,17.5250005 80.3430005,17.7499982 80.2169999,18.11 C80.0189989,18.3620013 79.8030011,18.5419995 79.5689999,18.65 C79.4789994,18.7400005 79.3980002,18.8029998 79.3259999,18.839 L79.1909999,19.082 L78.9479999,19.136 L78.2459999,19.514 L77.3279999,19.622 L77.0849999,19.568 L76.6799999,19.649 L76.5179999,19.46 C76.2659986,19.3339994 76.0860004,19.2080006 75.9779999,19.082 C75.7619988,19.0279997 75.6000004,18.8570014 75.4919999,18.569 C75.1859984,18.2089982 75.0329999,17.9210011 75.0329999,17.705 L75.0329999,17.624 L74.8439999,17.3 L74.7899999,17.246 L74.6279999,16.76 L74.3849999,16.247 L74.4389999,15.626 L74.1689999,15.275 L73.7639999,12.953 C73.7099996,12.6469985 73.6829999,12.3860011 73.6829999,12.17 L73.6289999,12.035 L73.4939999,11.846 L73.2509999,12.17 L72.2789999,13.196 L71.9279999,13.763 L71.7389999,14.141 L71.4419999,14.573 L71.2259999,14.789 L71.2529999,14.924 L70.8749999,15.761 L70.6589999,16.031 L70.3889999,16.085 L70.1459999,16.328 C70.1459999,16.6880018 69.9750016,16.9219995 69.6329999,17.03 L69.5789999,17.084 C69.4169991,17.480002 69.2370009,17.7229996 69.0389999,17.813 L68.7959999,18.191 C68.3999979,18.5510018 68.1390005,18.7759996 68.0129999,18.866 C67.9589996,19.0460009 67.8600006,19.1989994 67.7159999,19.325 C67.6799997,19.3790003 67.6170003,19.4509996 67.5269999,19.541 C67.4729996,19.8470015 67.2210021,20.0629994 66.7709999,20.189 L66.4739999,20.27 C66.1139981,20.2519999 65.8170011,20.045002 65.5829999,19.649 L65.1779999,18.974 L65.3129999,18.326 L65.2589999,17.975 L65.3129999,17.921 L65.3399999,17.57 L65.0429999,16.922 L65.2589999,16.598 L65.1509999,16.247 L65.3399999,15.869 L65.3939999,15.248 L65.2859999,15.14 L65.5019999,14.762 L65.4209999,14.573 L65.3939999,14.141 L65.5019999,13.331 C65.4659997,13.1509991 65.4479999,13.0340003 65.4479999,12.98 C65.4479999,12.9439998 65.4569998,12.9080002 65.4749999,12.872 L65.4749999,12.764 L65.3399999,12.548 L65.4209999,11.684 L65.3939999,11.387 L65.4749999,10.955 L65.3669999,10.226 L65.8529999,9.416 C66.4110027,9.50600045 66.7979988,9.62749924 67.0139999,9.7805 C67.230001,9.93350077 67.3379999,10.207998 67.3379999,10.604 L67.3379999,10.847 L67.5269999,11.171 L67.4459999,11.738 L67.5539999,12.818 L67.3649999,13.331 L67.4459999,13.898 L67.4459999,14.357 L67.2299999,14.654 L67.3919999,15.14 L67.2299999,15.437 L67.2029999,15.734 L67.3649999,16.031 L67.1489999,16.598 L67.0679999,16.841 L67.0679999,17.084 L67.2029999,17.354 L67.6619999,16.895 C67.6619999,16.6249987 67.751999,16.4450005 67.9319999,16.355 C67.95,16.1749991 68.0219993,16.0400005 68.1479999,15.95 L68.0669999,15.869 L68.4179999,15.545 L68.4989999,15.437 L68.4989999,15.194 L68.9309999,14.87 L69.0389999,14.6 L69.2819999,14.438 L69.7750401,13.8817495 C69.6829981,13.984117 69.5801742,14.0982041 69.4665682,14.2240108 L69.4665682,14.2240108 Z M95.1689999,16.652 L94.9529999,17.651 L95.0069999,17.975 L94.9529999,18.056 C95.0250002,18.2180008 95.0609999,18.3799992 95.0609999,18.542 C95.0609999,18.6500005 95.0340001,18.7579995 94.9799999,18.866 L94.9799999,18.92 C94.9799999,19.1360011 94.8990007,20.0179923 94.7369999,21.566 L94.6829999,22.079 L94.6829999,22.187 L94.6289999,22.295 L94.6019999,22.403 L94.6289999,22.565 L94.5479999,22.646 L94.4669999,22.808 L94.3589999,22.808 L94.3859999,22.943 L94.3319999,23.105 C94.3319999,23.2310006 94.2870003,23.3569994 94.1969999,23.483 L94.0619999,23.915 C94.0079996,24.113001 93.9180005,24.2929992 93.7919999,24.455 C93.6659992,24.6890012 93.4410015,25.003998 93.1169999,25.4 L92.6579999,25.751 L92.1449999,26.183 L91.7399999,26.372 L91.4159999,26.615 L91.1999999,26.669 C90.8399981,26.867001 90.4350021,26.9839998 89.9849999,27.02 L89.8229999,26.993 L89.5799999,27.101 L89.5799999,27.155 C89.2739983,27.2270004 89.0130009,27.263 88.7969999,27.263 L87.7439999,27.263 L87.0959999,27.128 L86.5289999,27.236 L86.2589999,26.993 L85.4489999,26.912 L84.9089999,26.426 L84.5039999,26.21 C83.7839963,25.9399987 83.3700004,25.4630034 83.2619999,24.779 L83.3159999,24.671 L83.2349999,24.239 C83.4510009,23.8969983 83.648999,23.7170001 83.8289999,23.699 C83.9730006,23.6089996 84.1169991,23.564 84.2609999,23.564 L84.7604999,23.645 C85.0935015,23.6990003 85.4399981,23.7349999 85.7999999,23.753 L85.7459999,24.158 L86.0699999,24.374 L86.0699999,24.698 L85.8539999,24.968 L87.0959999,25.346 L87.7169999,25.211 L87.7169999,25.4 L87.9059999,25.346 L87.9599999,25.346 C87.9779999,25.346 88.0949988,25.3639998 88.3109999,25.4 L88.3379999,25.508 L88.6079999,25.373 C88.8240009,25.2649995 89.2559966,25.211 89.9039999,25.211 C90.0120004,25.1389996 90.1019995,25.0670004 90.1739999,24.995 C90.1919999,24.995 90.2369995,25.0039999 90.3089999,25.022 L90.4709999,25.022 C90.5790004,25.022 90.6869993,24.9140011 90.7949999,24.698 C90.8129999,24.7520003 90.8489996,24.779 90.9029999,24.779 C90.939,24.779 90.9839996,24.7610002 91.0379999,24.725 C91.0920001,24.6889998 91.1279998,24.671 91.1459999,24.671 L91.1999999,24.671 L92.0639999,23.915 L92.4689999,23.294 L92.4959999,22.943 L92.7929999,22.565 L92.8199999,22.214 L92.9819999,21.89 L93.1169999,21.161 L93.3329999,20.486 C93.3149998,20.3779995 93.3059999,20.2160011 93.3059999,20 C93.3059999,19.603998 93.3599993,19.208002 93.4679999,18.812 L93.3599999,18.38 L93.3599999,17.057 L93.1439999,16.598 L93.1439999,15.842 L92.9279999,15.275 L92.9549999,14.411 L92.9279999,14.276 L92.7389999,14.33 L92.5769999,14.735 L92.1719999,15.086 L91.6859999,15.869 L90.9839999,16.355 L90.2279999,17.138 C89.7959977,17.5880023 89.2920027,17.9839983 88.7159999,18.326 L88.4459999,18.65 L88.0409999,18.893 L87.6629999,19.082 L87.3119999,19.433 L86.8799999,19.649 C86.7359991,19.7930007 86.5290012,19.8919997 86.2589999,19.946 C85.8629979,20.2160014 85.4130024,20.351 84.9089999,20.351 L84.6119999,20.351 C84.5219994,20.3690001 84.3960007,20.378 84.2339999,20.378 C84.0899991,20.378 83.9820002,20.3690001 83.9099999,20.351 L83.4239999,20.324 L82.7219999,19.649 L82.2089999,18.974 L81.9929999,18.407 L81.8039999,17.327 L81.9119999,16.544 L82.1819999,15.626 L82.1279999,15.329 L82.3709999,14.492 L82.6139999,14.006 C82.6860002,13.7719988 82.7219999,13.4930016 82.7219999,13.169 L83.3159999,12.062 C83.3700001,11.9179993 83.5049988,11.7650008 83.7209999,11.603 L83.9909999,11.144 L84.3149999,10.793 C84.3870002,10.5589988 84.5309988,10.3520009 84.7469999,10.172 C84.8910006,10.0999996 84.9944995,9.96500099 85.0574999,9.767 C85.1205002,9.56899901 85.4579968,9.38900081 86.0699999,9.227 L85.9349999,9.254 L86.0699999,9.2 C86.1240001,9.10999955 86.2499989,8.93000135 86.4479999,8.66 L86.7719999,8.714 L87.0149999,8.552 C87.3030013,8.29999874 87.6089982,8.174 87.9329999,8.174 L88.1219999,8.174 L88.8239999,7.904 L89.2289999,8.039 L89.7149999,8.039 L90.0119999,8.201 C90.1920008,8.21900009 90.3359993,8.29999928 90.4439999,8.444 L90.8219999,8.822 L90.9299999,8.876 L90.9839999,8.984 L91.2269999,9.362 L91.2539999,9.497 L91.1729999,9.929 L91.2269999,10.226 L90.8759999,10.766 L90.0929999,10.874 L89.6879999,10.226 L89.3099999,10.091 L89.1209999,9.902 L88.8509999,9.902 C88.7609994,9.93800018 88.5720013,10.0279993 88.2839999,10.172 L88.2569999,10.388 L87.5819999,10.388 C87.401999,10.6580014 87.2040009,10.8019999 86.9879999,10.82 C86.8799993,10.8920004 86.7720004,10.9549997 86.6639999,11.009 L86.4479999,11.522 L86.2589999,11.549 L86.2319999,11.792 L85.8539999,11.792 L85.5029999,12.359 L85.2059999,12.548 L85.0979999,12.926 L84.6929999,13.493 L84.6389999,14.033 L84.3149999,14.357 L84.0179999,15.518 L83.8019999,15.734 L83.8289999,16.031 L83.5049999,17.057 L83.5859999,17.381 L83.5589999,17.705 C83.6850005,17.8850009 83.7479999,18.073999 83.7479999,18.272 L83.9369999,18.326 L84.0179999,18.488 C84.3240014,18.488 84.5219994,18.5239996 84.6119999,18.596 C84.7740007,18.4699994 85.2149963,18.3350007 85.9349999,18.191 C86.0430004,17.9389987 86.1959989,17.7545006 86.3939999,17.6375 C86.5920008,17.5204994 86.9969968,17.3000016 87.6089999,16.976 L87.6899999,17.003 C87.6899999,16.8589993 87.7439993,16.7240006 87.8519999,16.598 C88.1220012,16.4899995 88.2839996,16.4180002 88.3379999,16.382 C88.4820006,16.2919996 88.5629998,16.1750007 88.5809999,16.031 L89.0129999,15.923 L89.2829999,15.68 L89.9579999,14.762 L90.1469999,14.87 C90.1649999,14.8159997 90.362998,14.5730022 90.7409999,14.141 L91.3889999,13.385 L91.4429999,13.034 C91.6590009,12.835999 91.9109984,12.2600048 92.1989999,11.306 L92.0639999,10.739 L91.8479999,10.361 L92.0099999,9.956 L91.7939999,9.659 L91.7399999,9.281 L91.6589999,9.011 L91.9289999,8.525 C92.2170013,8.38099928 92.4239992,8.309 92.5499999,8.309 C92.7120007,8.309 92.9279985,8.38999919 93.1979999,8.552 L93.3869999,8.903 L93.7379999,9.173 L93.7919999,9.767 C93.8460001,9.92900081 93.9089995,10.1719984 93.9809999,10.496 C94.0710003,10.6580008 94.1159999,10.8469989 94.1159999,11.063 L94.1159999,11.252 L94.1699999,11.414 L94.4669999,11.846 L94.3859999,12.332 L94.5479999,12.548 C94.6020001,12.6740006 94.6289999,12.8089993 94.6289999,12.953 C94.6289999,13.0790006 94.6199999,13.1779996 94.6019999,13.25 L94.8449999,13.331 L94.6559999,14.006 L94.7639999,14.519 C94.8540003,14.6990009 94.8989999,14.8609993 94.8989999,15.005 C94.8989999,15.1490007 94.8540003,15.3289989 94.7639999,15.545 L94.9259999,15.68 L95.1689999,16.652 Z M108.70375,20.2548499 C108.48567,20.2731185 108.191087,20.2961685 107.82,20.324 L107.739,20.297 L107.523,20.27 L107.172,20.459 C107.063999,20.3869996 106.866001,20.3060005 106.578,20.216 C106.181998,20.1799998 105.921,20.162 105.795,20.162 L105.579,20.162 C105.452999,20.1439999 105.318001,20.135 105.174,20.135 C105.029999,20.135 104.886001,20.1709996 104.742,20.243 L104.364,20 L104.148,19.946 C104.094,19.946 103.995001,19.9190003 103.851,19.865 C103.184996,19.7929996 102.852,19.2350052 102.852,18.191 L102.852,17.948 L103.365,17.57 L104.013,17.327 L104.499,17.57 L104.877,17.57 L104.877,17.651 C105.057001,17.7230004 105.200999,17.8669989 105.309,18.083 L105.525,18.11 L105.525,18.461 L105.876,18.542 L105.957,18.596 L109.413,18.38 L110.25,18.245 L110.331,18.245 L110.385,18.11 L110.763,18.056 L110.817,17.975 C111.195002,17.9209997 111.545998,17.8130008 111.87,17.651 L111.897,17.516 C111.879,17.4979999 111.843,17.4350005 111.789,17.327 L111.654,17.354 L111.303,17.084 L111.06,17.084 L110.925,16.895 L111.006,16.787 L110.709,16.841 L110.493,16.598 C110.439,16.6160001 110.349,16.625 110.223,16.625 C109.988999,16.625 109.755001,16.5800005 109.521,16.49 L109.278,16.49 L109.089,16.409 L108.711,16.544 L108.495,16.301 L108.414,16.301 L108.036,16.004 L107.199,15.68 L106.929,15.464 L105.903,15.275 L105.795,15.086 L105.039,14.6 L104.634,13.709 L104.31,13.25 L104.202,11.846 L104.31,11.684 C104.346,11.2699979 104.489999,10.9100015 104.742,10.604 C105.012001,10.4599993 105.147,10.2530014 105.147,9.983 L105.552,9.902 C105.624,9.75799928 105.767999,9.62300063 105.984,9.497 L106.389,9.173 L108.09,8.525 L108.387,8.444 L108.927,8.39 L109.818,8.147 L111.519,8.255 L111.573,8.39 C111.735001,8.44400027 111.914999,8.58799883 112.113,8.822 L112.113,8.957 L112.545,9.227 L112.356,9.875 L112.302,10.118 C112.193999,10.5680023 111.942002,10.793 111.546,10.793 C111.221998,10.793 110.979001,10.6400015 110.817,10.334 L110.817,10.253 L110.493,10.226 L110.115,10.334 L109.764,10.091 L109.575,10.226 C109.340999,10.226 109.125001,10.2979993 108.927,10.442 C108.656998,10.442 108.396001,10.5499989 108.144,10.766 L107.793,10.766 L107.55,10.955 L107.172,11.036 L107.118,11.09 L106.956,11.171 L106.713,11.414 L106.632,11.441 L106.389,11.819 L106.092,11.981 C106.019999,12.2150012 105.975,12.4129992 105.957,12.575 C105.975,12.8270013 106.0065,12.9934996 106.0515,13.0745 C106.0965,13.1555004 106.217999,13.2409996 106.416,13.331 L106.416,13.466 L106.767,13.655 C107.055001,13.7630005 107.270999,13.8799994 107.415,14.006 L107.955,14.006 L108.306,14.303 L108.927,14.384 L109.17,14.546 L110.223,14.843 L110.358,15.14 L110.466,14.951 C110.700001,14.951 111.014998,15.0589989 111.411,15.275 L111.897,15.356 L111.951,15.545 L112.383,15.545 L113.139,15.977 C113.229,16.2110012 113.426998,16.426999 113.733,16.625 L114.03,16.814 L113.949,17.138 C114.075,17.3180009 114.138,17.506999 114.138,17.705 L114.138,17.786 L113.814,18.164 L113.517,18.866 L113.301,19.028 L113.112,19.406 L112.572,19.46 L112.221,19.811 L111.681,19.811 L111.357,20.081 L111.06,20 L110.709,20.081 L110.709,20.297 L109.71,20.216 L109.278,20.243 L108.954,20.405 L108.70375,20.2548499 L108.70375,20.2548499 Z M125.202,13.682 L125.04,14.168 C125.04,14.6360023 125.013,15.0049987 124.959,15.275 L124.797,15.545 L124.797,15.842 L124.662,16.031 L124.581,16.409 L124.284,16.706 L124.095,17.381 L123.879,17.462 L123.771,17.759 L123.447,17.948 L123.231,18.407 L122.907,18.569 L122.88,18.893 L122.367,19.082 C122.132999,19.4060016 121.845001,19.6129995 121.503,19.703 L121.395,19.73 C121.142999,20.1080019 120.810002,20.297 120.396,20.297 C120.215999,20.4050005 120.009001,20.459 119.775,20.459 L119.505,20.648 L119.235,20.729 L118.884,20.999 L118.533,20.972 L118.155,21.08 L117.696,20.891 L116.535,20.81 L116.13,20.189 L115.536,19.568 L115.671,19.136 L115.266,18.218 L115.455,17.867 L115.32,17.219 L115.455,16.814 C115.419,16.5619987 115.401,16.3820005 115.401,16.274 C115.401,15.9319983 115.490999,15.6800008 115.671,15.518 C115.689,15.3379991 115.805999,15.0410021 116.022,14.627 L116.157,14.627 L116.103,14.438 L116.184,14.06 L116.184,13.655 C116.328001,13.4929992 116.409,13.3850003 116.427,13.331 L116.346,12.953 L116.346,12.845 C116.472,12.5929987 116.535,12.3320014 116.535,12.062 L117.102,11.279 L117.1695,11.225 C117.2145,11.1889998 117.255,11.1530002 117.291,11.117 L117.264,11.009 L117.372,11.009 L117.777,10.55 L117.804,9.929 L118.479,9.686 C118.731001,9.52399919 118.892999,9.25400189 118.965,8.876 L119.316,8.876 C119.514001,8.76799946 119.693999,8.714 119.856,8.714 C120.018001,8.714 120.170999,8.74999964 120.315,8.822 L120.612,8.849 L121.314,8.579 L121.692,8.93 L121.989,9.119 L122.205,9.119 L122.61,9.335 L122.826,9.335 C123.060001,9.55100108 123.329998,9.84799811 123.636,10.226 L123.69,10.361 L123.879,10.469 L124.446,11.198 L124.959,12.467 L124.959,12.737 L125.202,13.682 Z M123.42,14.33 L123.393,14.195 C123.266999,14.0689994 123.195,13.9340007 123.177,13.79 L123.258,13.655 L123.015,13.142 L123.069,12.629 L122.961,12.494 C122.726999,12.3139991 122.601,12.1700005 122.583,12.062 C122.420999,11.9899996 122.34,11.8100014 122.34,11.522 L122.178,11.495 L121.854,10.955 L121.611,10.766 L121.044,10.55 L120.828,10.496 C120.719999,10.496 120.648,10.4600004 120.612,10.388 L120.072,10.982 L119.721,11.738 L119.154,12.035 L119.073,12.332 L118.803,12.467 L118.695,13.169 L118.371,13.331 C118.298999,13.5830013 118.263,13.8169989 118.263,14.033 L117.831,14.438 L117.966,14.519 C117.966,14.7350011 117.885001,14.9239992 117.723,15.086 C117.669,15.2480008 117.597,15.427999 117.507,15.626 L117.507,15.842 L117.426,15.95 L117.453,16.274 L117.156,17.003 L117.21,17.138 L117.21,17.894 L117.102,18.272 L117.129,18.65 L117.372,19.001 L117.75,19.136 L117.885,19.19 L118.101,19.082 L118.803,19.136 L118.911,18.866 L119.019,18.866 C119.127,18.866 119.19,18.8929997 119.208,18.947 L119.451,18.866 L119.667,18.947 L120.018,18.704 L120.072,18.623 L120.315,18.569 C120.441,18.370999 120.737997,18.173001 121.206,17.975 L121.26,17.84 L121.8,17.462 L122.097,17.03 L122.529,16.814 L122.556,16.679 L122.691,16.382 L122.691,16.031 L123.015,15.761 L123.123,15.572 L123.258,15.41 C123.185999,15.1939989 123.15,15.0410005 123.15,14.951 C123.15,14.7889992 123.203999,14.6180009 123.312,14.438 L123.42,14.33 Z M137.57575,20.2548499 C137.35767,20.2731185 137.063087,20.2961685 136.692,20.324 L136.611,20.297 L136.395,20.27 L136.044,20.459 C135.935999,20.3869996 135.738001,20.3060005 135.45,20.216 C135.053998,20.1799998 134.793,20.162 134.667,20.162 L134.451,20.162 C134.324999,20.1439999 134.19,20.135 134.046,20.135 C133.901999,20.135 133.758,20.1709996 133.614,20.243 L133.236,20 L133.02,19.946 C132.965999,19.946 132.867,19.9190003 132.723,19.865 C132.056996,19.7929996 131.724,19.2350052 131.724,18.191 L131.724,17.948 L132.237,17.57 L132.885,17.327 L133.371,17.57 L133.749,17.57 L133.749,17.651 C133.929001,17.7230004 134.072999,17.8669989 134.181,18.083 L134.397,18.11 L134.397,18.461 L134.748,18.542 L134.829,18.596 L138.285,18.38 L139.122,18.245 L139.203,18.245 L139.257,18.11 L139.635,18.056 L139.689,17.975 C140.067002,17.9209997 140.417998,17.8130008 140.742,17.651 L140.769,17.516 C140.751,17.4979999 140.715,17.4350005 140.661,17.327 L140.526,17.354 L140.175,17.084 L139.932,17.084 L139.797,16.895 L139.878,16.787 L139.581,16.841 L139.365,16.598 C139.310999,16.6160001 139.221,16.625 139.095,16.625 C138.860999,16.625 138.627001,16.5800005 138.393,16.49 L138.15,16.49 L137.961,16.409 L137.583,16.544 L137.367,16.301 L137.286,16.301 L136.908,16.004 L136.071,15.68 L135.801,15.464 L134.775,15.275 L134.667,15.086 L133.911,14.6 L133.506,13.709 L133.182,13.25 L133.074,11.846 L133.182,11.684 C133.218,11.2699979 133.361998,10.9100015 133.614,10.604 C133.884001,10.4599993 134.019,10.2530014 134.019,9.983 L134.424,9.902 C134.496,9.75799928 134.639999,9.62300063 134.856,9.497 L135.261,9.173 L136.962,8.525 L137.259,8.444 L137.799,8.39 L138.69,8.147 L140.391,8.255 L140.445,8.39 C140.607001,8.44400027 140.786999,8.58799883 140.985,8.822 L140.985,8.957 L141.417,9.227 L141.228,9.875 L141.174,10.118 C141.065999,10.5680023 140.814002,10.793 140.418,10.793 C140.093998,10.793 139.851001,10.6400015 139.689,10.334 L139.689,10.253 L139.365,10.226 L138.987,10.334 L138.636,10.091 L138.447,10.226 C138.212999,10.226 137.997001,10.2979993 137.799,10.442 C137.528998,10.442 137.268001,10.5499989 137.016,10.766 L136.665,10.766 L136.422,10.955 L136.044,11.036 L135.99,11.09 L135.828,11.171 L135.585,11.414 L135.504,11.441 L135.261,11.819 L134.964,11.981 C134.891999,12.2150012 134.847,12.4129992 134.829,12.575 C134.847,12.8270013 134.8785,12.9934996 134.9235,13.0745 C134.9685,13.1555004 135.089999,13.2409996 135.288,13.331 L135.288,13.466 L135.639,13.655 C135.927001,13.7630005 136.142999,13.8799994 136.287,14.006 L136.827,14.006 L137.178,14.303 L137.799,14.384 L138.042,14.546 L139.095,14.843 L139.23,15.14 L139.338,14.951 C139.572001,14.951 139.886998,15.0589989 140.283,15.275 L140.769,15.356 L140.823,15.545 L141.255,15.545 L142.011,15.977 C142.101,16.2110012 142.298998,16.426999 142.605,16.625 L142.902,16.814 L142.821,17.138 C142.947,17.3180009 143.01,17.506999 143.01,17.705 L143.01,17.786 L142.686,18.164 L142.389,18.866 L142.173,19.028 L141.984,19.406 L141.444,19.46 L141.093,19.811 L140.553,19.811 L140.229,20.081 L139.932,20 L139.581,20.081 L139.581,20.297 L138.582,20.216 L138.15,20.243 L137.826,20.405 L137.57575,20.2548499 L137.57575,20.2548499 Z M154.074,13.682 L153.912,14.168 C153.912,14.6360023 153.885,15.0049987 153.831,15.275 L153.669,15.545 L153.669,15.842 L153.534,16.031 L153.453,16.409 L153.156,16.706 L152.967,17.381 L152.751,17.462 L152.643,17.759 L152.319,17.948 L152.103,18.407 L151.779,18.569 L151.752,18.893 L151.239,19.082 C151.004999,19.4060016 150.717001,19.6129995 150.375,19.703 L150.267,19.73 C150.014998,20.1080019 149.682002,20.297 149.268,20.297 C149.087999,20.4050005 148.881001,20.459 148.647,20.459 L148.377,20.648 L148.107,20.729 L147.756,20.999 L147.405,20.972 L147.027,21.08 L146.568,20.891 L145.407,20.81 L145.002,20.189 L144.408,19.568 L144.543,19.136 L144.138,18.218 L144.327,17.867 L144.192,17.219 L144.327,16.814 C144.291,16.5619987 144.273,16.3820005 144.273,16.274 C144.273,15.9319983 144.362999,15.6800008 144.543,15.518 C144.561,15.3379991 144.677999,15.0410021 144.894,14.627 L145.029,14.627 L144.975,14.438 L145.056,14.06 L145.056,13.655 C145.2,13.4929992 145.281,13.3850003 145.299,13.331 L145.218,12.953 L145.218,12.845 C145.344,12.5929987 145.407,12.3320014 145.407,12.062 L145.974,11.279 L146.0415,11.225 C146.0865,11.1889998 146.127,11.1530002 146.163,11.117 L146.136,11.009 L146.244,11.009 L146.649,10.55 L146.676,9.929 L147.351,9.686 C147.603001,9.52399919 147.764999,9.25400189 147.837,8.876 L148.188,8.876 C148.386001,8.76799946 148.565999,8.714 148.728,8.714 C148.890001,8.714 149.042999,8.74999964 149.187,8.822 L149.484,8.849 L150.186,8.579 L150.564,8.93 L150.861,9.119 L151.077,9.119 L151.482,9.335 L151.698,9.335 C151.932001,9.55100108 152.201998,9.84799811 152.508,10.226 L152.562,10.361 L152.751,10.469 L153.318,11.198 L153.831,12.467 L153.831,12.737 L154.074,13.682 Z M152.292,14.33 L152.265,14.195 C152.138999,14.0689994 152.067,13.9340007 152.049,13.79 L152.13,13.655 L151.887,13.142 L151.941,12.629 L151.833,12.494 C151.598999,12.3139991 151.473,12.1700005 151.455,12.062 C151.292999,11.9899996 151.212,11.8100014 151.212,11.522 L151.05,11.495 L150.726,10.955 L150.483,10.766 L149.916,10.55 L149.7,10.496 C149.591999,10.496 149.52,10.4600004 149.484,10.388 L148.944,10.982 L148.593,11.738 L148.026,12.035 L147.945,12.332 L147.675,12.467 L147.567,13.169 L147.243,13.331 C147.170999,13.5830013 147.135,13.8169989 147.135,14.033 L146.703,14.438 L146.838,14.519 C146.838,14.7350011 146.757001,14.9239992 146.595,15.086 C146.540999,15.2480008 146.469,15.427999 146.379,15.626 L146.379,15.842 L146.298,15.95 L146.325,16.274 L146.028,17.003 L146.082,17.138 L146.082,17.894 L145.974,18.272 L146.001,18.65 L146.244,19.001 L146.622,19.136 L146.757,19.19 L146.973,19.082 L147.675,19.136 L147.783,18.866 L147.891,18.866 C147.999,18.866 148.062,18.8929997 148.08,18.947 L148.323,18.866 L148.539,18.947 L148.89,18.704 L148.944,18.623 L149.187,18.569 C149.313,18.370999 149.609997,18.173001 150.078,17.975 L150.132,17.84 L150.672,17.462 L150.969,17.03 L151.401,16.814 L151.428,16.679 L151.563,16.382 L151.563,16.031 L151.887,15.761 L151.995,15.572 L152.13,15.41 C152.057999,15.1939989 152.022,15.0410005 152.022,14.951 C152.022,14.7889992 152.075999,14.6180009 152.184,14.438 L152.292,14.33 Z M165.003,13.682 L164.841,14.168 C164.841,14.6360023 164.814,15.0049987 164.76,15.275 L164.598,15.545 L164.598,15.842 L164.463,16.031 L164.382,16.409 L164.085,16.706 L163.896,17.381 L163.68,17.462 L163.572,17.759 L163.248,17.948 L163.032,18.407 L162.708,18.569 L162.681,18.893 L162.168,19.082 C161.933999,19.4060016 161.646001,19.6129995 161.304,19.703 L161.196,19.73 C160.943998,20.1080019 160.611002,20.297 160.197,20.297 C160.016999,20.4050005 159.810001,20.459 159.576,20.459 L159.306,20.648 L159.036,20.729 L158.685,20.999 L158.334,20.972 L157.956,21.08 L157.497,20.891 L156.336,20.81 L155.931,20.189 L155.337,19.568 L155.472,19.136 L155.067,18.218 L155.256,17.867 L155.121,17.219 L155.256,16.814 C155.22,16.5619987 155.202,16.3820005 155.202,16.274 C155.202,15.9319983 155.291999,15.6800008 155.472,15.518 C155.49,15.3379991 155.606999,15.0410021 155.823,14.627 L155.958,14.627 L155.904,14.438 L155.985,14.06 L155.985,13.655 C156.129,13.4929992 156.21,13.3850003 156.228,13.331 L156.147,12.953 L156.147,12.845 C156.273,12.5929987 156.336,12.3320014 156.336,12.062 L156.903,11.279 L156.9705,11.225 C157.0155,11.1889998 157.056,11.1530002 157.092,11.117 L157.065,11.009 L157.173,11.009 L157.578,10.55 L157.605,9.929 L158.28,9.686 C158.532001,9.52399919 158.693999,9.25400189 158.766,8.876 L159.117,8.876 C159.315001,8.76799946 159.494999,8.714 159.657,8.714 C159.819001,8.714 159.971999,8.74999964 160.116,8.822 L160.413,8.849 L161.115,8.579 L161.493,8.93 L161.79,9.119 L162.006,9.119 L162.411,9.335 L162.627,9.335 C162.861001,9.55100108 163.130998,9.84799811 163.437,10.226 L163.491,10.361 L163.68,10.469 L164.247,11.198 L164.76,12.467 L164.76,12.737 L165.003,13.682 Z M163.221,14.33 L163.194,14.195 C163.067999,14.0689994 162.996,13.9340007 162.978,13.79 L163.059,13.655 L162.816,13.142 L162.87,12.629 L162.762,12.494 C162.527999,12.3139991 162.402,12.1700005 162.384,12.062 C162.221999,11.9899996 162.141,11.8100014 162.141,11.522 L161.979,11.495 L161.655,10.955 L161.412,10.766 L160.845,10.55 L160.629,10.496 C160.520999,10.496 160.449,10.4600004 160.413,10.388 L159.873,10.982 L159.522,11.738 L158.955,12.035 L158.874,12.332 L158.604,12.467 L158.496,13.169 L158.172,13.331 C158.099999,13.5830013 158.064,13.8169989 158.064,14.033 L157.632,14.438 L157.767,14.519 C157.767,14.7350011 157.686001,14.9239992 157.524,15.086 C157.469999,15.2480008 157.398,15.427999 157.308,15.626 L157.308,15.842 L157.227,15.95 L157.254,16.274 L156.957,17.003 L157.011,17.138 L157.011,17.894 L156.903,18.272 L156.93,18.65 L157.173,19.001 L157.551,19.136 L157.686,19.19 L157.902,19.082 L158.604,19.136 L158.712,18.866 L158.82,18.866 C158.928,18.866 158.991,18.8929997 159.009,18.947 L159.252,18.866 L159.468,18.947 L159.819,18.704 L159.873,18.623 L160.116,18.569 C160.242,18.370999 160.538997,18.173001 161.007,17.975 L161.061,17.84 L161.601,17.462 L161.898,17.03 L162.33,16.814 L162.357,16.679 L162.492,16.382 L162.492,16.031 L162.816,15.761 L162.924,15.572 L163.059,15.41 C162.986999,15.1939989 162.951,15.0410005 162.951,14.951 C162.951,14.7889992 163.004999,14.6180009 163.113,14.438 L163.221,14.33 Z M171.045,14.438 L171.538038,13.881752 C171.445998,13.984117 171.343174,14.0982041 171.229568,14.2240108 C171.222092,14.2322898 171.214569,14.2406195 171.207,14.249 L171.207,14.303 L171.261,14.114 L171.612,13.709 L171.855,13.25 L171.855,12.98 L172.26,12.845 L172.314,12.494 L172.422,12.386 L172.449,12.251 L172.449,12.062 L172.827,11.684 L172.827,11.549 C172.809,11.4949997 172.8,11.4590001 172.8,11.441 C172.8,11.1169984 172.979998,10.9370002 173.34,10.901 C173.502,10.5769984 173.744998,10.3880003 174.069,10.334 L174.231,10.091 L174.285,10.037 C174.447,9.80299883 174.689998,9.64100045 175.014,9.551 L175.257,9.254 L175.905,9.254 L176.229,9.632 L176.526,9.794 L176.553,9.875 L176.742,9.929 L176.796,10.496 L177.255,10.766 L177.066,11.36 L177.363,12.008 L177.363,12.764 L177.579,13.79 L177.633,14.762 L177.876,15.329 L178.038,16.031 C178.146,16.1390005 178.226999,16.291999 178.281,16.49 L178.767,16.625 L178.767,17.165 L179.037,17.462 L179.037,17.543 L179.145,17.57 L179.253,17.732 L179.361,17.597 C179.324999,17.597 179.369999,17.6059999 179.496,17.624 C179.694001,17.624 179.900999,17.4440018 180.117,17.084 L180.441,17.003 L180.522,16.868 C180.576,16.7239993 180.683999,16.6160004 180.846,16.544 L181.035,16.571 L181.143,16.463 L181.17,16.328 L181.251,16.22 C181.431001,16.0939994 181.547999,15.9050013 181.602,15.653 L181.899,15.329 L181.953,15.086 L182.142,14.654 L182.655,14.465 L183.384,14.708 L183.627,15.491 C183.627,15.5090001 183.636,15.5269999 183.654,15.545 L183.654,15.626 C183.654,15.7700007 183.537001,15.9589988 183.303,16.193 L183.006,16.652 L182.898,17.192 L182.655,17.273 L182.601,17.435 C182.312998,17.5250005 182.106,17.7499982 181.98,18.11 C181.781999,18.3620013 181.566001,18.5419995 181.332,18.65 C181.241999,18.7400005 181.161,18.8029998 181.089,18.839 L180.954,19.082 L180.711,19.136 L180.009,19.514 L179.091,19.622 L178.848,19.568 L178.443,19.649 L178.281,19.46 C178.028998,19.3339994 177.849,19.2080006 177.741,19.082 C177.524999,19.0279997 177.363,18.8570014 177.255,18.569 C176.948998,18.2089982 176.796,17.9210011 176.796,17.705 L176.796,17.624 L176.607,17.3 L176.553,17.246 L176.391,16.76 L176.148,16.247 L176.202,15.626 L175.932,15.275 L175.527,12.953 C175.472999,12.6469985 175.446,12.3860011 175.446,12.17 L175.392,12.035 L175.257,11.846 L175.014,12.17 L174.042,13.196 L173.691,13.763 L173.502,14.141 L173.205,14.573 L172.989,14.789 L173.016,14.924 L172.638,15.761 L172.422,16.031 L172.152,16.085 L171.909,16.328 C171.909,16.6880018 171.738001,16.9219995 171.396,17.03 L171.342,17.084 C171.179999,17.480002 171.000001,17.7229996 170.802,17.813 L170.559,18.191 C170.162998,18.5510018 169.902,18.7759996 169.776,18.866 C169.721999,19.0460009 169.623,19.1989994 169.479,19.325 C169.442999,19.3790003 169.38,19.4509996 169.29,19.541 C169.235999,19.8470015 168.984002,20.0629994 168.534,20.189 L168.237,20.27 C167.876998,20.2519999 167.580001,20.045002 167.346,19.649 L166.941,18.974 L167.076,18.326 L167.022,17.975 L167.076,17.921 L167.103,17.57 L166.806,16.922 L167.022,16.598 L166.914,16.247 L167.103,15.869 L167.157,15.248 L167.049,15.14 L167.265,14.762 L167.184,14.573 L167.157,14.141 L167.265,13.331 C167.228999,13.1509991 167.211,13.0340003 167.211,12.98 C167.211,12.9439998 167.22,12.9080002 167.238,12.872 L167.238,12.764 L167.103,12.548 L167.184,11.684 L167.157,11.387 L167.238,10.955 L167.13,10.226 L167.616,9.416 C168.174002,9.50600045 168.560999,9.62749924 168.777,9.7805 C168.993001,9.93350077 169.101,10.207998 169.101,10.604 L169.101,10.847 L169.29,11.171 L169.209,11.738 L169.317,12.818 L169.128,13.331 L169.209,13.898 L169.209,14.357 L168.993,14.654 L169.155,15.14 L168.993,15.437 L168.966,15.734 L169.128,16.031 L168.912,16.598 L168.831,16.841 L168.831,17.084 L168.966,17.354 L169.425,16.895 C169.425,16.6249987 169.514999,16.4450005 169.695,16.355 C169.713,16.1749991 169.784999,16.0400005 169.911,15.95 L169.83,15.869 L170.181,15.545 L170.262,15.437 L170.262,15.194 L170.694,14.87 L170.802,14.6 L171.045,14.438 Z M192.018,8.633 L191.829,9.254 C191.829,9.32600036 191.811,9.44299919 191.775,9.605 L191.856,10.172 C191.495998,10.4420014 191.181001,10.7119987 190.911,10.982 L190.803,11.117 L190.506,11.603 L190.29,11.603 L189.939,11.846 L189.885,12.062 L189.615,12.197 L189.615,12.44 L188.994,12.575 L188.751,13.034 L188.697,13.034 L188.697,13.088 L188.508,13.196 L188.535,13.277 L187.86,13.79 L187.725,14.114 L187.455,14.573 L187.563,15.086 L187.509,15.194 L187.752,15.383 L188.022,15.41 C188.364001,15.5720008 188.535,15.8239983 188.535,16.166 L188.535,17.003 L187.293,16.841 L186.645,16.436 L186.375,16.112 C186.194999,16.0039995 186.06,15.8420011 185.97,15.626 L185.592,15.545 L185.592,15.005 L185.7,14.735 L185.403,14.357 L185.565,13.925 L185.592,13.601 L186.024,13.169 C186.042,13.0789996 186.122999,12.9890005 186.267,12.899 C186.321,12.8449997 186.365999,12.7820004 186.402,12.71 C186.42,12.5479992 186.518999,12.368001 186.699,12.17 L186.78,12.17 L186.942,11.873 L187.131,11.819 C187.275,11.5849988 187.463998,11.4410003 187.698,11.387 L187.671,11.468 L187.941,11.171 L187.914,11.171 C187.914,11.1890001 187.905,11.198 187.887,11.198 C187.887,11.1799999 187.878,11.1620001 187.86,11.144 C187.86,11.1079998 187.904999,11.0180007 187.995,10.874 L188.319,10.631 L188.427,10.523 L188.967,10.28 L188.967,10.064 L189.345,9.875 L189.399,9.47 C189.543,9.45199991 189.704999,9.41600027 189.885,9.362 L189.831,9.038 L189.723,8.687 L189.804,8.471 L189.642,8.201 L189.588,8.228 L189.102,7.931 L189.021,7.715 L188.751,7.472 L188.643,7.31 L188.427,7.31 L188.346,7.256 L188.184,7.31 L187.806,7.256 L187.752,7.337 C187.481998,7.337 187.311,7.32800009 187.239,7.31 L187.104,7.31 C186.815998,7.34600018 186.591,7.38199982 186.429,7.418 L186.375,7.445 C186.338999,7.42699991 186.258,7.33700081 186.132,7.175 C186.059999,7.37300099 185.934001,7.472 185.754,7.472 C185.123996,7.67000099 184.710001,7.769 184.512,7.769 C184.079997,7.769 183.783,7.50800261 183.621,6.986 C184.071002,6.53599775 184.529997,6.28400027 184.998,6.23 L185.187,6.392 L185.295,6.014 L185.457,5.96 L185.835,5.582 L186.159,5.582 L186.402,5.447 L186.969,5.285 L187.374,5.447 C187.518,5.41099982 187.634999,5.393 187.725,5.393 L187.86,5.393 C187.914,5.41100009 187.95,5.42 187.968,5.42 L188.292,5.312 C188.418,5.4920009 188.543999,5.582 188.67,5.582 C188.688,5.582 188.714999,5.57300009 188.751,5.555 L188.805,5.555 L189.156,5.663 L189.291,5.609 L189.372,5.69 L189.75,5.69 C189.894,5.74400027 190.001999,5.85199919 190.074,6.014 L190.479,6.419 L190.938,7.013 L191.343,7.607 L191.613,7.85 L191.667,8.255 L192.018,8.633 Z M188.643,19.325 C188.643,19.6310015 188.508001,19.8559993 188.238,20 L187.86,20.108 L187.131,20.27 L186.159,19.892 L185.673,19.541 L185.862,19.001 L185.754,18.002 L186.051,17.786 L186.105,17.462 L187.023,17.705 L187.104,17.651 L187.59,17.84 L188.319,18.488 L188.643,19.217 L188.643,19.325 Z" id="Leaving-so-soon?"></path>
                    <path d="M0.177965292,29.9374858 C12.698763,27.6956903 22.932541,27.6171383 46.2420546,28.7287658 C48.6438611,28.8433076 49.7350483,28.8946881 51.0816594,28.955695 C63.1376602,29.5018803 70.953511,29.5952642 78.9408182,29.1045277 L78.8794943,28.1064098 C70.9361509,28.5944452 63.1500743,28.501417 51.126917,27.9567197 C49.7813595,27.8957605 48.6907085,27.8444053 46.2896903,27.729901 C22.9047923,26.6146784 12.6215651,26.69361 0.00172220807,28.9531392 L0.177965292,29.9374858 Z" id="Path-2" fill-rule="nonzero"></path>
                    <path d="M98.2203007,26.8646029 C111.026662,23.7338334 121.323631,23.8980023 144.863738,26.2804221 C157.284648,27.5375032 162.899006,27.9709777 169.875148,28.0132802 C179.095347,28.0691906 187.257826,27.1544624 195.067161,24.989642 L194.800026,24.025983 C180.946706,27.8662523 169.796067,27.798636 144.964431,25.2855045 C121.311441,22.8916601 110.937184,22.7262591 97.9828243,25.8932096 L98.2203007,26.8646029 Z" id="Path-3" fill-rule="nonzero"></path>
                </g>
            </g>
        </g>
    </g>
</svg>