<?xml version="1.0" encoding="UTF-8"?>
<svg width="15px" height="16px" viewBox="0 0 15 16" version="1.1" xmlns="http://www.w3.org/2000/svg" xmlns:xlink="http://www.w3.org/1999/xlink">
    <!-- Generator: Sketch 47.1 (45422) - http://www.bohemiancoding.com/sketch -->
    <title>p_card-cal</title>
    <desc>Created with Sketch.</desc>
    <defs></defs>
    <g id="Page-1" stroke="none" stroke-width="1" fill="none" fill-rule="evenodd" opacity="0.600000024">
        <g id="Get-Started" transform="translate(-520.000000, -775.000000)" fill="#58627C">
            <g id="Group-11" transform="translate(470.000000, 573.000000)">
                <g id="Group-4" transform="translate(30.000000, 186.000000)">
                    <path d="M32.8642857,17.9928571 C33.2690491,17.9928571 33.6261897,18.1476183 33.9357143,18.4571429 C34.2452389,18.7666674 34.4,19.123808 34.4,19.5285714 L34.4,30.1714286 C34.4,30.5761925 34.2452389,30.9333319 33.9357143,31.2428571 C33.6261897,31.5523825 33.2690491,31.7071429 32.8642857,31.7071429 L22.2214286,31.7071429 C21.7928551,31.7071429 21.4297634,31.5523825 21.1321429,31.2428571 C20.8345223,30.9333319 20.6857143,30.5761925 20.6857143,30.1714286 L20.6857143,19.5285714 C20.6857143,19.123808 20.8345223,18.7666674 21.1321429,18.4571429 C21.4297634,18.1476183 21.7928551,17.9928571 22.2214286,17.9928571 L22.9714286,17.9928571 L22.9714286,16.4571429 L24.5071429,16.4571429 L24.5071429,17.9928571 L30.5785714,17.9928571 L30.5785714,16.4571429 L32.1142857,16.4571429 L32.1142857,17.9928571 L32.8642857,17.9928571 Z M32.8642857,30.1714286 L32.8642857,21.8142857 L22.2214286,21.8142857 L22.2214286,30.1714286 L32.8642857,30.1714286 Z" id="p_card-cal"></path>
                </g>
            </g>
        </g>
    </g>
</svg>