<?xml version="1.0" encoding="UTF-8"?>
<svg width="13px" height="16px" viewBox="0 0 13 16" version="1.1" xmlns="http://www.w3.org/2000/svg" xmlns:xlink="http://www.w3.org/1999/xlink">
    <!-- Generator: Sketch 47.1 (45422) - http://www.bohemiancoding.com/sketch -->
    <title>p_card-cvc</title>
    <desc>Created with Sketch.</desc>
    <defs></defs>
    <g id="Page-1" stroke="none" stroke-width="1" fill="none" fill-rule="evenodd" opacity="0.600000024">
        <g id="Get-Started" transform="translate(-748.000000, -775.000000)" fill="#58627C">
            <g id="Group-11" transform="translate(470.000000, 573.000000)">
                <g id="Group-2" transform="translate(257.000000, 186.000000)">
                    <path d="M30.0642857,21.3392857 L30.0642857,19.8035714 C30.0642857,19.160712 29.8321463,18.6071463 29.3678583,18.142856 C28.903568,17.678568 28.3500023,17.4464286 27.7071429,17.4464286 C27.0642834,17.4464286 26.5107177,17.678568 26.0464274,18.142856 C25.5821394,18.6071463 25.35,19.160712 25.35,19.8035714 L25.35,21.3392857 L30.0642857,21.3392857 Z M27.7071429,28.1964286 C28.1119063,28.1964286 28.4690469,28.0416674 28.7785714,27.7321429 C29.088096,27.4226183 29.2428571,27.0654777 29.2428571,26.6607143 C29.2428571,26.2559509 29.088096,25.8988103 28.7785714,25.5892857 C28.4690469,25.2797611 28.1119063,25.125 27.7071429,25.125 C27.3023794,25.125 26.9452389,25.2797611 26.6357143,25.5892857 C26.3261897,25.8988103 26.1714286,26.2559509 26.1714286,26.6607143 C26.1714286,27.0654777 26.3261897,27.4226183 26.6357143,27.7321429 C26.9452389,28.0416674 27.3023794,28.1964286 27.7071429,28.1964286 Z M32.2785714,21.3392857 C32.6833349,21.3392857 33.0404754,21.4880949 33.35,21.7857131 C33.6595246,22.0833337 33.8142857,22.4345223 33.8142857,22.8392857 L33.8142857,30.4821429 C33.8142857,30.8869067 33.6595246,31.2380937 33.35,31.5357143 C33.0404754,31.8333348 32.6833349,31.9821429 32.2785714,31.9821429 L23.1357143,31.9821429 C22.7309504,31.9821429 22.373811,31.8333348 22.0642857,31.5357143 C21.7547604,31.2380937 21.6,30.8869067 21.6,30.4821429 L21.6,22.8392857 C21.6,22.4345223 21.7547604,22.0833337 22.0642857,21.7857131 C22.373811,21.4880949 22.7309504,21.3392857 23.1357143,21.3392857 L23.8857143,21.3392857 L23.8857143,19.8035714 C23.8857143,18.7559463 24.2607109,17.8571463 25.0107154,17.107144 C25.7607177,16.3571394 26.6595177,15.9821429 27.7071429,15.9821429 C28.754768,15.9821429 29.653568,16.3571394 30.4035703,17.107144 C31.1535749,17.8571463 31.5285714,18.7559463 31.5285714,19.8035714 L31.5285714,21.3392857 L32.2785714,21.3392857 Z" id="p_card-cvc"></path>
                </g>
            </g>
        </g>
    </g>
</svg>