<?xml version="1.0" encoding="UTF-8"?>
<svg width="165px" height="90px" viewBox="0 0 165 90" version="1.1" xmlns="http://www.w3.org/2000/svg" xmlns:xlink="http://www.w3.org/1999/xlink">
    <!-- Generator: Sketch 46.1 (44463) - http://www.bohemiancoding.com/sketch -->
    <title>stick-guide</title>
    <desc>Created with Sketch.</desc>
    <defs></defs>
    <g id="Page-1" stroke="none" stroke-width="1" fill="none" fill-rule="evenodd">
        <g id="the-popup" transform="translate(-426.000000, -423.000000)" fill="#FFFFFF">
            <g id="Group-2" transform="translate(370.000000, 105.000000)">
                <g id="stick-guide" transform="translate(55.000000, 318.000000)">
                    <path d="M163.001261,15.1471562 C162.023091,20.4834719 161.033865,25.8177973 160.061887,31.1553292 C159.831248,32.4217423 159.631346,33.6946786 159.457095,34.9700475 C159.373287,35.5841262 159.148176,35.9567307 158.490977,36.1145072 C157.496776,36.3533279 156.528446,36.699839 155.431087,37.036731 C155.473102,36.2281681 155.534797,35.5329346 155.533802,34.8379221 C155.533249,34.5125289 155.681628,34.0382045 155.132008,33.9692119 C154.712414,33.9165829 154.368998,34.3098631 154.325767,34.8290769 C154.302881,35.1042735 154.285301,35.380023 154.268937,35.6556619 C154.230681,36.293291 154.290939,36.9019521 154.925141,37.3954043 C154.342684,37.7178122 153.860509,37.9847164 153.24632,38.3247042 C153.24632,37.9373945 153.242229,37.7090775 153.246983,37.4809817 C153.324711,33.7205509 153.265006,29.9612258 152.671492,26.2418146 C152.20546,23.321126 151.645779,20.4121574 151.017769,17.5218742 C150.641406,15.7896502 149.61315,14.4201905 148.108027,13.4408045 C148.000115,13.3707062 147.903039,13.2836914 147.794022,13.2158045 C147.306208,12.912082 147.198076,12.5771802 147.524906,12.0376224 C147.82509,11.5422906 148.000778,10.9667991 148.197805,10.4146368 C148.520103,9.51143019 149.107204,8.84759712 149.991835,8.50506634 C151.530902,7.90912026 153.0389,7.71529958 154.606161,8.58865358 C156.918299,9.87695852 159.317452,11.0085927 161.646396,12.2679296 C163.367563,13.1985563 163.350315,13.243114 163.001261,15.1471562 M151.737438,38.3127632 C151.696307,38.4510802 151.463789,38.6544094 151.360411,38.6318542 C150.764465,38.5018296 150.43885,38.8092006 150.123297,39.2421737 C149.67584,39.856363 149.588715,39.8423212 149.078346,39.2322228 C148.728518,38.8140655 148.461172,38.7973702 148.065238,39.1761663 C147.905582,39.3287462 147.76826,39.5071983 147.597769,39.6454047 C147.222953,39.9493483 146.980373,39.8556996 146.942228,39.3815963 C146.91138,38.9970508 146.928407,38.6084143 146.928628,38.2216575 C146.930287,35.7168044 147.007682,33.2092977 146.918346,30.7077615 C146.784783,26.9690015 146.366183,23.25733 145.510962,19.6035945 C145.199942,18.275265 144.572485,17.163422 143.447596,16.3791835 C142.089856,15.4324143 140.712878,14.512844 139.332582,13.5992443 C139.060261,13.4189126 138.743049,13.2375858 138.431477,13.2062959 C138.165015,13.1795391 137.803909,13.2966276 137.623688,13.4838143 C137.496648,13.615608 137.513897,14.0179545 137.619265,14.2200676 C138.273811,15.4765298 138.971366,16.7104367 139.654769,17.951862 C139.707951,18.0486065 139.765887,18.1430291 139.814646,18.2418743 C140.197755,19.0166042 139.994204,19.4993316 139.160764,19.6693808 C138.099118,19.8859779 137.028073,20.0564693 135.900862,20.2575873 C135.852434,20.034688 135.778466,19.8283734 135.76741,19.6188525 C135.715555,18.6442209 135.654412,17.6689258 135.646894,16.6934096 C135.637164,15.4112963 135.145812,14.3368244 134.322323,13.432291 C134.342667,13.3450551 134.339572,13.3001656 134.360468,13.2767258 C134.976427,12.5831508 134.969461,12.5153743 134.219719,11.9730523 C134.040493,11.84347 133.857508,11.7189737 133.684141,11.5822046 C133.004608,11.0467376 132.982053,10.5462093 133.604645,9.92560718 C134.209215,9.32280607 135.596587,9.05037358 136.39752,9.37709355 C137.279941,9.73698306 137.764879,10.5348211 137.769191,11.6339491 C137.772508,12.4815414 137.940015,12.6089124 138.734425,12.2648337 C139.057607,12.1248583 139.24015,12.2105463 139.513356,12.382475 C141.419389,13.5810011 143.474352,14.1376965 145.72568,13.6664679 C146.041564,13.60035 146.196355,13.6676842 146.424009,13.8943427 C146.769636,14.2383108 147.188788,14.5300922 147.621319,14.7602888 C148.630226,15.2970825 149.231368,16.107525 149.52116,17.2052156 C150.570754,21.1810273 151.44046,25.1884606 151.589833,29.3143092 C151.68901,32.0566562 151.726271,34.8013251 151.78686,37.5451095 C151.79261,37.802284 151.808863,38.073058 151.737438,38.3127632 M145.74337,40.8473583 C145.737621,41.336609 145.591122,41.646302 145.174291,41.8658843 C144.539758,42.2000122 143.913517,42.5496191 143.279868,42.8851843 C143.206453,42.9239927 143.107608,42.9149263 142.981232,42.9340541 C142.981232,42.07828 142.979795,41.2557859 142.981895,40.4332919 C142.982669,40.0833532 143.002239,39.7331935 142.99251,39.3838076 C142.980016,38.9371245 142.734229,38.7261662 142.288541,38.7109082 C141.825052,38.6949869 141.742018,38.9726159 141.737706,39.3497536 C141.724438,40.5096924 141.689278,41.6695207 141.687509,42.8294595 C141.686182,43.7683786 141.491698,44.0393738 140.485556,44.2982067 C140.461231,44.1002951 140.413246,43.9104548 140.418885,43.7223835 C140.440335,43.0047052 140.470519,42.2870269 140.514524,41.5704543 C140.540285,41.1519653 140.529339,40.7711789 139.988787,40.7200979 C139.450777,40.6692379 139.272988,41.0010439 139.257066,41.4627639 C139.221796,42.4931203 139.155899,43.5252459 139.186526,44.5540545 C139.20289,45.0985877 139.030076,45.430062 138.557189,45.645664 C138.160703,45.826438 137.768528,46.0163889 137.237263,46.2669295 C137.237263,45.8377157 137.22698,45.5387475 137.239695,45.2408851 C137.261587,44.7257621 137.288123,44.2105286 137.331464,43.6969535 C137.364412,43.308096 137.205752,43.0912777 136.817226,43.0796684 C136.447054,43.0686119 136.160358,43.1997421 136.126636,43.6234277 C136.078208,44.2288824 136.032213,44.8346688 135.997053,45.441008 C135.973503,45.8454552 135.981685,46.2517821 135.955592,46.6558977 C135.913356,47.3104433 135.764203,47.4430108 135.021206,47.4988462 C135.021206,46.9496692 134.991242,46.4008239 135.025849,45.85618 C135.392152,40.0747292 134.942704,34.3372832 134.107385,28.6207341 C134.057299,28.2782033 133.974485,27.9298125 133.840038,27.6126012 C133.665014,27.1995298 133.333539,26.9691121 132.862421,27.1170482 C132.411094,27.2587927 132.460296,27.6432277 132.510603,27.9916184 C132.78392,29.8857098 133.095272,31.7747151 133.341611,33.6722339 C133.810186,37.2793109 133.81494,40.9099382 133.825886,44.5387965 C133.828429,45.4045215 133.808196,46.270357 133.794375,47.136082 C133.79139,47.3134285 133.770603,47.4903327 133.75822,47.6640306 C133.129547,47.6530846 132.596402,47.2986128 132.559362,46.786254 C132.507839,46.075099 132.556819,45.3565362 132.56478,44.6410692 C132.566991,44.4385139 132.591758,44.2349635 132.578048,44.0338455 C132.545984,43.5646071 132.187863,43.4999265 131.826979,43.4793613 C131.405836,43.4552581 131.493736,43.8005531 131.485333,44.0303074 C131.46333,44.6376417 131.47903,45.2461922 131.464104,45.8537476 C131.459018,46.0587354 131.4065,46.2625069 131.35376,46.6121139 C130.807015,46.0524332 130.286254,45.6588213 130.325836,44.9279857 C130.361549,44.2668062 130.473772,43.6071746 130.468244,42.947543 C130.46559,42.6294472 130.308809,42.2904545 130.14462,42.0054175 C130.065566,41.8683168 129.801978,41.7670391 129.632703,41.7808598 C129.540934,41.7882676 129.42086,42.065565 129.40118,42.2315232 C129.323674,42.8889435 129.280885,43.5505653 129.225271,44.2105286 C129.208907,44.403133 129.192986,44.5955164 129.176843,44.7880103 C129.108403,44.8016098 129.039853,44.8153199 128.971303,44.8289194 C128.848244,44.4472485 128.654423,44.0719905 128.618821,43.6823589 C128.56575,43.0992384 128.652543,42.5045086 128.622027,41.9177394 C128.607986,41.6479605 128.526057,41.3217933 128.353243,41.1323952 C127.991585,40.7363509 127.543907,40.8492379 127.396302,41.3622602 C127.229459,41.941732 127.135258,42.5421007 127.009324,43.1343981 C126.378771,43.074693 126.060233,42.844828 125.999091,42.2423586 C125.848722,40.759459 125.69382,39.2736848 125.634889,37.7853675 C125.45699,33.2944329 125.323759,28.8018398 125.174054,24.3097995 C125.167862,24.1258191 125.183341,23.9404014 125.168857,23.7573055 C124.963869,21.1736194 126.118943,19.4838525 128.435946,18.3641594 C129.486315,17.8565548 130.35392,16.9625252 131.284215,16.2185324 C131.699829,15.8861736 132.047999,15.4697853 132.458859,15.1305714 C133.050714,14.6418736 133.624547,14.7315419 133.86182,15.4488885 C134.176156,16.3991958 134.394965,17.3928447 134.538036,18.3846139 C134.663638,19.2547615 134.654572,20.1482384 134.653798,21.0314327 C134.653355,21.5691109 134.92236,21.7509906 135.375014,21.6648603 C137.163073,21.3246514 138.945383,20.9542582 140.730236,20.597354 C141.087362,20.5259289 141.186317,20.290204 141.199806,19.9559656 C141.246797,18.7981275 141.085482,17.6798718 140.620666,16.6121443 C140.554659,16.4605595 140.493074,16.3069845 140.43547,16.1519722 C140.424413,16.1222301 140.441882,16.0817633 140.457472,15.954724 C140.68988,16.0968002 140.92262,16.19067 141.092669,16.3511 C142.057128,17.2600559 143.034635,18.1581765 143.952104,19.1135699 C144.621355,19.8103513 144.611515,20.770499 144.707375,21.6604377 C145.394095,28.0371713 145.818333,34.4283889 145.74337,40.8473583 M123.881768,27.3135225 C123.966903,31.0680933 124.200417,34.8194578 124.385171,38.5715962 C124.454827,39.9867193 124.327567,40.1348766 122.975355,39.768906 C122.254913,39.5738691 121.570072,39.244385 120.873844,38.9639918 C120.370551,38.7613259 120.208684,38.3501342 120.137369,37.8350112 C120.09049,37.4960185 119.884839,37.1803551 119.762775,36.8497653 C119.688143,36.6478734 119.592504,36.4395687 119.58178,36.2303794 C119.301497,30.7470122 119.11044,25.2623181 119.416374,19.7732014 C119.435723,19.4251424 119.490453,19.0774151 119.55248,18.7337786 C119.652431,18.1818375 119.92807,17.7630167 120.436227,17.4717882 C121.266129,16.9962475 122.065294,16.4671934 122.885576,15.9744046 C123.789557,15.4314192 124.739864,15.0723036 125.805159,14.8920825 C126.685921,14.7430407 127.518698,14.2797727 128.356782,13.9187776 C129.36602,13.4840355 130.339767,12.9611729 131.364374,12.5699935 C132.105603,12.2869468 132.826267,12.4217257 133.293294,12.7714432 C133.194559,12.8749321 133.114289,12.9932368 133.004719,13.0687528 C131.474497,14.1224386 129.936426,15.1645149 128.409079,16.222181 C127.683108,16.7248101 126.989754,17.2747611 126.257371,17.7672182 C124.932579,18.6581521 124.292739,19.933742 124.181621,21.4784475 C124.041867,23.4214086 123.837653,25.3715565 123.881768,27.3135225 M118.087381,19.5470957 C118.038512,22.5300325 117.94044,25.5124164 117.912578,28.4954638 C117.892234,30.6867542 117.952271,32.8789291 117.974384,35.0707723 C117.982123,35.8312393 117.87189,35.913942 117.135968,35.7039788 C116.941595,35.6485857 116.752971,35.5736225 116.559592,35.5144702 C114.842516,34.9896175 113.823658,34.0094576 113.483781,32.0816439 C112.713031,27.7101196 111.918289,23.3502047 111.657576,18.9115674 C111.572331,17.4595154 111.502232,16.006579 111.432466,14.5536426 C111.419198,14.2783354 111.433129,14.0009275 111.447171,13.7250675 C111.495488,12.7779665 111.654149,12.6602147 112.430095,13.1552148 C113.654714,13.936468 114.838425,14.7816279 116.041042,15.5970458 C116.374949,15.8233726 116.69614,16.0836429 117.060563,16.2428567 C117.236583,16.3196995 117.579887,16.2753629 117.701509,16.1472179 C117.84657,15.9945274 117.953487,15.6286674 117.866804,15.4696747 C117.682934,15.1324511 117.406632,14.8058417 117.090415,14.5879178 C116.151054,13.9410012 115.165034,13.3623033 114.216496,12.7282122 C113.875845,12.5005586 113.589813,12.1911974 113.249383,11.893556 C116.179801,10.8233961 118.987713,9.79812558 121.799385,8.77130718 C122.050699,9.26133186 121.949643,9.88834673 121.500748,10.3289488 C120.725244,11.0904109 119.910379,11.8141702 119.16904,12.6070328 C118.828057,12.9717872 118.561374,13.4377087 118.371423,13.9028562 C118.182688,14.3650185 118.41189,14.691075 118.906227,14.6929546 C120.079986,14.6974878 121.253967,14.6455222 122.480355,14.6151168 C122.333856,14.7578564 122.189458,14.9514559 121.999286,15.0739621 C121.349716,15.4924511 120.706117,15.9289623 120.019839,16.2797855 C118.670944,16.9693802 118.111485,18.0795647 118.087381,19.5470957 M122.775343,10.8243912 C122.918967,10.7164796 123.173488,10.6531258 123.342874,10.6980152 C125.18312,11.1863814 127.072789,11.0552512 128.941892,11.1759883 C129.301008,11.1990964 129.658133,11.2540473 130.016143,11.294293 C130.034939,11.3531136 130.053735,11.4119343 130.072531,11.4707549 C129.918625,11.6138262 129.777654,11.7749196 129.6086,11.8972047 C128.415934,12.7608289 127.084066,13.3294654 125.662973,13.6824999 C125.447813,13.7359028 125.181461,13.6256694 124.948832,13.5573402 C124.570479,13.4462222 124.204729,13.2169101 123.825712,13.1977823 C122.908021,13.1515661 121.985466,13.2081755 121.065232,13.198114 C120.882357,13.1961239 120.700588,13.0816889 120.518377,13.0191091 C120.594888,12.8235194 120.616559,12.5646864 120.757198,12.4432859 C121.409421,11.8796248 122.085969,11.3424994 122.775343,10.8243912 M123.712825,5.95985694 C124.627309,4.88837022 125.880454,4.43715391 127.201376,4.09639217 C129.300566,3.55484414 132.603809,5.63357923 133.349792,7.77179836 C133.459805,8.08713013 133.411377,8.55835873 133.246193,8.84947673 C132.814215,9.61060711 132.274768,10.3104844 131.783527,11.0384453 C131.702814,11.1581873 131.649743,11.2966148 131.583957,11.4265289 C131.515738,11.383519 131.447519,11.3406198 131.379522,11.2977205 C131.345136,11.2156812 131.268625,11.1255706 131.282777,11.0530399 C131.442544,10.2313198 130.886844,9.79602485 130.402568,9.28090188 C128.689693,7.45923073 126.537875,6.82580307 124.118488,6.84636819 C123.900012,6.84813723 123.680429,6.74840748 123.46151,6.69577848 C123.54167,6.44733862 123.556375,6.14317393 123.712825,5.95985694 M133.954915,4.41614654 C135.015677,3.9132963 136.07854,3.38612174 137.193258,3.03739931 C137.784228,2.85242384 138.541378,2.85883662 139.127595,3.05940177 C141.281625,3.79631839 143.396625,4.64800162 145.52224,5.46673644 C145.676478,5.52610992 145.798984,5.66763329 145.936306,5.77079056 C145.935643,5.82386183 145.934979,5.87682253 145.934316,5.92989379 C142.901846,6.00905843 139.964573,6.31908306 138.030789,9.11450136 C137.878983,9.00072983 137.744314,8.91017699 137.621476,8.8058035 C137.086231,8.35060684 136.492054,8.06324806 135.767852,8.07319892 C135.182631,8.08115961 134.74037,7.92194582 134.514596,7.26198253 C134.334928,6.73679814 133.964645,6.27220345 133.653073,5.79787902 C133.287655,5.24195752 133.36107,4.69775593 133.954915,4.41614654 M146.941564,10.0869217 C146.932277,10.2497842 146.905741,10.4191699 146.845483,10.568654 C146.802916,10.6743543 146.698542,10.8105705 146.605668,10.8242806 C146.51998,10.836885 146.351368,10.7226712 146.324611,10.6328923 C145.955876,9.39743754 144.982571,9.26398542 143.91418,9.27305176 C142.681269,9.28344488 141.431883,9.21644241 140.405175,10.091676 C140.169008,10.2930151 139.980826,10.5548334 139.731501,10.734944 C139.555924,10.8617622 139.275089,11.0084821 139.110678,10.9503248 C138.786501,10.8354477 138.662005,10.517794 138.827521,10.1790225 C138.930899,9.9674008 139.070875,9.76550887 139.22843,9.58993143 C140.544045,8.12505397 142.150777,7.27314961 143.853922,7.28486951 C145.888763,7.26154027 147.037093,8.4163931 146.941564,10.0869217 M147.981651,6.29221574 C148.679648,6.14538524 149.392351,6.02674885 150.103396,5.99733852 C150.834895,5.96704368 151.573027,6.03548349 152.303973,6.10469727 C152.476344,6.12106091 152.631799,6.31399707 152.795104,6.42577842 C152.632352,6.56763349 152.484637,6.80634361 152.304084,6.83453772 C151.54218,6.9535058 150.758273,6.95074168 150.006541,7.10818643 C149.452388,7.22427982 148.893371,7.45182287 148.413629,7.75256003 C147.835262,8.11521367 147.748358,8.13412031 147.572339,7.47470985 C147.520373,7.28011521 147.480238,7.08231419 147.398641,6.7302748 C147.565926,6.59859172 147.751786,6.3405327 147.981651,6.29221574 M165.213669,12.0095388 C165.662674,12.3538387 165.799885,12.8080402 165.678927,13.3813205 C165.060205,16.3150557 164.42335,19.2459163 163.869197,22.1921455 C163.199172,25.7541118 162.612293,29.3317784 161.975216,32.900047 C161.735953,34.2400965 161.460978,35.5738437 161.1933,36.908586 C161.032649,37.7096304 160.826776,37.8647533 160.017771,37.9496673 C157.724982,38.1905887 155.657967,39.1059575 153.632414,40.1314491 C153.530362,40.183083 153.433065,40.3884024 153.449097,40.5063754 C153.573814,41.4173216 153.180866,42.0674446 152.407241,42.4588452 C151.194673,43.0720394 149.958887,43.6415604 148.718567,44.1975925 C147.996135,44.5213272 147.268506,44.4368554 146.611638,44.0002337 C146.318751,43.8055285 146.107682,43.8431206 145.821429,44.0115113 C143.092571,45.6165854 140.368357,47.2307258 137.611415,48.7868195 C136.689412,49.3072496 135.693442,49.7102595 134.701451,50.0888345 C133.946955,50.3768567 133.215677,50.1938714 132.573404,49.6880359 C130.851573,48.3320651 129.114706,46.9948904 127.408133,45.6200129 C126.561646,44.9379366 125.673145,44.489595 124.568157,44.2860446 C123.391854,44.0694475 122.247284,43.5922483 121.139974,43.1114006 C119.399679,42.3560196 118.466509,40.9145819 118.097222,39.0987707 C118.012529,38.6819402 117.83474,38.4894463 117.444224,38.3411784 C116.275329,37.8977017 115.133634,37.383021 113.968277,36.9297039 C112.990771,36.5494704 112.294321,35.883426 112.014812,34.8932047 C111.561606,33.2869144 111.021716,31.676091 110.82867,30.0308818 C110.219677,24.8385219 109.755303,19.6293562 109.231777,14.4269349 C109.215524,14.2652887 109.164886,14.1071806 109.130279,13.9474139 L109.130279,11.9572415 C109.382257,10.9443543 110.129787,10.4523395 111.05367,10.1846613 C113.473498,9.48356778 115.902393,8.81387476 118.321448,8.11034881 C119.150355,7.86920625 119.965441,7.57731429 120.776215,7.27956239 C120.9435,7.21808817 121.109679,7.05334612 121.198684,6.89302668 C122.490196,4.56386155 124.589496,3.32763279 127.038513,2.57722722 C128.11387,2.24763255 129.188342,2.39435249 130.138428,2.94651477 C131.125333,3.51990556 131.953797,3.44162544 132.912065,2.85131819 C133.909141,2.23712887 135.036574,1.83920495 136.077103,1.29002793 C137.232398,0.680261209 138.397201,0.614364389 139.654438,0.919413595 C142.375556,1.57981914 144.93735,2.62078988 147.373874,3.98516364 C147.611921,4.11828406 147.897621,4.26157648 148.023555,4.47961092 C148.295766,4.95050783 148.62525,4.97626951 149.080115,4.81506554 C149.407277,4.69897215 149.766393,4.67509008 150.09831,4.56961094 C151.683261,4.06565506 153.020988,4.61173626 154.270264,5.53495513 C154.43003,5.65292813 154.659011,5.80495519 154.677917,5.96262107 C154.751333,6.57316174 155.250755,6.65962368 155.663274,6.86660161 C158.309098,8.19471 160.962771,9.50800267 163.59389,10.864858 C164.176126,11.1651529 164.688816,11.6069712 165.213669,12.0095388 Z M136.80639,22.664347 C135.242004,23.1973815 133.672643,23.7174799 132.119976,24.2830206 C131.66677,24.4482049 131.314288,24.4409076 130.965124,24.1024677 C130.277961,23.4365339 129.576315,22.7854159 128.889816,22.1185975 C128.28403,21.530391 127.809705,21.4908087 127.045811,22.0232904 C127.093685,22.1373936 127.107838,22.2409931 127.166548,22.3003666 C128.356229,23.4988927 129.543367,24.7002934 130.757372,25.8738318 C130.873576,25.9861659 131.194215,25.9926893 131.369239,25.9222593 C133.465775,25.078979 135.555567,24.2184506 137.636845,23.338131 C137.803577,23.267701 137.894241,23.0172709 138.020174,22.8505387 C137.793737,22.7439539 137.575924,22.594691 137.337656,22.5454895 C137.175236,22.5119883 136.979535,22.6053052 136.80639,22.664347 Z M144.154328,38.312332 C144.13719,39.1547277 144.088099,39.9976763 144.113198,40.8386347 C144.119611,41.0512515 144.355225,41.2571238 144.485581,41.4660919 C144.678075,41.2800107 144.986331,41.1220132 145.039512,40.9022097 C145.15837,40.4107477 145.150299,39.8883274 145.193751,39.3786221 L145.136146,39.3754157 C145.136146,39.0273567 145.154279,38.678192 145.130618,38.3317914 C145.109942,38.0263 145.105299,37.6543589 144.66138,37.6630935 C144.264561,37.6709436 144.161404,37.9644941 144.154328,38.312332 Z M161.689815,14.6958293 C161.564765,14.627279 161.312898,14.7278932 161.144839,14.8112593 C160.587259,15.0883356 160.510748,15.6448099 160.447615,16.1713211 C159.926743,20.5165308 159.413278,24.8625146 158.91474,29.2102674 C158.834581,29.9092601 158.839003,30.6179827 158.804175,31.322172 C158.872062,31.3319017 158.939728,31.341742 159.007394,31.3515823 C159.078708,31.1153046 159.174126,30.8835601 159.217357,30.6424175 C159.995072,26.3006353 160.770023,21.9584108 161.536129,17.6146383 C161.676547,16.8190116 161.791203,16.0178567 161.882087,15.2150432 C161.901657,15.0426722 161.815417,14.7647114 161.689815,14.6958293 Z M158.245876,16.569057 C158.089095,16.5650767 157.878911,16.852546 157.776417,17.0539957 C157.681663,17.2401874 157.680557,17.4822145 157.669611,17.701244 C157.619083,18.7130255 157.607473,19.7274606 157.530852,20.7370309 C157.260741,24.2995501 156.966527,27.8601897 156.690778,31.422156 C156.658935,31.8324633 156.686466,32.2473036 156.686466,32.6600433 C156.764635,32.678176 156.842694,32.6964192 156.920753,32.7145519 C157.01993,32.3231513 157.161011,31.9371684 157.211871,31.5396868 C157.725336,27.5228554 158.237695,23.505803 158.715115,19.484549 C158.811638,18.671453 158.789746,17.8392293 158.752044,17.0190571 C158.744304,16.8495608 158.42654,16.5737008 158.245876,16.569057 Z M158.741374,13.053329 C159.064003,12.7531446 158.9792,12.3894959 158.553303,12.2568178 C158.278548,12.1712403 157.97748,12.1707981 157.558769,12.1148521 C155.738646,12.4917687 153.866336,13.0429359 152.14351,14.0280712 C151.961962,14.1318919 151.753326,14.3174202 151.709432,14.5014006 C151.653596,14.7353564 151.683228,15.0519044 151.809714,15.245725 C151.895734,15.3777398 152.208744,15.3786243 152.424125,15.4023958 C152.522859,15.4132312 152.630992,15.3380469 152.734813,15.3015604 C154.533376,14.6689067 156.333487,14.0400122 158.128954,13.3986239 C158.347652,13.3204544 158.574089,13.2090047 158.741374,13.053329 Z" id="Combined-Shape"></path>
                    <path d="M76.3205122,62.7238149 L76.3215122,62.7228149 C76.3225122,62.7213149 76.3235122,62.7198149 76.3245122,62.7178149 C76.4105121,62.6203149 76.4735121,62.502815 76.5240121,62.378815 C76.5400121,62.3408151 76.5505121,62.3048151 76.5620121,62.2663151 C76.5910121,62.1708151 76.6090121,62.0718152 76.6150121,61.9683152 C76.6180121,61.9303152 76.6240121,61.8943153 76.6230121,61.8553153 C76.6230121,61.8353153 76.628012,61.8173153 76.627012,61.7978153 C76.6200121,61.6783154 76.5960121,61.5628154 76.5590121,61.4543155 C76.5560121,61.4428155 76.5480121,61.4338155 76.5440121,61.4223155 C76.5000121,61.3028155 76.4370121,61.1968156 76.3625122,61.0998156 C76.3520122,61.0863156 76.3485122,61.0683156 76.3375122,61.0548156 L71.1820145,54.9818184 C70.7875147,54.5168186 70.140015,54.5078186 69.7350152,54.9633184 C69.3310154,55.4183182 69.3235154,56.1643179 69.7190152,56.6303176 L72.4980139,59.9048162 C68.4375158,59.3668164 64.4460176,60.221316 64.2575177,60.263316 C51.9345233,62.496815 43.2140272,73.8768098 44.8175265,85.6313045 C44.8970264,86.2133042 45.3315262,86.627304 45.827026,86.627304 C45.880026,86.627304 45.933026,86.622804 45.987026,86.613804 C46.5450257,86.5123041 46.9260255,85.9093044 46.8390256,85.2658047 C45.4105262,74.7958094 53.3670226,64.624814 64.6075175,62.5868149 C64.6590175,62.5748149 68.7830156,61.6898153 72.6660138,62.2998151 L68.3775158,64.8463139 C67.875016,65.1453138 67.6785161,65.8563135 67.937016,66.4348132 C68.1950159,67.0143129 68.8110156,67.2388128 69.3150154,66.943313 L76.0750123,62.9293148 C76.1665123,62.8738148 76.2485122,62.8043148 76.3205122,62.7238149 Z" id="Shape" fill-rule="nonzero" transform="translate(60.627304, 70.627304) scale(-1, 1) rotate(-212.000000) translate(-60.627304, -70.627304) "></path>
                    <path d="M5.00574922,33.9398208 C4.86036259,33.9519999 4.66397412,33.9673665 4.41658263,33.9859209 L4.36258263,33.9679209 L4.21858263,33.9499209 L3.98458263,34.0759209 C3.91258227,34.0279206 3.78058359,33.9739212 3.58858263,33.9139209 C3.32458131,33.8899208 3.15058305,33.8779209 3.06658263,33.8779209 L2.92258263,33.8779209 C2.83858221,33.8659208 2.74858311,33.8599209 2.65258263,33.8599209 C2.55658215,33.8599209 2.46058311,33.8839206 2.36458263,33.9319209 L2.11258263,33.7699209 L1.96858263,33.7339209 C1.93258245,33.7339209 1.86658311,33.7159211 1.77058263,33.6799209 C1.32658041,33.6319206 1.10458263,33.2599244 1.10458263,32.5639209 L1.10458263,32.4019209 L1.44658263,32.1499209 L1.87858263,31.9879209 L2.20258263,32.1499209 L2.45458263,32.1499209 L2.45458263,32.2039209 C2.57458323,32.2519211 2.67058227,32.3479202 2.74258263,32.4919209 L2.88658263,32.5099209 L2.88658263,32.7439209 L3.12058263,32.7979209 L3.17458263,32.8339209 L5.47858263,32.6899209 L6.03658263,32.5999209 L6.09058263,32.5999209 L6.12658263,32.5099209 L6.37858263,32.4739209 L6.41458263,32.4199209 C6.66658389,32.3839207 6.90058155,32.3119214 7.11658263,32.2039209 L7.13458263,32.1139209 C7.12258257,32.1019208 7.09858281,32.0599212 7.06258263,31.9879209 L6.97258263,32.0059209 L6.73858263,31.8259209 L6.57658263,31.8259209 L6.48658263,31.6999209 L6.54058263,31.6279209 L6.34258263,31.6639209 L6.19858263,31.5019209 C6.16258245,31.5139209 6.10258305,31.5199209 6.01858263,31.5199209 C5.86258185,31.5199209 5.70658341,31.4899212 5.55058263,31.4299209 L5.38858263,31.4299209 L5.26258263,31.3759209 L5.01058263,31.4659209 L4.86658263,31.3039209 L4.81258263,31.3039209 L4.56058263,31.1059209 L4.00258263,30.8899209 L3.82258263,30.7459209 L3.13858263,30.6199209 L3.06658263,30.4939209 L2.56258263,30.1699209 L2.29258263,29.5759209 L2.07658263,29.2699209 L2.00458263,28.3339209 L2.07658263,28.2259209 C2.10058275,27.9499195 2.19658179,27.7099219 2.36458263,27.5059209 C2.54458353,27.4099204 2.63458263,27.2719218 2.63458263,27.0919209 L2.90458263,27.0379209 C2.95258287,26.9419204 3.04858191,26.8519213 3.19258263,26.7679209 L3.46258263,26.5519209 L4.59658263,26.1199209 L4.79458263,26.0659209 L5.15458263,26.0299209 L5.74858263,25.8679209 L6.88258263,25.9399209 L6.91858263,26.0299209 C7.02658317,26.0659211 7.14658197,26.1619201 7.27858263,26.3179209 L7.27858263,26.4079209 L7.56658263,26.5879209 L7.44058263,27.0199209 L7.40458263,27.1819209 C7.33258227,27.4819224 7.16458395,27.6319209 6.90058263,27.6319209 C6.68458155,27.6319209 6.52258317,27.5299219 6.41458263,27.3259209 L6.41458263,27.2719209 L6.19858263,27.2539209 L5.94658263,27.3259209 L5.71258263,27.1639209 L5.58658263,27.2539209 C5.43058185,27.2539209 5.28658329,27.3019204 5.15458263,27.3979209 C4.97458173,27.3979209 4.80058347,27.4699202 4.63258263,27.6139209 L4.39858263,27.6139209 L4.23658263,27.7399209 L3.98458263,27.7939209 L3.94858263,27.8299209 L3.84058263,27.8839209 L3.67858263,28.0459209 L3.62458263,28.0639209 L3.46258263,28.3159209 L3.26458263,28.4239209 C3.21658239,28.5799217 3.18658269,28.7119203 3.17458263,28.8199209 C3.18658269,28.9879217 3.20758248,29.0989206 3.23758263,29.1529209 C3.26758278,29.2069211 3.34858197,29.2639206 3.48058263,29.3239209 L3.48058263,29.4139209 L3.71458263,29.5399209 C3.90658359,29.6119212 4.05058215,29.6899205 4.14658263,29.7739209 L4.50658263,29.7739209 L4.74058263,29.9719209 L5.15458263,30.0259209 L5.31658263,30.1339209 L6.01858263,30.3319209 L6.10858263,30.5299209 L6.18058263,30.4039209 C6.33658341,30.4039209 6.54658131,30.4759202 6.81058263,30.6199209 L7.13458263,30.6739209 L7.17058263,30.7999209 L7.45858263,30.7999209 L7.96258263,31.0879209 C8.02258293,31.2439217 8.15458161,31.3879202 8.35858263,31.5199209 L8.55658263,31.6459209 L8.50258263,31.8619209 C8.58658305,31.9819215 8.62858263,32.1079202 8.62858263,32.2399209 L8.62858263,32.2939209 L8.41258263,32.5459209 L8.21458263,33.0139209 L8.07058263,33.1219209 L7.94458263,33.3739209 L7.58458263,33.4099209 L7.35058263,33.6439209 L6.99058263,33.6439209 L6.77458263,33.8239209 L6.57658263,33.7699209 L6.34258263,33.8239209 L6.34258263,33.9679209 L5.67658263,33.9139209 L5.38858263,33.9319209 L5.17258263,34.0399209 L5.00574922,33.9398208 L5.00574922,33.9398208 Z M12.7465826,21.6019209 C12.7465826,21.7459216 12.6505836,21.8779203 12.4585826,21.9979209 L12.4585826,22.0339209 C12.2305815,22.3099223 12.0325835,22.4659207 11.8645826,22.5019209 L11.5945826,22.8259209 L11.4145826,23.0599209 L11.0005826,23.1679209 L10.8205826,23.4199209 L10.5325826,23.5639209 L10.0645826,23.9779209 L9.77658263,23.7079209 L9.83058263,23.2579209 L10.0285826,22.9339209 C10.0405827,22.76592 10.1365817,22.6219215 10.3165826,22.5019209 L10.3165826,22.4299209 L10.4245826,22.3579209 L10.4425826,22.0879209 L10.7305826,22.0159209 L10.7305826,21.8539209 L10.9465826,21.8179209 C10.9945829,21.5779197 11.0965818,21.4039214 11.2525826,21.2959209 L11.3065826,21.2599209 L11.4145826,21.1519209 L11.5585826,20.7199209 C12.3505866,20.9119218 12.7465826,21.2059189 12.7465826,21.6019209 Z M14.5825826,31.1419209 C14.5825826,31.4179223 14.5345831,31.5919205 14.4385826,31.6639209 L14.3485826,31.7359209 L14.2585826,31.9879209 L13.9705826,32.0779209 C13.8865822,32.2699218 13.7605835,32.4199203 13.5925826,32.5279209 L13.4305826,32.5819209 L13.1965826,32.8339209 L12.9805826,32.8879209 C12.8965822,33.103922 12.7225839,33.2179208 12.4585826,33.2299209 C12.4345825,33.2659211 12.380583,33.3379203 12.2965826,33.4459209 C12.1165817,33.5659215 11.9305836,33.6379208 11.7385826,33.6619209 L11.6485826,33.6799209 L11.5225826,33.8419209 L11.1625826,33.8419209 L10.8745826,34.0579209 L10.1365826,33.5179209 L9.79458263,32.8159209 L9.77658263,31.9339209 L9.70458263,31.7179209 L9.92058263,30.1339209 L9.99258263,30.0619209 C9.95658245,29.88192 9.93858263,29.7079217 9.93858263,29.5399209 C9.93858263,29.4319203 9.97458227,29.2099226 10.0465826,28.8739209 L10.1365826,28.4599209 C10.1125825,28.3879205 10.064583,28.3099213 9.99258263,28.2259209 L10.1005826,27.8839209 L10.1365826,27.4699209 L10.1725826,27.4159209 C10.1245824,27.3079203 10.0945827,27.1879215 10.0825826,27.0559209 C10.0945827,27.0319208 10.1065826,26.9989211 10.1185826,26.9569209 C10.1305827,26.9149207 10.1365826,26.881921 10.1365826,26.8579209 C10.1005824,26.7499203 10.0825826,26.6479214 10.0825826,26.5519209 C10.0825826,26.2639194 10.244581,26.1319208 10.5685826,26.1559209 L10.7845826,26.1739209 C10.9285833,26.1019205 11.0185824,26.0659209 11.0545826,26.0659209 C11.2945838,26.0659209 11.4565822,26.1979196 11.5405826,26.4619209 L11.5405826,26.5339209 C11.5885829,26.6779216 11.6125826,26.8159202 11.6125826,26.9479209 C11.6125826,27.0559214 11.6005827,27.1339206 11.5765826,27.1819209 L11.4505826,28.0819209 L11.5765826,28.3339209 C11.5765826,28.549922 11.5045833,28.74192 11.3605826,28.9099209 L11.4325826,29.1259209 L11.1985826,29.8099209 C11.1745825,30.1099224 11.1445828,30.3379201 11.1085826,30.4939209 L11.1085826,30.9439209 L11.0005826,31.1959209 L11.0185826,31.3759209 L10.9825826,31.7899209 L11.0185826,32.1139209 L11.2885826,32.3299209 L11.5045826,32.2939209 L11.5405826,32.2399209 L11.6845826,32.2579209 L11.9185826,32.1859209 L12.1165826,31.9879209 L12.1885826,31.8799209 L12.3145826,31.8619209 L12.3505826,31.7719209 L12.4045826,31.6999209 L12.5125826,31.7719209 L12.6925826,31.5919209 L12.8005826,31.6099209 L12.8365826,31.4839209 L12.8725826,31.4839209 L12.9265826,31.3399209 L13.0885826,31.2679209 L13.4305826,31.1059209 C13.706584,30.9139199 13.9765813,30.8179209 14.2405826,30.8179209 L14.3125826,30.8179209 C14.4445833,30.9019213 14.5345824,31.0099202 14.5825826,31.1419209 Z M23.8485826,31.5379209 L23.7045826,32.2039209 L23.7405826,32.4199209 L23.7045826,32.4739209 C23.7525829,32.5819214 23.7765826,32.6899203 23.7765826,32.7979209 C23.7765826,32.8699212 23.7585828,32.9419205 23.7225826,33.0139209 L23.7225826,33.0499209 C23.7225826,33.1939216 23.6685832,33.7819157 23.5605826,34.8139209 L23.5245826,35.1559209 L23.5245826,35.2279209 L23.4885826,35.2999209 L23.4705826,35.3719209 L23.4885826,35.4799209 L23.4345826,35.5339209 L23.3805826,35.6419209 L23.3085826,35.6419209 L23.3265826,35.7319209 L23.2905826,35.8399209 C23.2905826,35.9239213 23.2605829,36.0079205 23.2005826,36.0919209 L23.1105826,36.3799209 C23.0745824,36.5119215 23.014583,36.6319203 22.9305826,36.7399209 C22.8465822,36.8959217 22.6965837,37.1059196 22.4805826,37.3699209 L22.1745826,37.6039209 L21.8325826,37.8919209 L21.5625826,38.0179209 L21.3465826,38.1799209 L21.2025826,38.2159209 C20.9625814,38.3479215 20.6925841,38.4259208 20.3925826,38.4499209 L20.2845826,38.4319209 L20.1225826,38.5039209 L20.1225826,38.5399209 C19.9185816,38.5879211 19.7445833,38.6119209 19.6005826,38.6119209 L18.8985826,38.6119209 L18.4665826,38.5219209 L18.0885826,38.5939209 L17.9085826,38.4319209 L17.3685826,38.3779209 L17.0085826,38.0539209 L16.7385826,37.9099209 C16.2585802,37.72992 15.982583,37.4119232 15.9105826,36.9559209 L15.9465826,36.8839209 L15.8925826,36.5959209 C16.0365833,36.3679197 16.168582,36.2479209 16.2885826,36.2359209 C16.3845831,36.1759206 16.4805821,36.1459209 16.5765826,36.1459209 L16.9095826,36.1999209 C17.1315837,36.2359211 17.3625814,36.2599208 17.6025826,36.2719209 L17.5665826,36.5419209 L17.7825826,36.6859209 L17.7825826,36.9019209 L17.6385826,37.0819209 L18.4665826,37.3339209 L18.8805826,37.2439209 L18.8805826,37.3699209 L19.0065826,37.3339209 L19.0425826,37.3339209 C19.0545827,37.3339209 19.1325819,37.3459208 19.2765826,37.3699209 L19.2945826,37.4419209 L19.4745826,37.3519209 C19.6185833,37.2799205 19.9065805,37.2439209 20.3385826,37.2439209 C20.410583,37.1959206 20.4705824,37.1479211 20.5185826,37.0999209 C20.5305827,37.0999209 20.5605824,37.1059208 20.6085826,37.1179209 L20.7165826,37.1179209 C20.788583,37.1179209 20.8605823,37.0459216 20.9325826,36.9019209 C20.9445827,36.9379211 20.9685824,36.9559209 21.0045826,36.9559209 C21.0285827,36.9559209 21.0585824,36.943921 21.0945826,36.9199209 C21.1305828,36.8959208 21.1545826,36.8839209 21.1665826,36.8839209 L21.2025826,36.8839209 L21.7785826,36.3799209 L22.0485826,35.9659209 L22.0665826,35.7319209 L22.2645826,35.4799209 L22.2825826,35.2459209 L22.3905826,35.0299209 L22.4805826,34.5439209 L22.6245826,34.0939209 C22.6125826,34.0219205 22.6065826,33.9139216 22.6065826,33.7699209 C22.6065826,33.5059196 22.6425823,33.2419222 22.7145826,32.9779209 L22.6425826,32.6899209 L22.6425826,31.8079209 L22.4985826,31.5019209 L22.4985826,30.9979209 L22.3545826,30.6199209 L22.3725826,30.0439209 L22.3545826,29.9539209 L22.2285826,29.9899209 L22.1205826,30.2599209 L21.8505826,30.4939209 L21.5265826,31.0159209 L21.0585826,31.3399209 L20.5545826,31.8619209 C20.2665812,32.1619224 19.9305845,32.4259197 19.5465826,32.6539209 L19.3665826,32.8699209 L19.0965826,33.0319209 L18.8445826,33.1579209 L18.6105826,33.3919209 L18.3225826,33.5359209 C18.2265821,33.6319214 18.0885835,33.6979207 17.9085826,33.7339209 C17.6445813,33.9139218 17.3445843,34.0039209 17.0085826,34.0039209 L16.8105826,34.0039209 C16.7505823,34.0159209 16.6665832,34.0219209 16.5585826,34.0219209 C16.4625821,34.0219209 16.3905829,34.0159209 16.3425826,34.0039209 L16.0185826,33.9859209 L15.5505826,33.5359209 L15.2085826,33.0859209 L15.0645826,32.7079209 L14.9385826,31.9879209 L15.0105826,31.4659209 L15.1905826,30.8539209 L15.1545826,30.6559209 L15.3165826,30.0979209 L15.4785826,29.7739209 C15.5265829,29.6179201 15.5505826,29.431922 15.5505826,29.2159209 L15.9465826,28.4779209 C15.9825828,28.3819204 16.0725819,28.2799214 16.2165826,28.1719209 L16.3965826,27.8659209 L16.6125826,27.6319209 C16.6605829,27.4759201 16.7565819,27.3379215 16.9005826,27.2179209 C16.9965831,27.1699206 17.0655824,27.0799215 17.1075826,26.9479209 C17.1495828,26.8159202 17.3745806,26.6959214 17.7825826,26.5879209 L17.6925826,26.6059209 L17.7825826,26.5699209 C17.8185828,26.5099206 17.902582,26.3899218 18.0345826,26.2099209 L18.2505826,26.2459209 L18.4125826,26.1379209 C18.6045836,25.96992 18.8085815,25.8859209 19.0245826,25.8859209 L19.1505826,25.8859209 L19.6185826,25.7059209 L19.8885826,25.7959209 L20.2125826,25.7959209 L20.4105826,25.9039209 C20.5305832,25.9159209 20.6265823,25.9699204 20.6985826,26.0659209 L20.9505826,26.3179209 L21.0225826,26.3539209 L21.0585826,26.4259209 L21.2205826,26.6779209 L21.2385826,26.7679209 L21.1845826,27.0559209 L21.2205826,27.2539209 L20.9865826,27.6139209 L20.4645826,27.6859209 L20.1945826,27.2539209 L19.9425826,27.1639209 L19.8165826,27.0379209 L19.6365826,27.0379209 C19.5765823,27.061921 19.4505836,27.1219204 19.2585826,27.2179209 L19.2405826,27.3619209 L18.7905826,27.3619209 C18.670582,27.5419218 18.5385833,27.6379208 18.3945826,27.6499209 C18.3225823,27.6979211 18.250583,27.7399207 18.1785826,27.7759209 L18.0345826,28.1179209 L17.9085826,28.1359209 L17.8905826,28.2979209 L17.6385826,28.2979209 L17.4045826,28.6759209 L17.2065826,28.8019209 L17.1345826,29.0539209 L16.8645826,29.4319209 L16.8285826,29.7919209 L16.6125826,30.0079209 L16.4145826,30.7819209 L16.2705826,30.9259209 L16.2885826,31.1239209 L16.0725826,31.8079209 L16.1265826,32.0239209 L16.1085826,32.2399209 C16.192583,32.3599215 16.2345826,32.4859202 16.2345826,32.6179209 L16.3605826,32.6539209 L16.4145826,32.7619209 C16.6185836,32.7619209 16.7505823,32.7859206 16.8105826,32.8339209 C16.9185832,32.7499205 17.2125802,32.6599214 17.6925826,32.5639209 C17.764583,32.39592 17.866582,32.2729213 17.9985826,32.1949209 C18.1305833,32.1169205 18.4005806,31.969922 18.8085826,31.7539209 L18.8625826,31.7719209 C18.8625826,31.6759204 18.8985823,31.5859213 18.9705826,31.5019209 C19.1505835,31.4299205 19.2585824,31.381921 19.2945826,31.3579209 C19.3905831,31.2979206 19.4445826,31.2199214 19.4565826,31.1239209 L19.7445826,31.0519209 L19.9245826,30.8899209 L20.3745826,30.2779209 L20.5005826,30.3499209 C20.5125827,30.3139207 20.6445814,30.1519223 20.8965826,29.8639209 L21.3285826,29.3599209 L21.3645826,29.1259209 C21.5085833,28.9939202 21.6765817,28.6099241 21.8685826,27.9739209 L21.7785826,27.5959209 L21.6345826,27.3439209 L21.7425826,27.0739209 L21.5985826,26.8759209 L21.5625826,26.6239209 L21.5085826,26.4439209 L21.6885826,26.1199209 C21.8805836,26.0239204 22.0185822,25.9759209 22.1025826,25.9759209 C22.2105832,25.9759209 22.3545817,26.0299203 22.5345826,26.1379209 L22.6605826,26.3719209 L22.8945826,26.5519209 L22.9305826,26.9479209 C22.9665828,27.0559214 23.0085824,27.2179198 23.0565826,27.4339209 C23.1165829,27.5419214 23.1465826,27.6679202 23.1465826,27.8119209 L23.1465826,27.9379209 L23.1825826,28.0459209 L23.3805826,28.3339209 L23.3265826,28.6579209 L23.4345826,28.8019209 C23.4705828,28.8859213 23.4885826,28.9759204 23.4885826,29.0719209 C23.4885826,29.1559213 23.4825827,29.2219206 23.4705826,29.2699209 L23.6325826,29.3239209 L23.5065826,29.7739209 L23.5785826,30.1159209 C23.6385829,30.2359215 23.6685826,30.3439204 23.6685826,30.4399209 C23.6685826,30.5359214 23.6385829,30.6559202 23.5785826,30.7999209 L23.6865826,30.8899209 L23.8485826,31.5379209 Z M28.6505826,30.0619209 L28.9792746,29.6910889 C28.9179148,29.7593322 28.8493655,29.8353903 28.7736282,29.9192614 C28.7686441,29.9247807 28.7636289,29.9303339 28.7585826,29.9359209 L28.7585826,29.9719209 L28.7945826,29.8459209 L29.0285826,29.5759209 L29.1905826,29.2699209 L29.1905826,29.0899209 L29.4605826,28.9999209 L29.4965826,28.7659209 L29.5685826,28.6939209 L29.5865826,28.6039209 L29.5865826,28.4779209 L29.8385826,28.2259209 L29.8385826,28.1359209 C29.8265826,28.0999207 29.8205826,28.0759209 29.8205826,28.0639209 C29.8205826,27.8479198 29.9405814,27.727921 30.1805826,27.7039209 C30.2885832,27.4879198 30.4505815,27.3619211 30.6665826,27.3259209 L30.7745826,27.1639209 L30.8105826,27.1279209 C30.9185832,26.9719201 31.0805815,26.8639212 31.2965826,26.8039209 L31.4585826,26.6059209 L31.8905826,26.6059209 L32.1065826,26.8579209 L32.3045826,26.9659209 L32.3225826,27.0199209 L32.4485826,27.0559209 L32.4845826,27.4339209 L32.7905826,27.6139209 L32.6645826,28.0099209 L32.8625826,28.4419209 L32.8625826,28.9459209 L33.0065826,29.6299209 L33.0425826,30.2779209 L33.2045826,30.6559209 L33.3125826,31.1239209 C33.384583,31.1959212 33.4385824,31.2979202 33.4745826,31.4299209 L33.7985826,31.5199209 L33.7985826,31.8799209 L33.9785826,32.0779209 L33.9785826,32.1319209 L34.0505826,32.1499209 L34.1225826,32.2579209 L34.1945826,32.1679209 C34.1705825,32.1679209 34.2005822,32.1739208 34.2845826,32.1859209 C34.4165833,32.1859209 34.5545819,32.0659221 34.6985826,31.8259209 L34.9145826,31.7719209 L34.9685826,31.6819209 C35.0045828,31.5859204 35.0765821,31.5139211 35.1845826,31.4659209 L35.3105826,31.4839209 L35.3825826,31.4119209 L35.4005826,31.3219209 L35.4545826,31.2499209 C35.5745832,31.1659205 35.6525824,31.0399217 35.6885826,30.8719209 L35.8865826,30.6559209 L35.9225826,30.4939209 L36.0485826,30.2059209 L36.3905826,30.0799209 L36.8765826,30.2419209 L37.0385826,30.7639209 C37.0385826,30.7759209 37.0445826,30.7879208 37.0565826,30.7999209 L37.0565826,30.8539209 C37.0565826,30.9499214 36.9785834,31.0759201 36.8225826,31.2319209 L36.6245826,31.5379209 L36.5525826,31.8979209 L36.3905826,31.9519209 L36.3545826,32.0599209 C36.1625817,32.1199212 36.024583,32.2699197 35.9405826,32.5099209 C35.808582,32.6779217 35.6645834,32.7979205 35.5085826,32.8699209 C35.4485823,32.9299212 35.3945829,32.9719208 35.3465826,32.9959209 L35.2565826,33.1579209 L35.0945826,33.1939209 L34.6265826,33.4459209 L34.0145826,33.5179209 L33.8525826,33.4819209 L33.5825826,33.5359209 L33.4745826,33.4099209 C33.3065818,33.3259205 33.186583,33.2419213 33.1145826,33.1579209 C32.9705819,33.1219207 32.862583,33.0079218 32.7905826,32.8159209 C32.5865816,32.5759197 32.4845826,32.3839216 32.4845826,32.2399209 L32.4845826,32.1859209 L32.3585826,31.9699209 L32.3225826,31.9339209 L32.2145826,31.6099209 L32.0525826,31.2679209 L32.0885826,30.8539209 L31.9085826,30.6199209 L31.6385826,29.0719209 C31.6025824,28.8679199 31.5845826,28.6939216 31.5845826,28.5499209 L31.5485826,28.4599209 L31.4585826,28.3339209 L31.2965826,28.5499209 L30.6485826,29.2339209 L30.4145826,29.6119209 L30.2885826,29.8639209 L30.0905826,30.1519209 L29.9465826,30.2959209 L29.9645826,30.3859209 L29.7125826,30.9439209 L29.5685826,31.1239209 L29.3885826,31.1599209 L29.2265826,31.3219209 C29.2265826,31.5619221 29.1125838,31.7179205 28.8845826,31.7899209 L28.8485826,31.8259209 C28.7405821,32.0899222 28.6205833,32.2519206 28.4885826,32.3119209 L28.3265826,32.5639209 C28.0625813,32.8039221 27.888583,32.9539206 27.8045826,33.0139209 C27.7685824,33.1339215 27.7025831,33.2359205 27.6065826,33.3199209 C27.5825825,33.3559211 27.5405829,33.4039206 27.4805826,33.4639209 C27.4445824,33.6679219 27.2765841,33.8119205 26.9765826,33.8959209 L26.7785826,33.9499209 C26.5385814,33.9379208 26.3405834,33.7999222 26.1845826,33.5359209 L25.9145826,33.0859209 L26.0045826,32.6539209 L25.9685826,32.4199209 L26.0045826,32.3839209 L26.0225826,32.1499209 L25.8245826,31.7179209 L25.9685826,31.5019209 L25.8965826,31.2679209 L26.0225826,31.0159209 L26.0585826,30.6019209 L25.9865826,30.5299209 L26.1305826,30.2779209 L26.0765826,30.1519209 L26.0585826,29.8639209 L26.1305826,29.3239209 C26.1065825,29.2039203 26.0945826,29.1259211 26.0945826,29.0899209 C26.0945826,29.0659208 26.1005826,29.041921 26.1125826,29.0179209 L26.1125826,28.9459209 L26.0225826,28.8019209 L26.0765826,28.2259209 L26.0585826,28.0279209 L26.1125826,27.7399209 L26.0405826,27.2539209 L26.3645826,26.7139209 C26.7365845,26.7739212 26.9945819,26.8549204 27.1385826,26.9569209 C27.2825833,27.0589214 27.3545826,27.2419196 27.3545826,27.5059209 L27.3545826,27.6679209 L27.4805826,27.8839209 L27.4265826,28.2619209 L27.4985826,28.9819209 L27.3725826,29.3239209 L27.4265826,29.7019209 L27.4265826,30.0079209 L27.2825826,30.2059209 L27.3905826,30.5299209 L27.2825826,30.7279209 L27.2645826,30.9259209 L27.3725826,31.1239209 L27.2285826,31.5019209 L27.1745826,31.6639209 L27.1745826,31.8259209 L27.2645826,32.0059209 L27.5705826,31.6999209 C27.5705826,31.51992 27.630582,31.3999212 27.7505826,31.3399209 C27.7625827,31.2199203 27.8105822,31.1299212 27.8945826,31.0699209 L27.8405826,31.0159209 L28.0745826,30.7999209 L28.1285826,30.7279209 L28.1285826,30.5659209 L28.4165826,30.3499209 L28.4885826,30.1699209 L28.6505826,30.0619209 Z M51.4665826,32.7259209 C51.4665826,32.8699216 51.3585837,33.0439199 51.1425826,33.2479209 L50.9985826,33.3019209 L50.8725826,33.4639209 L50.5485826,33.5539209 C50.4885823,33.6379213 50.4285829,33.6799209 50.3685826,33.6799209 C50.3565825,33.6799209 50.3445827,33.6739209 50.3325826,33.6619209 L50.2785826,33.6619209 C50.0145813,33.7939215 49.6965845,33.8599209 49.3245826,33.8599209 L49.1805826,33.8599209 L48.7305826,33.7699209 L48.4245826,33.6259209 L47.7405826,33.0499209 L47.5965826,32.5639209 L47.3085826,32.3299209 C47.3445828,32.2819206 47.3625826,32.2039214 47.3625826,32.0959209 C47.3625826,32.0239205 47.3145831,31.9039217 47.2185826,31.7359209 L47.2725826,31.3039209 L47.2725826,31.2319209 C47.2725826,31.0879202 47.230583,30.901922 47.1465826,30.6739209 L47.2545826,30.1339209 L47.0205826,30.6019209 L46.7505826,30.6379209 L46.7145826,31.0159209 C46.6185821,31.0639211 46.5045833,31.0879209 46.3725826,31.0879209 L46.1745826,31.5199209 L45.9405826,31.7899209 C45.8445821,31.8979214 45.760583,31.9579208 45.6885826,31.9699209 L45.6345826,32.0059209 L44.9865826,32.6719209 L44.9145826,32.6719209 L44.5725826,33.0679209 L44.2485826,33.2299209 L44.0685826,33.4639209 L43.6545826,33.5899209 L43.0605826,33.8239209 L42.7005826,33.6439209 C42.4605814,33.6439209 42.2925831,33.535922 42.1965826,33.3199209 L42.0345826,33.2299209 C42.0345826,33.1939207 42.0405825,33.1459212 42.0525826,33.0859209 L42.0525826,32.9599209 L41.7645826,32.7079209 L41.8365826,32.5999209 L41.6205826,32.0959209 L41.6925826,32.0239209 L41.6565826,31.9879209 L41.6565826,31.8799209 C41.6445825,31.8439207 41.6385826,31.813921 41.6385826,31.7899209 C41.6385826,31.6579202 41.6565824,31.5319215 41.6925826,31.4119209 L41.7105826,30.9439209 L41.6385826,30.5659209 C41.6985829,30.4699204 41.7285826,30.3859212 41.7285826,30.3139209 C41.7285826,30.2299205 41.692583,30.1519212 41.6205826,30.0799209 L41.8185826,29.9359209 L41.8185826,29.7199209 L41.7465826,29.1259209 L41.9445826,27.9739209 C41.9445826,27.7819199 41.8905831,27.4999227 41.7825826,27.1279209 C41.8185828,26.743919 42.0705803,26.5339211 42.5385826,26.4979209 L42.6825826,26.5519209 L42.9345826,26.5879209 L43.2585826,26.9479209 L43.1505826,27.4159209 L43.1145826,28.1899209 L43.1685826,28.7839209 L43.0605826,28.9999209 L43.1145826,29.1439209 L43.0245826,29.4319209 L43.0245826,29.6119209 L42.9885826,29.6659209 C43.0005827,29.7019211 43.0065826,29.7559205 43.0065826,29.8279209 C43.0065826,29.9839217 42.9825828,30.14592 42.9345826,30.3139209 L43.0245826,30.4399209 L42.9525826,30.7099209 L42.9885826,30.9259209 L42.9885826,31.1779209 C43.0485829,31.2499212 43.0785826,31.3399203 43.0785826,31.4479209 C43.0785826,31.5439214 43.0545828,31.6399204 43.0065826,31.7359209 L43.0065826,31.8079209 C43.0665829,32.0119219 43.0965826,32.1439206 43.0965826,32.2039209 L43.2585826,32.3659209 C43.330583,32.3179206 43.4145821,32.2579212 43.5105826,32.1859209 C43.5465828,32.0659203 43.6305819,31.9879211 43.7625826,31.9519209 L43.7625826,31.7719209 C43.834583,31.7719209 43.9485818,31.7539211 44.1045826,31.7179209 L44.1405826,31.5559209 L44.4465826,31.4299209 L44.5005826,31.3759209 C44.584583,31.2919205 44.7225816,31.2139212 44.9145826,31.1419209 L44.9145826,31.0699209 L45.2565826,30.8179209 C45.340583,30.5899197 45.4905815,30.4399212 45.7065826,30.3679209 C45.8385833,30.2359202 45.9285824,30.157921 45.9765826,30.1339209 L46.2105826,29.8279209 L46.2105826,29.7739209 L46.2825826,29.7379209 L46.4445826,29.6659209 L46.5345826,29.4139209 L46.9125826,29.2519209 L46.9845826,29.2339209 L47.1105826,29.1079209 L47.1105826,28.9459209 L47.2185826,28.9099209 C47.2545828,28.7179199 47.3505818,28.5739214 47.5065826,28.4779209 L47.7765826,27.8659209 L47.8665826,27.5419209 L47.9025826,27.4699209 L47.9745826,27.4699209 L48.1005826,27.3799209 L47.9925826,27.3439209 C48.1245833,27.1279198 48.2265822,26.8999221 48.2985826,26.6599209 L48.8205826,26.6419209 L49.2345826,26.9839209 L49.4145826,27.2719209 L49.2165826,28.0459209 L48.9465826,28.4059209 L48.7305826,29.1079209 L48.5505826,29.2159209 L48.5505826,29.4859209 L48.4425826,29.6839209 L48.4965826,30.0079209 L48.3525826,30.1339209 L48.4245826,30.7099209 L48.4605826,31.5199209 L48.5505826,31.5199209 L48.5505826,31.9879209 L48.8025826,32.2939209 L49.0365826,32.4199209 L49.0545826,32.5099209 C49.138583,32.5219209 49.240582,32.5519206 49.3605826,32.5999209 L49.8105826,32.6359209 L50.0805826,32.5639209 L50.5665826,32.3299209 C50.6625831,32.2819206 50.7825819,32.2579209 50.9265826,32.2579209 C51.2865844,32.2579209 51.4665826,32.4139193 51.4665826,32.7259209 Z M59.1125826,31.1059209 L58.8965826,31.6459209 L59.0405826,32.0059209 L58.9685826,32.1139209 L58.8965826,32.4019209 L58.7525826,32.6539209 L58.6805826,32.6899209 L58.6445826,33.0319209 L58.3205826,33.0679209 C58.1525818,33.2239217 57.9785835,33.3499204 57.7985826,33.4459209 L57.6905826,33.4279209 L57.4205826,33.5179209 L57.2585826,33.5359209 L56.9165826,33.6619209 L56.5205826,33.4819209 L56.4665826,33.4459209 L56.1605826,33.4639209 L56.2325826,33.4999209 L55.7285826,33.4279209 L55.2785826,33.5359209 L55.0985826,33.3739209 L54.7205826,33.4099209 L54.5765826,33.3019209 C54.5645825,33.3019209 54.516583,33.3079208 54.4325826,33.3199209 L54.4325826,33.4279209 C54.4325826,33.5359214 54.4145828,33.6439203 54.3785826,33.7519209 L54.4325826,34.0939209 L54.2885826,34.2739209 C54.3125827,34.5379222 54.3245826,34.7359202 54.3245826,34.8679209 L54.2705826,35.3179209 L54.3425826,36.0019209 L54.1985826,36.1819209 L54.2705826,36.4519209 L54.2165826,36.6319209 L54.3245826,36.6859209 L54.3245826,36.9559209 C54.3485827,37.0279212 54.3605826,37.0819207 54.3605826,37.1179209 C54.3605826,37.2259214 54.2945833,37.3159205 54.1625826,37.3879209 L54.2345826,37.6399209 L54.1445826,37.7839209 L54.1085826,38.5039209 C54.0725824,39.3439251 53.8865843,39.7639209 53.5505826,39.7639209 C53.4785822,39.7639209 53.2685843,39.7159214 52.9205826,39.6199209 L52.9745826,39.0799209 L52.8665826,38.2879209 L53.0465826,37.9639209 L53.0645826,37.5679209 L52.9925826,37.0279209 L53.1365826,36.7939209 L52.9745826,36.3799209 L53.1005826,36.1639209 L52.9925826,35.8039209 L53.1365826,35.4799209 C53.1125825,35.4079205 53.0675829,35.3419212 53.0015826,35.2819209 C52.9355823,35.2219206 52.9025826,35.179921 52.9025826,35.1559209 C52.9025826,35.1199207 52.9445822,35.0839211 53.0285826,35.0479209 C53.0165825,35.0119207 53.0105826,34.9519213 53.0105826,34.8679209 C53.0105826,34.7119201 53.0465822,34.5079221 53.1185826,34.2559209 L53.0105826,34.0759209 L53.0645826,33.8419209 L52.9385826,33.6799209 L53.1005826,33.4819209 L53.0285826,32.9599209 L53.1365826,32.2219209 L53.0105826,31.9879209 L53.2085826,31.6459209 L52.9925826,31.4479209 L53.1185826,31.1059209 L52.9925826,31.0159209 L53.0105826,30.7099209 L53.1185826,30.3319209 L53.1185826,30.2599209 L53.1365826,30.1879209 L53.1365826,29.9899209 L53.1545826,29.9179209 L53.0645826,29.6299209 L53.1545826,29.3239209 L53.0645826,29.0899209 L53.1365826,28.8199209 L53.0645826,28.7479209 L53.1185826,28.3879209 L53.0645826,28.1899209 L53.1005826,28.0099209 L53.0465826,27.8839209 L52.3985826,28.1719209 L52.3985826,28.0639209 L52.2725826,28.0819209 L52.0745826,28.2619209 L51.9125826,28.2619209 L51.6965826,28.5499209 L51.5165826,28.4779209 L51.4265826,28.6579209 C50.8385797,28.3099191 50.5445826,28.0339219 50.5445826,27.8299209 C50.5445826,27.6859202 50.5985821,27.5659214 50.7065826,27.4699209 L50.6885826,27.1999209 C51.0245843,27.0079199 51.3425811,26.9059209 51.6425826,26.8939209 L51.7685826,26.7679209 L52.3445826,26.5339209 L52.4705826,26.4079209 L52.9745826,26.4439209 L53.0645826,26.4079209 L53.2265826,25.7779209 L53.6585826,25.8679209 L53.9465826,26.3359209 L54.1085826,26.1739209 L54.4325826,26.4079209 C54.5885834,26.4079209 54.7385819,26.4379206 54.8825826,26.4979209 L54.9725826,26.6599209 L55.0985826,26.6059209 L55.2425826,26.7139209 C55.326583,26.7139209 55.3925824,26.7199208 55.4405826,26.7319209 L55.4225826,26.8399209 L55.8185826,26.7139209 L56.0165826,26.9299209 L56.3585826,27.0379209 L56.5925826,27.3259209 L57.0245826,27.5959209 L57.0425826,27.6319209 L57.3845826,27.7399209 L57.3845826,27.8479209 C57.4805831,27.9199212 57.5525824,28.0159203 57.6005826,28.1359209 L57.7445826,28.2259209 L57.8525826,28.4239209 L58.0685826,28.4239209 L58.0685826,28.7839209 L58.1945826,28.9099209 L58.2305826,29.0359209 L58.4105826,29.0719209 C58.4345827,29.3479223 58.5125819,29.5819199 58.6445826,29.7739209 L58.6445826,29.8999209 L58.8245826,30.0799209 L58.7885826,30.3679209 L58.9325826,30.6919209 L58.9865826,31.0699209 L59.1125826,31.1059209 Z M57.7625826,31.3759209 L57.7445826,31.2859209 L57.7625826,31.2139209 L57.6545826,30.8899209 L57.7265826,30.7279209 L57.6545826,30.5839209 L57.6365826,30.4039209 L57.4925826,30.1159209 L57.4205826,29.9179209 L57.1505826,29.4499209 L56.9345826,29.2699209 L56.8085826,28.9639209 L56.6465826,28.8919209 L56.3585826,28.5139209 L56.0705826,28.5499209 L55.8545826,28.2619209 L55.6745826,28.2979209 L55.5485826,28.0639209 L55.4765826,28.0459209 L55.2245826,28.0459209 L55.0445826,28.1359209 L54.9005826,27.9919209 L54.7205826,28.0279209 L54.6485826,27.9019209 L54.3245826,27.8479209 L54.3425826,28.0639209 L54.3065826,28.4059209 L54.3785826,28.6039209 L54.6305826,28.8379209 L54.4325826,29.2699209 L54.4505826,29.5399209 L54.3605826,30.0799209 C54.3965828,30.307922 54.4685821,30.4999201 54.5765826,30.6559209 L54.5045826,30.8539209 C54.5165827,30.8659209 54.5225826,30.8779208 54.5225826,30.8899209 C54.5225826,30.9259211 54.4745831,30.9799205 54.3785826,31.0519209 L54.5045826,31.2139209 L54.4145826,31.4299209 L54.3785826,31.6639209 L54.4325826,31.9159209 L54.4145826,32.1499209 L54.7925826,32.1499209 C54.8405828,32.1259208 54.9065822,32.1139209 54.9905826,32.1139209 C55.0985831,32.1139209 55.1945822,32.1499205 55.2785826,32.2219209 C55.2905827,32.2219209 55.3145824,32.2159209 55.3505826,32.2039209 L55.4045826,32.2039209 C55.4405828,32.2039209 55.5065821,32.2159208 55.6025826,32.2399209 C55.674583,32.2039207 55.7405823,32.1859209 55.8005826,32.1859209 C55.8965831,32.1859209 55.9865822,32.2099206 56.0705826,32.2579209 L56.2325826,32.2579209 L56.3765826,32.2939209 L56.7365826,32.1859209 L57.0245826,32.3659209 C57.1325831,32.4019211 57.1745827,32.4199209 57.1505826,32.4199209 L57.4925826,32.0779209 L57.5285826,31.8259209 L57.6185826,31.7899209 L57.5645826,31.6459209 L57.6905826,31.5019209 L57.7625826,31.3759209 Z M67.4385826,30.0619209 L67.7672746,29.6910889 C67.7059147,29.7593322 67.6373655,29.8353903 67.5616281,29.9192614 C67.5566441,29.9247807 67.5516289,29.9303339 67.5465826,29.9359209 L67.5465826,29.9719209 L67.5825826,29.8459209 L67.8165826,29.5759209 L67.9785826,29.2699209 L67.9785826,29.0899209 L68.2485826,28.9999209 L68.2845826,28.7659209 L68.3565826,28.6939209 L68.3745826,28.6039209 L68.3745826,28.4779209 L68.6265826,28.2259209 L68.6265826,28.1359209 C68.6145825,28.0999207 68.6085826,28.0759209 68.6085826,28.0639209 C68.6085826,27.8479198 68.7285814,27.727921 68.9685826,27.7039209 C69.0765831,27.4879198 69.2385815,27.3619211 69.4545826,27.3259209 L69.5625826,27.1639209 L69.5985826,27.1279209 C69.7065831,26.9719201 69.8685815,26.8639212 70.0845826,26.8039209 L70.2465826,26.6059209 L70.6785826,26.6059209 L70.8945826,26.8579209 L71.0925826,26.9659209 L71.1105826,27.0199209 L71.2365826,27.0559209 L71.2725826,27.4339209 L71.5785826,27.6139209 L71.4525826,28.0099209 L71.6505826,28.4419209 L71.6505826,28.9459209 L71.7945826,29.6299209 L71.8305826,30.2779209 L71.9925826,30.6559209 L72.1005826,31.1239209 C72.1725829,31.1959212 72.2265824,31.2979202 72.2625826,31.4299209 L72.5865826,31.5199209 L72.5865826,31.8799209 L72.7665826,32.0779209 L72.7665826,32.1319209 L72.8385826,32.1499209 L72.9105826,32.2579209 L72.9825826,32.1679209 C72.9585825,32.1679209 72.9885822,32.1739208 73.0725826,32.1859209 C73.2045832,32.1859209 73.3425819,32.0659221 73.4865826,31.8259209 L73.7025826,31.7719209 L73.7565826,31.6819209 C73.7925828,31.5859204 73.864582,31.5139211 73.9725826,31.4659209 L74.0985826,31.4839209 L74.1705826,31.4119209 L74.1885826,31.3219209 L74.2425826,31.2499209 C74.3625832,31.1659205 74.4405824,31.0399217 74.4765826,30.8719209 L74.6745826,30.6559209 L74.7105826,30.4939209 L74.8365826,30.2059209 L75.1785826,30.0799209 L75.6645826,30.2419209 L75.8265826,30.7639209 C75.8265826,30.7759209 75.8325825,30.7879208 75.8445826,30.7999209 L75.8445826,30.8539209 C75.8445826,30.9499214 75.7665834,31.0759201 75.6105826,31.2319209 L75.4125826,31.5379209 L75.3405826,31.8979209 L75.1785826,31.9519209 L75.1425826,32.0599209 C74.9505816,32.1199212 74.812583,32.2699197 74.7285826,32.5099209 C74.5965819,32.6779217 74.4525834,32.7979205 74.2965826,32.8699209 C74.2365823,32.9299212 74.1825828,32.9719208 74.1345826,32.9959209 L74.0445826,33.1579209 L73.8825826,33.1939209 L73.4145826,33.4459209 L72.8025826,33.5179209 L72.6405826,33.4819209 L72.3705826,33.5359209 L72.2625826,33.4099209 C72.0945817,33.3259205 71.9745829,33.2419213 71.9025826,33.1579209 C71.7585819,33.1219207 71.6505829,33.0079218 71.5785826,32.8159209 C71.3745816,32.5759197 71.2725826,32.3839216 71.2725826,32.2399209 L71.2725826,32.1859209 L71.1465826,31.9699209 L71.1105826,31.9339209 L71.0025826,31.6099209 L70.8405826,31.2679209 L70.8765826,30.8539209 L70.6965826,30.6199209 L70.4265826,29.0719209 C70.3905824,28.8679199 70.3725826,28.6939216 70.3725826,28.5499209 L70.3365826,28.4599209 L70.2465826,28.3339209 L70.0845826,28.5499209 L69.4365826,29.2339209 L69.2025826,29.6119209 L69.0765826,29.8639209 L68.8785826,30.1519209 L68.7345826,30.2959209 L68.7525826,30.3859209 L68.5005826,30.9439209 L68.3565826,31.1239209 L68.1765826,31.1599209 L68.0145826,31.3219209 C68.0145826,31.5619221 67.9005837,31.7179205 67.6725826,31.7899209 L67.6365826,31.8259209 C67.528582,32.0899222 67.4085832,32.2519206 67.2765826,32.3119209 L67.1145826,32.5639209 C66.8505813,32.8039221 66.676583,32.9539206 66.5925826,33.0139209 C66.5565824,33.1339215 66.4905831,33.2359205 66.3945826,33.3199209 C66.3705825,33.3559211 66.3285829,33.4039206 66.2685826,33.4639209 C66.2325824,33.6679219 66.0645841,33.8119205 65.7645826,33.8959209 L65.5665826,33.9499209 C65.3265814,33.9379208 65.1285834,33.7999222 64.9725826,33.5359209 L64.7025826,33.0859209 L64.7925826,32.6539209 L64.7565826,32.4199209 L64.7925826,32.3839209 L64.8105826,32.1499209 L64.6125826,31.7179209 L64.7565826,31.5019209 L64.6845826,31.2679209 L64.8105826,31.0159209 L64.8465826,30.6019209 L64.7745826,30.5299209 L64.9185826,30.2779209 L64.8645826,30.1519209 L64.8465826,29.8639209 L64.9185826,29.3239209 C64.8945825,29.2039203 64.8825826,29.1259211 64.8825826,29.0899209 C64.8825826,29.0659208 64.8885825,29.041921 64.9005826,29.0179209 L64.9005826,28.9459209 L64.8105826,28.8019209 L64.8645826,28.2259209 L64.8465826,28.0279209 L64.9005826,27.7399209 L64.8285826,27.2539209 L65.1525826,26.7139209 C65.5245844,26.7739212 65.7825819,26.8549204 65.9265826,26.9569209 C66.0705833,27.0589214 66.1425826,27.2419196 66.1425826,27.5059209 L66.1425826,27.6679209 L66.2685826,27.8839209 L66.2145826,28.2619209 L66.2865826,28.9819209 L66.1605826,29.3239209 L66.2145826,29.7019209 L66.2145826,30.0079209 L66.0705826,30.2059209 L66.1785826,30.5299209 L66.0705826,30.7279209 L66.0525826,30.9259209 L66.1605826,31.1239209 L66.0165826,31.5019209 L65.9625826,31.6639209 L65.9625826,31.8259209 L66.0525826,32.0059209 L66.3585826,31.6999209 C66.3585826,31.51992 66.418582,31.3999212 66.5385826,31.3399209 C66.5505826,31.2199203 66.5985822,31.1299212 66.6825826,31.0699209 L66.6285826,31.0159209 L66.8625826,30.7999209 L66.9165826,30.7279209 L66.9165826,30.5659209 L67.2045826,30.3499209 L67.2765826,30.1699209 L67.4385826,30.0619209 Z M82.3565826,29.5579209 L82.2485826,29.8819209 C82.2485826,30.1939224 82.2305828,30.43992 82.1945826,30.6199209 L82.0865826,30.7999209 L82.0865826,30.9979209 L81.9965826,31.1239209 L81.9425826,31.3759209 L81.7445826,31.5739209 L81.6185826,32.0239209 L81.4745826,32.0779209 L81.4025826,32.2759209 L81.1865826,32.4019209 L81.0425826,32.7079209 L80.8265826,32.8159209 L80.8085826,33.0319209 L80.4665826,33.1579209 C80.3105818,33.373922 80.1185837,33.5119206 79.8905826,33.5719209 L79.8185826,33.5899209 C79.6505817,33.8419221 79.428584,33.9679209 79.1525826,33.9679209 C79.032582,34.0399212 78.8945834,34.0759209 78.7385826,34.0759209 L78.5585826,34.2019209 L78.3785826,34.2559209 L78.1445826,34.4359209 L77.9105826,34.4179209 L77.6585826,34.4899209 L77.3525826,34.3639209 L76.5785826,34.3099209 L76.3085826,33.8959209 L75.9125826,33.4819209 L76.0025826,33.1939209 L75.7325826,32.5819209 L75.8585826,32.3479209 L75.7685826,31.9159209 L75.8585826,31.6459209 C75.8345825,31.47792 75.8225826,31.3579212 75.8225826,31.2859209 C75.8225826,31.0579197 75.882582,30.8899214 76.0025826,30.7819209 C76.0145826,30.6619203 76.0925819,30.4639223 76.2365826,30.1879209 L76.3265826,30.1879209 L76.2905826,30.0619209 L76.3445826,29.8099209 L76.3445826,29.5399209 C76.4405831,29.4319203 76.4945825,29.3599211 76.5065826,29.3239209 L76.4525826,29.0719209 L76.4525826,28.9999209 C76.536583,28.83192 76.5785826,28.6579218 76.5785826,28.4779209 L76.9565826,27.9559209 L77.0015826,27.9199209 C77.0315827,27.8959208 77.0585825,27.871921 77.0825826,27.8479209 L77.0645826,27.7759209 L77.1365826,27.7759209 L77.4065826,27.4699209 L77.4245826,27.0559209 L77.8745826,26.8939209 C78.0425834,26.7859203 78.1505823,26.6059221 78.1985826,26.3539209 L78.4325826,26.3539209 C78.5645832,26.2819205 78.684582,26.2459209 78.7925826,26.2459209 C78.9005831,26.2459209 79.0025821,26.2699206 79.0985826,26.3179209 L79.2965826,26.3359209 L79.7645826,26.1559209 L80.0165826,26.3899209 L80.2145826,26.5159209 L80.3585826,26.5159209 L80.6285826,26.6599209 L80.7725826,26.6599209 C80.9285834,26.8039216 81.1085816,27.0019196 81.3125826,27.2539209 L81.3485826,27.3439209 L81.4745826,27.4159209 L81.8525826,27.9019209 L82.1945826,28.7479209 L82.1945826,28.9279209 L82.3565826,29.5579209 Z M81.1685826,29.9899209 L81.1505826,29.8999209 C81.0665822,29.8159205 81.0185826,29.7259214 81.0065826,29.6299209 L81.0605826,29.5399209 L80.8985826,29.1979209 L80.9345826,28.8559209 L80.8625826,28.7659209 C80.7065818,28.6459203 80.6225826,28.5499212 80.6105826,28.4779209 C80.502582,28.4299206 80.4485826,28.3099218 80.4485826,28.1179209 L80.3405826,28.0999209 L80.1245826,27.7399209 L79.9625826,27.6139209 L79.5845826,27.4699209 L79.4405826,27.4339209 C79.3685822,27.4339209 79.3205827,27.4099211 79.2965826,27.3619209 L78.9365826,27.7579209 L78.7025826,28.2619209 L78.3245826,28.4599209 L78.2705826,28.6579209 L78.0905826,28.7479209 L78.0185826,29.2159209 L77.8025826,29.3239209 C77.7545823,29.4919217 77.7305826,29.6479202 77.7305826,29.7919209 L77.4425826,30.0619209 L77.5325826,30.1159209 C77.5325826,30.2599216 77.4785831,30.3859203 77.3705826,30.4939209 C77.3345824,30.6019214 77.2865829,30.7219202 77.2265826,30.8539209 L77.2265826,30.9979209 L77.1725826,31.0699209 L77.1905826,31.2859209 L76.9925826,31.7719209 L77.0285826,31.8619209 L77.0285826,32.3659209 L76.9565826,32.6179209 L76.9745826,32.8699209 L77.1365826,33.1039209 L77.3885826,33.1939209 L77.4785826,33.2299209 L77.6225826,33.1579209 L78.0905826,33.1939209 L78.1625826,33.0139209 L78.2345826,33.0139209 C78.3065829,33.0139209 78.3485825,33.0319207 78.3605826,33.0679209 L78.5225826,33.0139209 L78.6665826,33.0679209 L78.9005826,32.9059209 L78.9365826,32.8519209 L79.0985826,32.8159209 C79.182583,32.6839202 79.380581,32.5519215 79.6925826,32.4199209 L79.7285826,32.3299209 L80.0885826,32.0779209 L80.2865826,31.7899209 L80.5745826,31.6459209 L80.5925826,31.5559209 L80.6825826,31.3579209 L80.6825826,31.1239209 L80.8985826,30.9439209 L80.9705826,30.8179209 L81.0605826,30.7099209 C81.0125823,30.5659202 80.9885826,30.4639212 80.9885826,30.4039209 C80.9885826,30.2959203 81.0245822,30.1819215 81.0965826,30.0619209 L81.1685826,29.9899209 Z M94.7185826,26.4979209 L94.6285826,26.8399209 L94.6645826,27.0199209 L94.4485826,27.7219209 L94.4125826,27.9739209 L94.1605826,28.2439209 L94.0705826,28.5859209 L93.8725826,28.8739209 L93.5845826,29.5039209 L93.2425826,30.0799209 L92.7205826,30.8539209 L92.6305826,31.0879209 L92.3605826,31.5739209 L92.0545826,32.2039209 L91.5145826,33.1759209 L91.4065826,33.6079209 L91.1185826,34.0219209 L90.5785826,33.8419209 L90.2725826,33.6619209 L89.9845826,32.8159209 L89.6245826,32.2039209 L89.6245826,32.0239209 L89.4085826,31.5199209 L89.3185826,31.4119209 L88.5625826,29.8279209 L88.3285826,29.4499209 L88.1305826,29.7559209 L87.8425826,29.9899209 L87.4285826,30.5659209 L87.1405826,30.8719209 L86.9785826,31.3399209 L86.5825826,31.8259209 L86.5465826,31.9879209 L86.2765826,32.5459209 L86.2765826,32.8159209 L86.0965826,33.0679209 L86.0785826,33.3199209 L85.8985826,33.3739209 L85.5025826,33.7879209 L85.5745826,33.7519209 C85.454582,33.8239212 85.2925836,33.8719208 85.0885826,33.8959209 L84.9625826,33.7519209 L84.6925826,33.6439209 L84.6925826,33.4459209 L84.5845826,33.3019209 L84.4765826,32.8159209 L84.3325826,32.4919209 L84.3325826,32.2579209 L84.3145826,32.1859209 L84.0445826,31.4119209 L83.9725826,30.9259209 L83.7925826,30.7279209 L83.8285826,30.4939209 L83.6485826,30.0619209 L83.6485826,29.8999209 L83.5045826,29.5039209 L83.2525826,29.1619209 L83.2885826,28.7659209 L83.2705826,28.6399209 L83.0725826,28.1719209 L83.0365826,27.8839209 L82.9285826,27.7039209 C82.8565822,27.5839203 82.8025828,27.4639215 82.7665826,27.3439209 L82.4605826,26.5699209 L82.7125826,26.2459209 C82.7845829,26.1139202 82.9345814,26.0299211 83.1625826,25.9939209 L83.5405826,25.9399209 L83.6665826,26.1199209 L83.9005826,26.2279209 L84.0625826,26.5519209 L84.2065826,26.6779209 L84.1525826,26.9659209 L84.2245826,27.1459209 L84.1705826,27.3079209 L84.3505826,27.5959209 L84.3145826,27.8659209 L84.5485826,28.6759209 L84.5125826,28.8739209 L84.6205826,29.3599209 L84.8725826,29.9359209 L84.9805826,30.6199209 L85.1605826,30.8359209 L85.1605826,31.2679209 L85.2865826,31.6459209 L85.3045826,31.7899209 L85.5565826,31.6279209 L85.9705826,30.9619209 L86.0965826,30.6559209 L86.2405826,30.4039209 C86.2405826,30.2839203 86.2645823,30.1939212 86.3125826,30.1339209 L86.4205826,30.1339209 L86.4745826,29.8099209 L86.6725826,29.7739209 C86.6965827,29.6779204 86.7505822,29.6059211 86.8345826,29.5579209 L86.8345826,29.5219209 C86.8345826,29.4499205 86.8705822,29.3779212 86.9425826,29.3059209 L86.9065826,29.1799209 L86.9965826,29.1439209 L86.9785826,29.0359209 C87.0865831,28.8439199 87.2065819,28.6999214 87.3385826,28.6039209 L87.3385826,28.2439209 L87.5905826,28.0999209 L87.6625826,28.0459209 L87.6985826,28.0099209 C87.6385823,27.8899203 87.6085826,27.7579216 87.6085826,27.6139209 C87.6085826,27.3979198 87.7045816,27.1879219 87.8965826,26.9839209 C88.0045831,26.9359206 88.1365818,26.9119209 88.2925826,26.9119209 C88.3885831,26.9119209 88.4605823,26.9179208 88.5085826,26.9299209 L88.8505826,27.2359209 L89.0305826,27.5059209 L89.1385826,27.9379209 L89.3005826,28.2259209 L89.2645826,28.4239209 L89.3905826,28.8199209 L89.3905826,28.9819209 L89.6965826,29.5219209 L89.6965826,29.5759209 L89.7685826,29.6299209 L90.1285826,30.4939209 L90.1465826,30.7279209 L90.3265826,30.9259209 L90.7405826,31.8619209 L90.8305826,31.6999209 L91.1545826,31.0339209 L91.3525826,30.8719209 L91.4965826,30.4939209 L91.6765826,30.4039209 L91.6765826,30.1339209 C91.7485829,30.0739206 91.844582,30.0139212 91.9645826,29.9539209 C92.0365829,29.9179207 92.0725826,29.887921 92.0725826,29.8639209 L92.0545826,29.4859209 L92.2705826,29.2699209 L92.3605826,29.2159209 L92.6305826,28.7659209 L92.6305826,28.7119209 C92.6545827,28.5799202 92.7325819,28.4299217 92.8645826,28.2619209 L92.8285826,28.0639209 L93.1525826,27.6679209 L93.3145826,27.2719209 C93.1825819,26.9119191 93.1165826,26.6059221 93.1165826,26.3539209 C93.1165826,25.981919 93.3085807,25.7719211 93.6925826,25.7239209 L94.1785826,25.8679209 L94.2505826,25.7599209 L94.3765826,25.9219209 L94.5565826,26.0479209 L94.5025826,26.2459209 L94.7185826,26.4979209 Z" id="sign-up-now" transform="translate(47.911583, 30.241921) rotate(-6.000000) translate(-47.911583, -30.241921) "></path>
                </g>
            </g>
        </g>
    </g>
</svg>