<?xml version="1.0" encoding="UTF-8"?>
<svg width="17px" height="17px" viewBox="0 0 17 17" version="1.1" xmlns="http://www.w3.org/2000/svg" xmlns:xlink="http://www.w3.org/1999/xlink">
    <!-- Generator: Sketch 46.1 (44463) - http://www.bohemiancoding.com/sketch -->
    <title>instagram-shape</title>
    <desc>Created with Sketch.</desc>
    <defs></defs>
    <g id="Page-1" stroke="none" stroke-width="1" fill="none" fill-rule="evenodd">
        <g id="the-popup" transform="translate(-521.000000, -540.000000)" fill-rule="nonzero" fill="#93A2B2">
            <g id="Group-2" transform="translate(370.000000, 105.000000)">
                <g id="Group-7" transform="translate(150.000000, 434.000000)">
                    <path d="M13.2406,1 L5.6654,1 C3.0929,1 1,3.093 1,5.6655 L1,13.2407 C1,15.8133 3.0929,17.9062 5.6654,17.9062 L13.2406,17.9062 C15.8133,17.9062 17.9062,15.8132 17.9062,13.2407 L17.9062,5.6655 C17.9063,3.093 15.8133,1 13.2406,1 Z M16.4063,13.2407 C16.4063,14.9862 14.9862,16.4062 13.2407,16.4062 L5.6654,16.4062 C3.92,16.4063 2.5,14.9862 2.5,13.2407 L2.5,5.6655 C2.5,3.9201 3.92,2.5 5.6654,2.5 L13.2406,2.5 C14.9861,2.5 16.4062,3.9201 16.4062,5.6655 L16.4062,13.2407 L16.4063,13.2407 Z M9.4531,5.097 C7.051,5.097 5.0968,7.0512 5.0968,9.4533 C5.0968,11.8553 7.051,13.8094 9.4531,13.8094 C11.8552,13.8094 13.8094,11.8553 13.8094,9.4533 C13.8094,7.0512 11.8552,5.097 9.4531,5.097 Z M9.4531,12.3093 C7.8782,12.3093 6.5968,11.0281 6.5968,9.4532 C6.5968,7.8782 7.8781,6.5969 9.4531,6.5969 C11.0281,6.5969 12.3094,7.8782 12.3094,9.4532 C12.3094,11.0281 11.028,12.3093 9.4531,12.3093 Z M13.9921,3.8251 C14.2821,3.8251 14.5661,3.9421 14.7701,4.1471 C14.9751,4.3511 15.0921,4.6351 15.0921,4.9251 C15.0921,5.2141 14.9751,5.4981 14.7701,5.7031 C14.5651,5.9071 14.2821,6.0251 13.9921,6.0251 C13.7031,6.0251 13.4191,5.9071 13.2151,5.7031 C13.0101,5.4981 12.8921,5.2142 12.8921,4.9251 C12.8921,4.6351 13.01,4.3511 13.2151,4.1471 C13.4192,3.9421 13.7031,3.8251 13.9921,3.8251 Z" id="instagram-shape"></path>
                </g>
            </g>
        </g>
    </g>
</svg>