<?xml version="1.0" encoding="UTF-8"?>
<svg width="42px" height="30px" viewBox="0 0 42 30" version="1.1" xmlns="http://www.w3.org/2000/svg" xmlns:xlink="http://www.w3.org/1999/xlink">
    <!-- Generator: Sketch 48.2 (47327) - http://www.bohemiancoding.com/sketch -->
    <title>pricing_btn_4</title>
    <desc>Created with Sketch.</desc>
    <defs></defs>
    <g id="Pricing-v2a" stroke="none" stroke-width="1" fill="none" fill-rule="evenodd" transform="translate(-1048.000000, -492.000000)">
        <g id="services" transform="translate(252.000000, 445.000000)" fill="#59A0FD" fill-rule="nonzero">
            <g id="pricing_btn_4" transform="translate(796.000000, 47.000000)">
                <path d="M0,0.0115294118 L0,29.4232941 L41.9055294,29.4232941 L41.9055294,0.0115294118 L0,0.0115294118 Z M40.1408235,27.6587059 L1.76470588,27.6587059 L1.76470588,1.77635294 L40.1408235,1.77635294 L40.1408235,27.6587059 Z" id="Shape"></path>
                <path d="M12.3188235,23.9768235 C17.1652941,23.9768235 21.1082353,20.0337647 21.1082353,15.1872941 C21.1082353,10.3408235 17.1652941,6.39788235 12.3188235,6.39788235 C7.47235294,6.39788235 3.52941176,10.3407059 3.52941176,15.1872941 C3.52941176,20.0338824 7.47235294,23.9768235 12.3188235,23.9768235 Z M12.3188235,8.16258824 C16.1922353,8.16258824 19.3435294,11.3138824 19.3435294,15.1872941 C19.3435294,19.0608235 16.1922353,22.2121176 12.3188235,22.2121176 C8.44541176,22.2121176 5.29411765,19.0609412 5.29411765,15.1872941 C5.29411765,11.314 8.44541176,8.16258824 12.3188235,8.16258824 Z" id="Shape"></path>
                <polygon id="Shape" points="15.4904706 14.3049412 13.2011765 14.3049412 13.2011765 10.2567059 11.4364706 10.2567059 11.4364706 16.0696471 15.4904706 16.0696471"></polygon>
                <path d="M37.6470588,4.37423529 L22.7450588,4.37423529 L22.7450588,11.1389412 L37.6470588,11.1389412 L37.6470588,4.37423529 Z M31.5031765,6.13894118 L31.5031765,9.37423529 L28.8888235,9.37423529 L28.8888235,6.13894118 C28.8888235,6.13905882 31.5031765,6.13905882 31.5031765,6.13894118 Z M24.5097647,6.13894118 L27.1242353,6.13894118 L27.1242353,9.37423529 L24.5097647,9.37423529 L24.5097647,6.13894118 Z M35.8823529,9.37435294 L33.2678824,9.37435294 L33.2678824,6.13905882 L35.8823529,6.13905882 L35.8823529,9.37435294 Z" id="Shape"></path>
                <rect id="Rectangle-path" x="22.9411765" y="13.8350588" width="14.4117647" height="1.76470588"></rect>
                <rect id="Rectangle-path" x="22.9411765" y="17.7567059" width="14.4117647" height="1.76470588"></rect>
                <rect id="Rectangle-path" x="22.9411765" y="21.6783529" width="14.4117647" height="1.76470588"></rect>
            </g>
        </g>
    </g>
</svg>