<?xml version="1.0" encoding="UTF-8"?>
<svg width="18px" height="15px" viewBox="0 0 18 15" version="1.1" xmlns="http://www.w3.org/2000/svg" xmlns:xlink="http://www.w3.org/1999/xlink">
    <!-- Generator: Sketch 46.1 (44463) - http://www.bohemiancoding.com/sketch -->
    <title>email-shape</title>
    <desc>Created with Sketch.</desc>
    <defs></defs>
    <g id="Page-1" stroke="none" stroke-width="1" fill="none" fill-rule="evenodd">
        <g id="the-popup" transform="translate(-520.000000, -602.000000)" fill-rule="nonzero" fill="#93A2B2">
            <g id="Group-2" transform="translate(370.000000, 105.000000)">
                <g id="Group-7" transform="translate(150.000000, 434.000000)">
                    <path d="M15.6182695,63.0022852 L2.38173047,63.0022852 C1.06846875,63.0022852 7.03124999e-05,64.0707187 7.03124999e-05,65.3839453 L7.03124999e-05,75.311332 C7.03124999e-05,76.6245938 1.06846875,77.6929922 2.38173047,77.6929922 L15.6182695,77.6929922 C16.9315312,77.6929922 17.9999297,76.6245586 17.9999297,75.311332 L17.9999297,65.3839453 C17.9999297,64.0706836 16.9315312,63.0022852 15.6182695,63.0022852 Z M16.5457266,75.311332 C16.5457266,75.8227148 16.1296523,76.2387891 15.6182695,76.2387891 L2.38173047,76.2387891 C1.87034766,76.2387891 1.45427344,75.8227148 1.45427344,75.311332 L1.45427344,65.3839453 C1.45427344,64.8725625 1.87034766,64.4564883 2.38173047,64.4564883 L15.6182695,64.4564883 C16.1296523,64.4564883 16.5457266,64.8725625 16.5457266,65.3839453 L16.5457266,75.311332 Z M17.8684805,64.9669922 C17.6382422,64.6380352 17.1849375,64.5580195 16.8558398,64.788293 L8.99996484,70.2873281 L1.144125,64.7882578 C0.815167969,64.5579492 0.361792969,64.638 0.131519531,64.966957 C-0.0987539062,65.2959141 -0.0187382812,65.7492891 0.31021875,65.9795625 L8.58304688,71.7705703 C8.70823828,71.8582148 8.85410156,71.9019844 9,71.9019844 C9.14586328,71.9019844 9.29176172,71.8581797 9.41695313,71.7705703 L17.6897813,65.9795977 C18.0187383,65.7493242 18.0987539,65.2959492 17.8684805,64.9669922 Z" id="email-shape"></path>
                </g>
            </g>
        </g>
    </g>
</svg>