<?xml version="1.0" encoding="UTF-8"?>
<svg width="16px" height="13px" viewBox="0 0 16 13" version="1.1" xmlns="http://www.w3.org/2000/svg" xmlns:xlink="http://www.w3.org/1999/xlink">
    <!-- Generator: Sketch 47.1 (45422) - http://www.bohemiancoding.com/sketch -->
    <title>p_card-ico</title>
    <desc>Created with Sketch.</desc>
    <defs></defs>
    <g id="Page-1" stroke="none" stroke-width="1" fill="none" fill-rule="evenodd" opacity="0.600000024">
        <g id="Get-Started" transform="translate(-520.000000, -713.000000)" fill="#58627C">
            <g id="Group-11" transform="translate(470.000000, 573.000000)">
                <g id="Group-5" transform="translate(30.000000, 122.000000)">
                    <path d="M33.7142857,18.0571429 C34.1428594,18.0571429 34.4999977,18.205952 34.7857143,18.5035703 C35.0714309,18.8011909 35.2142857,19.1642834 35.2142857,19.5928571 L35.2142857,28.7357143 C35.2142857,29.1642878 35.0714309,29.5273794 34.7857143,29.825 C34.4999977,30.1226205 34.1428594,30.2714286 33.7142857,30.2714286 L21.5,30.2714286 C21.0714265,30.2714286 20.7142871,30.1226205 20.4285714,29.825 C20.1428557,29.5273794 20,29.1642878 20,28.7357143 L20,19.5928571 C20,19.1642834 20.1428557,18.8011909 20.4285714,18.5035703 C20.7142871,18.205952 21.0714265,18.0571429 21.5,18.0571429 L33.7142857,18.0571429 Z M33.7142857,21.1285714 L33.7142857,19.5928571 L21.5,19.5928571 L21.5,21.1285714 L33.7142857,21.1285714 Z M33.7142857,28.7357143 L33.7142857,24.1642857 L21.5,24.1642857 L21.5,28.7357143 L33.7142857,28.7357143 Z" id="p_card-ico"></path>
                </g>
            </g>
        </g>
    </g>
</svg>