<?xml version="1.0" encoding="UTF-8" standalone="no"?>
<svg width="1003px" height="1887px" viewBox="0 0 1003 1887" version="1.1" xmlns="http://www.w3.org/2000/svg" xmlns:xlink="http://www.w3.org/1999/xlink">
    <!-- Generator: Sketch 39.1 (31720) - http://www.bohemiancoding.com/sketch -->
    <title>Group 7</title>
    <desc>Created with Sketch.</desc>
    <defs>
        <path d="M29,58 C45.0162577,58 58,45.0162577 58,29 C58,12.9837423 45.0162577,0 29,0 C12.9837423,0 0,12.9837423 0,29 C0,45.0162577 12.9837423,58 29,58 Z" id="path-1"></path>
        <mask id="mask-2" maskContentUnits="userSpaceOnUse" maskUnits="objectBoundingBox" x="-5" y="-5" width="68" height="68">
            <rect x="-5" y="-5" width="68" height="68" fill="white"></rect>
            <use xlink:href="#path-1" fill="black"></use>
        </mask>
        <path d="M29,58 C45.0162577,58 58,45.0162577 58,29 C58,12.9837423 45.0162577,0 29,0 C12.9837423,0 0,12.9837423 0,29 C0,45.0162577 12.9837423,58 29,58 Z" id="path-3"></path>
        <mask id="mask-4" maskContentUnits="userSpaceOnUse" maskUnits="objectBoundingBox" x="-5" y="-5" width="68" height="68">
            <rect x="-5" y="-5" width="68" height="68" fill="white"></rect>
            <use xlink:href="#path-3" fill="black"></use>
        </mask>
        <path d="M29,58 C45.0162577,58 58,45.0162577 58,29 C58,12.9837423 45.0162577,0 29,0 C12.9837423,0 0,12.9837423 0,29 C0,45.0162577 12.9837423,58 29,58 Z" id="path-5"></path>
        <mask id="mask-6" maskContentUnits="userSpaceOnUse" maskUnits="objectBoundingBox" x="-5" y="-5" width="68" height="68">
            <rect x="-5" y="-5" width="68" height="68" fill="white"></rect>
            <use xlink:href="#path-5" fill="black"></use>
        </mask>
        <path d="M29,58 C45.0162577,58 58,45.0162577 58,29 C58,12.9837423 45.0162577,0 29,0 C12.9837423,0 0,12.9837423 0,29 C0,45.0162577 12.9837423,58 29,58 Z" id="path-7"></path>
        <mask id="mask-8" maskContentUnits="userSpaceOnUse" maskUnits="objectBoundingBox" x="-5" y="-5" width="68" height="68">
            <rect x="-5" y="-5" width="68" height="68" fill="white"></rect>
            <use xlink:href="#path-7" fill="black"></use>
        </mask>
    </defs>
    <g id="Page-1" stroke="none" stroke-width="1" fill="none" fill-rule="evenodd">
        <g id="Home" transform="translate(-219.000000, -944.000000)">
            <g id="Group-7" transform="translate(224.000000, 949.000000)">
                <path d="M495.5,38 L495.5,378.565609 C495.5,378.565609 499.819443,422.40589 451.659722,422.405887 C403.5,422.405884 79.9957332,422.405887 79.9957332,422.405887 C79.9957332,422.405887 29,418.5 29,464.5 L29,551.006374 L29,763.503103 C29,763.503103 29,820 75,820 C78.9739583,820 890.001859,820 890.001859,820 C890.001859,820 964.499989,814.5 964.5,880.5 C964.500011,946.5 964.5,1014 964.5,1014 L964.5,1202.5 C964.5,1202.5 971.396738,1263.05163 903.948369,1263.05163 C836.5,1263.05164 543.978345,1263.05163 543.978345,1263.05163 L159.984516,1263.05163 C159.984516,1263.05163 89.0112811,1263.54973 89.0112806,1334.02487 C89.0112801,1404.5 89.0112806,1555.00704 89.0112806,1555.00704 C89.0112806,1555.00704 92.0052978,1615.2484 149.252649,1615.24841 C206.5,1615.24841 441.008664,1615.24841 441.008664,1615.24841 C441.008664,1615.24841 498.630272,1611.24004 498.630276,1672.87002 C498.63028,1734.5 498.630276,1881.01949 498.630276,1881.01949" id="Path-3" stroke="#CFD9E0" stroke-width="4"></path>
                <path d="M495.99827,38 L495.99827,378.565609 C495.99827,378.565609 500.317713,422.40589 452.157991,422.405887 C425.276015,422.405885 312.605173,422.405885 218.292969,422.405886" id="Path-3" stroke="#CFD9E0" stroke-width="4"></path>
                <g id="Group-6">
                    <g id="Group">
                        <g id="Group-2" transform="translate(466.000000, 0.000000)">
                            <g id="Oval-2">
                                <use fill="#9DB2C1" fill-rule="evenodd" xlink:href="#path-1"></use>
                                <use stroke="#CFD9E0" mask="url(#mask-2)" stroke-width="10" xlink:href="#path-1"></use>
                            </g>
                            <text id="1" font-family="OpenSans-Semibold, Open Sans" font-size="30" font-weight="500" fill="#FFFFFF">
                                <tspan x="19.9379883" y="40">1</tspan>
                            </text>
                        </g>
                        <g id="Group-2-Copy" transform="translate(0.000000, 589.000000)">
                            <g id="Oval-2">
                                <use fill="#9DB2C1" fill-rule="evenodd" xlink:href="#path-3"></use>
                                <use stroke="#CFD9E0" mask="url(#mask-4)" stroke-width="10" xlink:href="#path-3"></use>
                            </g>
                            <text id="2" font-family="OpenSans-Semibold, Open Sans" font-size="30" font-weight="500" fill="#FFFFFF">
                                <tspan x="19.9379883" y="40">2</tspan>
                            </text>
                        </g>
                        <g id="Group-2-Copy-2" transform="translate(935.000000, 1020.000000)">
                            <g id="Oval-2">
                                <use fill="#9DB2C1" fill-rule="evenodd" xlink:href="#path-5"></use>
                                <use stroke="#CFD9E0" mask="url(#mask-6)" stroke-width="10" xlink:href="#path-5"></use>
                            </g>
                            <text id="3" font-family="OpenSans-Semibold, Open Sans" font-size="30" font-weight="500" fill="#FFFFFF">
                                <tspan x="21.9379883" y="39">3</tspan>
                            </text>
                        </g>
                        <g id="Group-2-Copy-3" transform="translate(60.000000, 1415.000000)">
                            <g id="Oval-2">
                                <use fill="#9DB2C1" fill-rule="evenodd" xlink:href="#path-7"></use>
                                <use stroke="#CFD9E0" mask="url(#mask-8)" stroke-width="10" xlink:href="#path-7"></use>
                            </g>
                            <text id="4" font-family="OpenSans-Semibold, Open Sans" font-size="30" font-weight="500" fill="#FFFFFF">
                                <tspan x="21.9379883" y="39">4</tspan>
                            </text>
                        </g>
                    </g>
                    <path d="M571.5,935.5 L573,937" id="Line" stroke="#979797" stroke-linecap="square"></path>
                </g>
            </g>
        </g>
    </g>
</svg>