<?xml version="1.0" encoding="UTF-8"?>
<svg width="42px" height="29px" viewBox="0 0 42 29" version="1.1" xmlns="http://www.w3.org/2000/svg" xmlns:xlink="http://www.w3.org/1999/xlink">
    <!-- Generator: Sketch 48.2 (47327) - http://www.bohemiancoding.com/sketch -->
    <title>pricing_btn_1</title>
    <desc>Created with Sketch.</desc>
    <defs></defs>
    <g id="Pricing-v2a" stroke="none" stroke-width="1" fill="none" fill-rule="evenodd" transform="translate(-345.000000, -492.000000)">
        <g id="services" transform="translate(252.000000, 445.000000)" fill="#59A0FD" fill-rule="nonzero">
            <g id="pricing_btn_1" transform="translate(93.000000, 47.000000)">
                <path d="M41.9091273,0.0211272727 L41.9091273,8.08232727 L40.0000364,8.08232727 L40.0000364,3.18818182 L19.2684545,23.9198909 L12.6616,17.3130364 L1.34998182,28.6247818 L0,27.2748 L12.6616,14.6133273 L19.2684545,21.2200545 L38.5580364,1.93034545 L33.8479273,1.93034545 L33.8479273,0.0212545455 L41.9091273,0.0211272727 Z M13.1346727,20.5661273 L6.39978182,27.3010182 L7.74976364,28.651 L14.4846545,21.9161091 L13.1346727,20.5661273 Z M37.9585818,9.436 L20.0934364,27.3012727 L21.4434182,28.6511273 L39.3085636,10.7859818 L37.9585818,9.436 Z M27.1346727,27.3016545 L28.4846545,28.6516364 L41.6315455,15.5047455 L40.2815636,14.1547636 L27.1346727,27.3016545 Z M34.1736182,27.3015273 L35.5236,28.6515091 L41.4280364,22.7470727 L40.0781818,21.3970909 L34.1736182,27.3015273 Z M13.3604545,27.2756909 L14.7104364,28.6256727 L17.6873455,25.6487636 L16.3373636,24.2987818 L13.3604545,27.2756909 Z" id="Shape"></path>
            </g>
        </g>
    </g>
</svg>