<?xml version="1.0" encoding="UTF-8"?>
<svg width="42px" height="22px" viewBox="0 0 42 22" version="1.1" xmlns="http://www.w3.org/2000/svg" xmlns:xlink="http://www.w3.org/1999/xlink">
    <!-- Generator: Sketch 48.2 (47327) - http://www.bohemiancoding.com/sketch -->
    <title>pricing_btn_2</title>
    <desc>Created with Sketch.</desc>
    <defs></defs>
    <g id="Pricing-v2a" stroke="none" stroke-width="1" fill="none" fill-rule="evenodd" transform="translate(-583.000000, -493.000000)">
        <g id="services" transform="translate(252.000000, 445.000000)" fill="#59A0FD" fill-rule="nonzero">
            <g id="pricing_btn_2" transform="translate(331.000000, 48.000000)">
                <path d="M41.6277326,11.3003398 L34.8384735,1.20723677 C34.3900446,0.540618384 33.6742897,0.113715877 32.8745348,0.0362674095 C32.074429,-0.0410640669 31.290351,0.240183844 30.7222396,0.808295265 L28.9854986,2.54503621 L30.226429,3.78584958 L31.9631699,2.04910864 C32.1590139,1.85326462 32.4303175,1.75627855 32.7052479,1.78295265 C32.9809972,1.80974373 33.2278496,1.95680223 33.3825125,2.18669081 L40.1716546,12.2796769 C40.2956657,12.4640557 40.2280446,12.6359164 40.193415,12.7011978 C40.1585515,12.7665961 40.053727,12.9184513 39.8315599,12.9184513 L36.6133538,12.9184513 L36.8006574,10.122 L22.2396435,10.122 L22.4312758,12.9845515 L19.2601003,12.9845515 L19.4517326,10.122 L4.89083565,10.122 L5.07813928,12.9184513 L2.16551532,12.9184513 C1.94334819,12.9184513 1.83852368,12.7664791 1.80366017,12.7011978 C1.76879666,12.6359164 1.70129248,12.4640557 1.82542061,12.2796769 L8.61467967,2.18657382 C8.76934262,1.95668524 9.01619499,1.80950975 9.29194429,1.78283565 C9.56781058,1.75627855 9.83817827,1.85314763 10.0341393,2.04899164 L11.7708802,3.78573259 L13.0116936,2.54491922 L11.2748357,0.808295265 C10.7067242,0.240183844 9.92252925,-0.0409470752 9.12254039,0.0362674095 C8.32278552,0.113832869 7.60691365,0.540618384 7.15848468,1.20723677 L0.369225627,11.3003398 C-0.0782674095,11.9655543 -0.122139276,12.8184234 0.254690808,13.5261058 C0.631520891,14.2337883 1.3636546,14.6734429 2.16551532,14.6734429 L5.19559889,14.6734429 L5.62916992,21.1488134 L18.7133983,21.1488134 L19.1426407,14.7394262 L22.5488524,14.7394262 L22.9779777,21.1488134 L36.0622061,21.1488134 L36.4958942,14.6734429 L39.8316769,14.6734429 C40.6334206,14.6734429 41.3654373,14.2339053 41.7423844,13.5262228 C42.1192145,12.8185404 42.0753426,11.9656713 41.6277326,11.3003398 Z M17.0721226,19.3939387 L7.27056267,19.3939387 L6.76714763,11.8769916 L17.5755376,11.8769916 L17.0721226,19.3939387 Z M34.4208134,19.3939387 L24.6192535,19.3939387 L24.1158384,11.8769916 L34.9242284,11.8769916 L34.4208134,19.3939387 Z" id="Shape"></path>
            </g>
        </g>
    </g>
</svg>